<svg width="240" height="194" viewBox="0 0 240 194" fill="none" xmlns="http://www.w3.org/2000/svg">
<path d="M13.5632 4.5H35.9632L65.9632 120.9L73.6632 162.2H75.0632L82.7632 120.9L114.563 4.5H137.263L169.263 120.9L176.963 162.2H178.263L186.263 120.9L216.063 4.5H237.963L188.663 179.5H165.663L132.263 56.7L125.563 20.7H124.763L118.163 56.7L85.6632 179.5H63.1632L13.5632 4.5Z" stroke="#231F20" stroke-width="2"/>
<path d="M173.363 122.8C175.863 122.8 175.863 118.8 173.363 118.8C170.763 118.8 170.763 122.8 173.363 122.8ZM175.963 118.6C178.463 118.6 178.563 114.6 175.963 114.6C173.363 114.6 173.363 118.6 175.963 118.6ZM175.863 103.8V106.4C175.866 106.596 175.926 106.786 176.036 106.948C176.146 107.11 176.301 107.236 176.482 107.311C176.663 107.385 176.862 107.405 177.054 107.367C177.247 107.33 177.423 107.237 177.563 107.1C177.763 107 177.863 106.7 177.863 106.4V103.8C177.863 103.535 177.758 103.28 177.57 103.093C177.383 102.905 177.128 102.8 176.863 102.8C176.598 102.8 176.344 102.905 176.156 103.093C175.969 103.28 175.863 103.535 175.863 103.8ZM177.263 100C177.528 100 177.783 99.8946 177.97 99.7071C178.158 99.5196 178.263 99.2652 178.263 99C178.263 98.7348 178.158 98.4804 177.97 98.2929C177.783 98.1054 177.528 98 177.263 98C176.998 98 176.744 98.1054 176.556 98.2929C176.369 98.4804 176.263 98.7348 176.263 99C176.263 99.2652 176.369 99.5196 176.556 99.7071C176.744 99.8946 176.998 100 177.263 100ZM177.663 93.5V95L177.963 95.2H178.363C178.465 95.1284 178.536 95.0214 178.563 94.9L178.663 93.6L178.563 93.2C178.507 93.1558 178.443 93.1241 178.374 93.1068C178.305 93.0896 178.233 93.0873 178.163 93.1L177.863 93.2C177.801 93.2466 177.751 93.307 177.716 93.3764C177.681 93.4458 177.663 93.5224 177.663 93.6V93.5V93.5Z" fill="#231F20"/>
<path d="M114.363 4.4C114.363 4.4 96.2632 12.9 86.7632 31.4C83.2632 38.6 81.7632 46.6 82.5632 54.5C83.8632 68.7 83.5632 79.9 77.5632 87.3C77.5632 87.3 64.8632 101.3 64.3632 114.6M216.063 4.3C216.063 4.3 197.163 20.8 193.063 33.2C188.863 43.5 190.163 47.7 189.363 58.8C189.316 67.0822 187.221 75.2242 183.263 82.5C178.663 91 175.763 94.8 175.563 105.8C175.563 109.5 174.763 113.2 173.263 116.7C171.363 120.9 169.663 121.4 169.663 121.4M12.9632 4C8.6182 16.3338 4.91326 28.8839 1.8632 41.6C1.3632 45.2 -2.5368 62.7 11.6632 84C15.1632 89.2 18.1632 94.9 20.5632 100.8C31.6632 129.5 29.5632 152.4 29.7632 158.8C30.0632 165.5 28.4632 185.3 50.8632 192.2C68.1632 194.8 68.7632 183.8 84.3632 179.6H64.3632L12.9632 4ZM109.963 87.2C109.963 87.2 128.963 92 131.263 126.2C133.663 160.3 135.763 161.2 141.863 170.2C147.863 179.2 150.563 187 150.063 191.5C155.063 194.8 168.163 191.5 173.463 187.2C177.976 183.468 183.331 180.894 189.063 179.7H165L131.263 87.3L109.963 87.2Z" stroke="#231F20" stroke-width="2"/>
<path d="M165.763 179.3L149.963 191.4M82.9632 62.3L83.2632 54.3C83.2632 54.3 83.2632 48.6 86.8632 45.5L88.4632 44.5C89.439 44.1346 90.5142 44.136 91.4891 44.5039C92.4639 44.8718 93.272 45.5811 93.7632 46.5C94.7632 48.3 95.6632 51.2 94.7632 55.5V55.7C92.1632 62.8 89.9632 65.9 91.4632 76.1C92.9632 82.7 92.1632 85.7 91.8632 87.9M182.663 138.5C180.663 134.9 179.863 130.7 180.463 126.5C180.263 123.4 184.663 114.6 180.863 108.5C177.963 103.5 178.963 92.4 178.963 92.4C178.963 91.4 179.163 90.4 179.363 89.6M49.3632 130.8C49.3632 130.8 50.3632 144.3 49.4632 152.6C48.5632 161 49.7632 167.7 51.2632 171.2C52.7632 174.8 53.2632 177.7 52.4632 180.2C51.6632 182.6 52.3632 189.3 53.8632 192.6L49.3632 130.8Z" stroke="#231F20"/>
<path d="M56.9632 182.1C60.1632 182.1 60.1632 177.1 56.9632 177.1C53.6632 177.1 53.6632 182.1 56.9632 182.1Z" fill="#231F20"/>
<path d="M60.3632 182.9L59.1632 181.5L59.5632 182L59.0632 181.3C58.6632 180.8 58.1632 180.3 57.5632 180.2C57.2632 180.1 56.8632 180 56.5632 180.2C56.2182 180.179 55.8736 180.248 55.5632 180.4L55.1632 180.8C54.8632 181.1 54.5632 181.5 54.4632 181.9V182.6C54.4632 183 54.4632 183.4 54.7632 183.8C55.0632 184.4 55.4632 184.8 55.9632 185.4L56.8632 186.4C57.3632 186.8 57.8632 187.1 58.5632 187.1C58.9632 187.1 59.2632 187.1 59.5632 186.9C59.9632 186.9 60.1632 186.6 60.4632 186.4L60.7632 185.9C61.0632 185.5 61.1632 185.1 61.1632 184.6L61.0632 184C60.9632 183.5 60.7632 183.2 60.4632 182.9H60.3632Z" fill="#231F20"/>
<path d="M54.4632 182.6C54.2632 184.3 54.4632 186 54.7632 187.6C54.8991 188.218 55.1911 188.79 55.6113 189.263C56.0315 189.736 56.5658 190.093 57.1632 190.3C58.0632 190.6 58.9632 190.6 59.8632 190.4C62.6775 189.767 65.3107 188.502 67.5632 186.7C68.0637 186.336 68.4114 185.799 68.5391 185.194C68.6667 184.588 68.5651 183.957 68.2541 183.422C67.943 182.887 67.4445 182.486 66.8551 182.297C66.2657 182.109 65.6272 182.145 65.0632 182.4L62.1632 184.3L60.5632 185.1C60.8632 184.9 61.0632 184.9 60.6632 185.1L60.3632 185.2C60.0694 185.318 59.7689 185.418 59.4632 185.5L58.6632 185.6H58.8632H58.4632C58.0632 185.6 58.9632 185.7 58.6632 185.6L58.9632 185.7L59.2632 186C59.4632 186.1 59.5632 186.3 59.5632 186.5C59.6632 186.7 59.6632 186.7 59.5632 186.5V186.1L59.4632 185.6V185.9V185.6V182.6C59.4503 182.272 59.3728 181.949 59.2352 181.651C59.0975 181.352 58.9023 181.084 58.6608 180.861C58.4193 180.638 58.1363 180.465 57.8278 180.352C57.5194 180.238 57.1916 180.187 56.8632 180.2C56.2081 180.225 55.5865 180.496 55.1229 180.96C54.6593 181.423 54.3879 182.045 54.3632 182.7L54.4632 182.6Z" fill="#231F20"/>
<path d="M59.6632 183.9H60.9632H60.2632H60.9632L60.3632 183.7L60.5632 183.8L60.0632 183.4L59.6632 183L59.3632 182.5V181.3V181.5L59.5632 180.9V181.1C59.3339 181.476 59.2083 181.907 59.199 182.348C59.1897 182.788 59.2971 183.224 59.5104 183.609C59.7236 183.995 60.035 184.318 60.4131 184.544C60.7912 184.771 61.2224 184.894 61.6632 184.9C62.8632 184.9 63.9632 184.9 65.1632 185.1L64.4632 185L65.7632 185.2C66.4632 185.4 67.1632 185.2 67.7632 185C68.2632 184.6 68.7632 184.1 68.8632 183.5C68.9853 183.178 69.0394 182.834 69.0222 182.49C69.005 182.145 68.9168 181.808 68.7632 181.5C68.4121 180.984 67.8742 180.626 67.2632 180.5C65.4632 180.1 63.5632 179.9 61.7632 179.9L63.9632 183.6C64.3632 182.9 64.5632 182 64.3632 181.2C64.22 180.728 63.9625 180.298 63.6137 179.95C63.2648 179.601 62.8353 179.343 62.3632 179.2C61.4632 178.9 60.5632 178.8 59.6632 178.9C58.9632 178.9 58.3632 179.2 57.8632 179.6C57.5001 179.95 57.2511 180.401 57.149 180.895C57.0469 181.388 57.0965 181.901 57.2911 182.366C57.4858 182.831 57.8165 183.227 58.2398 183.5C58.6631 183.774 59.1593 183.913 59.6632 183.9V183.9ZM50.2632 155.1C50.7632 156.7 51.2632 158.4 51.3632 160.1V159.4L51.5632 162C51.5632 162.663 51.8266 163.299 52.2954 163.768C52.7643 164.237 53.4002 164.5 54.0632 164.5C54.7262 164.5 55.3621 164.237 55.831 163.768C56.2998 163.299 56.5632 162.663 56.5632 162C56.4632 159.2 55.9632 156.4 55.0632 153.7C54.8405 153.123 54.4121 152.65 53.8608 152.371C53.3094 152.091 52.6741 152.026 52.0776 152.188C51.481 152.349 50.9654 152.726 50.6304 153.245C50.2953 153.765 50.1645 154.39 50.2632 155V155.1Z" fill="#231F20"/>
<path d="M50.2632 157.6C50.5632 161.3 51.2632 165.1 52.4632 168.6C52.6502 169.24 53.0764 169.785 53.6534 170.12C54.2304 170.455 54.9142 170.555 55.5632 170.4C56.196 170.235 56.7389 169.828 57.0754 169.267C57.4119 168.706 57.5152 168.036 57.3632 167.4C56.7939 165.764 56.3263 164.094 55.9632 162.4L55.6632 161.1V160.5L55.5632 160V159.6L55.4632 159L55.3632 157.6C55.3632 156.937 55.0998 156.301 54.631 155.832C54.1621 155.363 53.5262 155.1 52.8632 155.1C52.2002 155.1 51.5643 155.363 51.0954 155.832C50.6266 156.301 50.3632 156.937 50.3632 157.6H50.2632Z" fill="#231F20"/>
<path d="M51.6632 165.3C51.5632 168.3 52.5632 171.3 53.6632 174C54.6632 176.5 55.8632 180.4 59.0632 180.9C59.6976 181.027 60.3565 180.913 60.9112 180.58C61.466 180.247 61.8767 179.719 62.0632 179.1C62.1514 178.764 62.1687 178.414 62.1141 178.071C62.0595 177.729 61.9341 177.401 61.746 177.109C61.5578 176.818 61.3111 176.569 61.0214 176.378C60.7316 176.187 60.4053 176.058 60.0632 176C60.3632 176.1 60.3632 176.1 60.0632 176C60.6632 176.4 60.0632 175.9 59.9632 175.7L59.8632 175.6L59.4632 174.9L59.0632 174.1C58.9632 173.8 58.9632 173.8 59.0632 174L58.8632 173.5C58.2035 171.855 57.6031 170.188 57.0632 168.5L56.8632 167.9L56.7632 167.3V165.4C56.7635 165.063 56.6956 164.73 56.5638 164.42C56.432 164.11 56.2388 163.829 55.996 163.596C55.7531 163.362 55.4656 163.18 55.1506 163.061C54.8357 162.941 54.4998 162.887 54.1632 162.9C53.5081 162.925 52.8865 163.196 52.4229 163.66C51.9593 164.123 51.6879 164.745 51.6632 165.4V165.3Z" fill="#231F20"/>
<path d="M51.9632 160.1C53.7632 164.4 55.0632 168.8 55.9632 173.3C56.1356 173.95 56.559 174.504 57.1404 174.842C57.7218 175.18 58.4134 175.272 59.0632 175.1C59.713 174.928 60.2677 174.504 60.6052 173.923C60.9428 173.341 61.0356 172.65 60.8632 172C59.8632 167.5 58.5632 163 56.8632 158.8C56.6767 158.18 56.266 157.653 55.7112 157.32C55.1565 156.987 54.4976 156.873 53.8632 157C53.539 157.081 53.2344 157.227 52.9673 157.427C52.7003 157.628 52.4762 157.881 52.3084 158.17C52.1406 158.459 52.0324 158.779 51.9903 159.11C51.9482 159.442 51.973 159.778 52.0632 160.1H51.9632Z" fill="#231F20"/>
<path d="M59.1632 178.6C62.3632 178.6 62.3632 173.6 59.1632 173.6C55.8632 173.6 55.8632 178.6 59.1632 178.6Z" fill="#231F20"/>
<path d="M59.1632 177.6C62.3632 177.6 62.3632 172.6 59.1632 172.6C55.8632 172.6 55.8632 177.6 59.1632 177.6ZM58.3632 192.5C61.6632 192.5 61.6632 187.5 58.3632 187.5C55.1632 187.5 55.1632 192.5 58.3632 192.5Z" fill="#231F20"/>
<path d="M61.9632 191.8C64.7632 190.8 67.3632 189.2 69.6632 187.2C70.1632 186.7 70.4632 186.1 70.4632 185.4C70.4632 184.8 70.1632 184.1 69.6632 183.6C69.2632 183.2 68.6632 182.9 67.9632 182.9C67.2632 182.9 66.6632 183.2 66.1632 183.7L65.4632 184.2L65.9632 183.8C64.2798 185.133 62.4311 186.242 60.4632 187.1L61.0632 186.8L60.5632 187C59.9632 187.2 59.4632 187.6 59.0632 188.1C58.8402 188.462 58.7133 188.875 58.6946 189.3C58.6759 189.725 58.7659 190.148 58.9561 190.529C59.1464 190.909 59.4305 191.235 59.7817 191.475C60.133 191.715 60.5396 191.861 60.9632 191.9H61.9632V191.8ZM52.5632 153C52.961 153 53.3426 152.842 53.6239 152.561C53.9052 152.279 54.0632 151.898 54.0632 151.5C54.0632 151.102 53.9052 150.721 53.6239 150.439C53.3426 150.158 52.961 150 52.5632 150C52.1654 150 51.7838 150.158 51.5025 150.439C51.2212 150.721 51.0632 151.102 51.0632 151.5C51.0632 151.898 51.2212 152.279 51.5025 152.561C51.7838 152.842 52.1654 153 52.5632 153V153Z" fill="#231F20"/>
<path d="M50.5632 147.1V152.9C50.5632 153.298 50.7212 153.679 51.0025 153.961C51.2838 154.242 51.6654 154.4 52.0632 154.4C52.461 154.4 52.8426 154.242 53.1239 153.961C53.4052 153.679 53.5632 153.298 53.5632 152.9V147.1C53.5632 146.702 53.4052 146.321 53.1239 146.039C52.8426 145.758 52.461 145.6 52.0632 145.6C51.6654 145.6 51.2838 145.758 51.0025 146.039C50.7212 146.321 50.5632 146.702 50.5632 147.1Z" fill="#231F20"/>
<path d="M51.5632 148.9L52.8632 154.9C52.979 155.265 53.2299 155.572 53.5645 155.758C53.8992 155.944 54.2922 155.994 54.6632 155.9C55.0358 155.764 55.3444 155.494 55.5292 155.143C55.714 154.792 55.7618 154.384 55.6632 154L54.3632 148C54.2474 147.635 53.9965 147.328 53.6619 147.142C53.3272 146.956 52.9342 146.905 52.5632 147C52.1983 147.116 51.8915 147.367 51.7056 147.701C51.5196 148.036 51.4687 148.429 51.5632 148.8V148.9ZM50.4632 138.3L51.9632 146.2C51.9632 146.8 52.9632 146.6 52.9632 145.9L51.4632 137.9C51.2632 137.3 50.3632 137.6 50.4632 138.2V138.3Z" fill="#231F20"/>
<path d="M50.8632 141.4L50.7632 145.9C50.7558 145.986 50.7711 146.073 50.8075 146.152C50.8439 146.231 50.9001 146.299 50.9708 146.349C51.0414 146.4 51.1239 146.431 51.2103 146.44C51.2966 146.449 51.3838 146.435 51.4632 146.4L52.1632 145.9C52.2278 145.819 52.2658 145.72 52.2717 145.617C52.2777 145.513 52.2515 145.411 52.1966 145.323C52.1417 145.235 52.0609 145.166 51.9654 145.127C51.8698 145.087 51.7642 145.077 51.6632 145.1L50.9632 145.5L51.7632 145.9V141.4C51.7632 140.8 50.7632 140.8 50.7632 141.4H50.8632ZM68.7632 183.7H70.9632C71.3632 183.7 71.6632 183.5 71.9632 183.2C72.1509 182.992 72.2765 182.735 72.3257 182.459C72.375 182.183 72.3459 181.899 72.2418 181.639C72.1377 181.378 71.9627 181.152 71.7367 180.986C71.5107 180.821 71.2427 180.721 70.9632 180.7H68.7632C68.3632 180.7 67.9632 180.8 67.7632 181.1C67.3632 181.4 67.2632 181.8 67.2632 182.1C67.2632 182.6 67.3632 182.9 67.6632 183.2C67.9632 183.5 68.3632 183.7 68.6632 183.7H68.7632Z" fill="#231F20"/>
<path d="M68.6632 182.7L73.9632 183L72.8632 180.4C72.3632 181 71.8632 181.6 71.1632 182.1L70.9632 182.2H71.1632H70.9632L70.5632 182.5L69.5632 183.2C69.223 183.39 68.9701 183.705 68.8581 184.078C68.7461 184.452 68.7838 184.854 68.9632 185.2C69.1695 185.523 69.4917 185.755 69.8637 185.848C70.2356 185.941 70.6291 185.888 70.9632 185.7C72.5632 184.9 73.8632 183.8 74.9632 182.6C75.1831 182.396 75.3369 182.131 75.4047 181.839C75.4725 181.547 75.4512 181.241 75.3436 180.961C75.2359 180.682 75.0469 180.44 74.8008 180.269C74.5548 180.098 74.263 180.004 73.9632 180L68.6632 179.7C68.2654 179.7 67.8838 179.858 67.6025 180.139C67.3212 180.421 67.1632 180.802 67.1632 181.2C67.1632 181.598 67.3212 181.979 67.6025 182.261C67.8838 182.542 68.2654 182.7 68.6632 182.7V182.7Z" fill="#231F20"/>
<path d="M76.6632 182.5C76.9284 182.5 77.1828 182.395 77.3703 182.207C77.5578 182.02 77.6632 181.765 77.6632 181.5C77.6632 181.235 77.5578 180.98 77.3703 180.793C77.1828 180.605 76.9284 180.5 76.6632 180.5C76.398 180.5 76.1436 180.605 75.9561 180.793C75.7685 180.98 75.6632 181.235 75.6632 181.5C75.6632 181.765 75.7685 182.02 75.9561 182.207C76.1436 182.395 76.398 182.5 76.6632 182.5Z" fill="#231F20"/>
<path d="M74.7632 181.1V181.2V180.9V181.2V180.9V181.2L74.8632 180.9C74.8632 181 74.8632 181.1 74.6632 181.2L74.8632 181L74.6632 181.2L74.8632 181L74.6632 181.2L74.8632 181.1H74.6632H74.8632H74.6632H74.9632H74.5632L74.1632 181.3L73.8632 181.5L73.6632 181.9C73.6016 182.152 73.6402 182.418 73.7708 182.641C73.9014 182.865 74.1138 183.03 74.3632 183.1H75.3632C75.7085 182.978 76.0178 182.772 76.2632 182.5L76.7632 181.5V180.5L76.5632 180.2L76.2632 180C76.1709 179.947 76.0689 179.913 75.9632 179.9H75.5632C75.3204 179.954 75.1065 180.097 74.9632 180.3C74.8919 180.419 74.8462 180.552 74.829 180.689C74.8118 180.827 74.8234 180.967 74.8632 181.1H74.7632Z" fill="#231F20"/>
<path d="M77.3632 181.8C78.3632 181.8 79.3632 181.8 80.1632 181.4C80.4632 181.4 80.6632 181.2 80.7632 180.9C80.8403 180.733 80.8697 180.548 80.8482 180.365C80.8267 180.182 80.7551 180.008 80.6413 179.864C80.5276 179.719 80.376 179.608 80.2035 179.544C80.0309 179.48 79.8439 179.465 79.6632 179.5L78.3632 179.8H78.6632H77.3632C77.1675 179.803 76.9769 179.863 76.815 179.973C76.6531 180.083 76.5271 180.238 76.4526 180.419C76.378 180.6 76.3583 180.799 76.3957 180.991C76.4332 181.183 76.5262 181.36 76.6632 181.5C76.8632 181.7 77.1632 181.8 77.3632 181.8ZM141.563 145.8C144.863 145.8 144.863 140.8 141.563 140.8C138.363 140.8 138.363 145.8 141.563 145.8Z" fill="#231F20"/>
<path d="M118.963 67.9C119.963 76.2 121.663 84.4 123.963 92.5C126.263 100.3 129.963 107.6 132.263 115.4C136.863 130.8 132.463 147.4 140.963 161.8C143.763 166.4 149.663 163.8 150.263 159.2C151.763 147.8 149.663 136.5 147.463 125.2C146.163 118.8 136.863 121.7 137.763 127.9C140.109 143.843 143.516 159.611 147.963 175.1C149.663 181.3 159.363 178.7 157.563 172.5C153.117 157.011 149.709 141.243 147.363 125.3L137.763 127.9C139.863 138.3 141.763 148.6 140.263 159.2L149.563 156.7C141.763 143.5 146.163 127 141.863 112.7C139.763 105.5 136.363 98.7 134.163 91.6C131.763 83.9 129.963 75.9 128.963 67.9C128.163 61.6 118.163 61.5 118.963 67.9V67.9Z" fill="#231F20"/>
<path d="M114.363 84L117.463 89C118.763 90.8 119.963 93.5 122.463 94C125.763 94.8 129.263 92.7 129.363 89C129.365 88.2678 129.214 87.5432 128.922 86.8719C128.629 86.2007 128.201 85.5974 127.663 85.1C126.982 84.5222 126.175 84.1126 125.306 83.9042C124.438 83.6957 123.532 83.6943 122.663 83.9C120.063 84.2 118.363 87.7 119.163 90C120.163 92.9 122.563 93.9 125.363 93.5H125.463L120.663 92.2L120.763 92.4L119.363 88.8V89L121.763 84.7L121.563 84.9L124.063 84.2H123.763L127.263 85.7C127.763 86.4 127.763 86.4 127.263 85.7L126.663 84.7L125.463 82.9L122.963 78.9C121.463 76.8 118.463 75.7 116.063 77.2C113.863 78.6 112.763 81.7 114.263 84H114.363Z" fill="#231F20"/>
<path d="M125.263 74.4C127.163 69.9 128.463 65.2 129.263 60.4C129.763 57.8 128.563 55 125.763 54.3C123.463 53.6 120.163 55.1 119.663 57.8C118.863 62.6 117.463 67.3 115.663 71.8C114.663 74.3 116.763 77.3 119.163 77.9C122.063 78.7 124.263 76.9 125.263 74.4V74.4Z" fill="#231F20"/>
<path d="M123.563 66.8C124.563 75.8 126.163 84.6 128.563 93.2C131.063 102 135.063 110.2 137.363 119C138.963 125.2 148.663 122.6 147.063 116.3C144.863 108.2 141.263 100.5 138.763 92.3C136.263 84 134.463 75.5 133.563 66.8C132.863 60.5 122.863 60.4 123.563 66.8Z" fill="#231F20"/>
<path d="M140.363 125.5L140.963 129.7C141.213 130.666 141.745 131.535 142.493 132.196C143.24 132.857 144.168 133.279 145.158 133.408C146.147 133.537 147.152 133.367 148.044 132.92C148.936 132.473 149.674 131.77 150.163 130.9C150.763 129.7 150.963 128.3 150.663 127L149.963 122.8C149.696 121.861 149.161 121.021 148.422 120.384C147.684 119.746 146.775 119.338 145.807 119.21C144.84 119.083 143.856 119.241 142.978 119.666C142.099 120.09 141.364 120.763 140.863 121.6C140.248 122.802 140.071 124.181 140.363 125.5V125.5ZM150.163 151.7C156.663 151.7 156.663 141.7 150.163 141.7C143.763 141.7 143.763 151.7 150.163 151.7Z" fill="#231F20"/>
<path d="M148.163 142.3C154.663 142.3 154.663 132.3 148.163 132.3C141.763 132.3 141.763 142.3 148.163 142.3ZM153.963 184.5C160.363 184.5 160.463 174.5 153.963 174.5C147.563 174.5 147.563 184.5 153.963 184.5ZM146.163 170.3C152.663 170.3 152.663 160.3 146.163 160.3C139.763 160.3 139.763 170.3 146.163 170.3Z" fill="#231F20"/>
<path d="M142.963 166.3C149.463 166.3 149.463 156.3 142.963 156.3C136.563 156.3 136.563 166.3 142.963 166.3Z" fill="#231F20"/>
<path d="M141.363 161.7C147.863 161.7 147.863 151.7 141.363 151.7C134.963 151.7 134.963 161.7 141.363 161.7Z" fill="#231F20"/>
<path d="M152.763 160.7C159.263 160.7 159.263 150.7 152.763 150.7C146.363 150.7 146.363 160.7 152.763 160.7Z" fill="#231F20"/>
<path d="M154.763 167.1C161.163 167.1 161.263 157.1 154.763 157.1C148.363 157.1 148.363 167.1 154.763 167.1Z" fill="#231F20"/>
<path d="M155.163 173.3C161.663 173.3 161.663 163.3 155.163 163.3C148.763 163.3 148.763 173.3 155.163 173.3Z" fill="#231F20"/>
<path d="M157.163 179.3C163.663 179.3 163.663 169.3 157.163 169.3C150.763 169.3 150.763 179.3 157.163 179.3Z" fill="#231F20"/>
<path d="M157.363 182.5C163.763 182.5 163.863 172.5 157.363 172.5C150.963 172.5 150.963 182.5 157.363 182.5Z" fill="#231F20"/>
<path d="M152.963 187.2C157.463 187.2 157.463 180.2 152.963 180.2C148.463 180.2 148.463 187.2 152.963 187.2Z" fill="#231F20"/>
<path d="M154.463 186.3C158.963 186.3 158.963 179.3 154.463 179.3C149.963 179.3 149.963 186.3 154.463 186.3Z" fill="#231F20"/>
<path d="M156.063 185.3C160.563 185.3 160.563 178.3 156.063 178.3C151.563 178.3 151.563 185.3 156.063 185.3Z" fill="#231F20"/>
<path d="M157.563 184.3C162.063 184.3 162.063 177.3 157.563 177.3C153.063 177.3 153.063 184.3 157.563 184.3Z" fill="#231F20"/>
<path d="M159.763 182.3C164.263 182.3 164.263 175.3 159.763 175.3C155.263 175.3 155.263 182.3 159.763 182.3Z" fill="#231F20"/>
<path d="M160.863 181.8C165.363 181.8 165.363 174.8 160.863 174.8C156.263 174.8 156.363 181.8 160.863 181.8Z" fill="#231F20"/>
<path d="M160.263 179.6C164.763 179.6 164.763 172.6 160.263 172.6C155.763 172.6 155.763 179.6 160.263 179.6ZM142.363 168.7C145.563 168.7 145.563 163.7 142.363 163.7C139.063 163.7 139.063 168.7 142.363 168.7Z" fill="#231F20"/>
<path d="M141.763 169.3C142.505 170.027 143.206 170.795 143.863 171.6L143.463 171.1L143.963 171.7C144.063 172 144.263 172.2 144.563 172.4C144.763 172.6 145.063 172.8 145.363 172.8C145.763 172.9 146.063 173 146.363 172.8C146.708 172.821 147.053 172.752 147.363 172.6C147.863 172.3 148.363 171.7 148.463 171.1L148.563 170.4L148.263 169.2C147.263 167.9 146.363 166.8 145.263 165.7C144.918 165.35 144.475 165.115 143.992 165.026C143.509 164.936 143.01 164.997 142.563 165.2C142.263 165.2 141.963 165.4 141.763 165.7C141.363 166.1 141.063 166.7 141.063 167.5C141.063 168.1 141.363 168.7 141.763 169.2V169.3Z" fill="#231F20"/>
<path d="M143.663 172L146.163 175.5L146.863 176.2L147.663 176.7H148.663C149.063 176.7 149.363 176.6 149.663 176.4C150.231 176.066 150.644 175.522 150.812 174.885C150.981 174.248 150.891 173.571 150.563 173L147.963 169.5C147.792 169.212 147.552 168.971 147.263 168.8C147.063 168.5 146.763 168.4 146.463 168.3C146.135 168.215 145.791 168.215 145.463 168.3C145.109 168.31 144.764 168.413 144.463 168.6C144.039 168.852 143.698 169.224 143.485 169.668C143.271 170.113 143.194 170.611 143.263 171.1L143.563 172.1V172H143.663Z" fill="#231F20"/>
<path d="M146.163 176.4L147.363 178.4L147.963 179.1L148.863 179.5H149.863C150.163 179.5 150.463 179.5 150.763 179.2L151.263 178.9C151.563 178.5 151.763 178.2 151.863 177.7L151.963 177.1C151.963 176.6 151.963 176.2 151.663 175.8L150.463 173.9L149.763 173.2C149.54 172.972 149.266 172.801 148.963 172.7H147.963L146.963 173L146.563 173.4C146.263 173.7 145.963 174.1 145.863 174.5V175.2C145.863 175.6 145.863 176.1 146.163 176.5V176.4Z" fill="#231F20"/>
<path d="M149.663 180.7C152.863 180.7 152.963 175.7 149.663 175.7C146.463 175.7 146.463 180.7 149.663 180.7Z" fill="#231F20"/>
<path d="M150.663 182.8C153.863 182.8 153.863 177.8 150.663 177.8C147.463 177.8 147.463 182.8 150.663 182.8Z" fill="#231F20"/>
<path d="M150.963 183.7C154.163 183.7 154.163 178.7 150.963 178.7C147.663 178.7 147.663 183.7 150.963 183.7ZM156.063 164.1C157.063 167.5 157.863 171 158.763 174.4C158.819 174.746 158.947 175.076 159.139 175.369C159.33 175.662 159.581 175.912 159.876 176.102C160.17 176.291 160.501 176.417 160.847 176.471C161.193 176.525 161.547 176.505 161.885 176.414C162.223 176.322 162.538 176.161 162.809 175.94C163.081 175.719 163.303 175.443 163.461 175.13C163.62 174.818 163.71 174.476 163.728 174.126C163.746 173.776 163.689 173.427 163.563 173.1L160.863 162.7C160.771 162.385 160.618 162.091 160.413 161.835C160.207 161.579 159.953 161.366 159.665 161.208C159.377 161.05 159.061 160.951 158.735 160.915C158.409 160.879 158.078 160.908 157.763 161C157.448 161.092 157.154 161.245 156.898 161.451C156.642 161.656 156.429 161.91 156.271 162.198C156.113 162.486 156.014 162.802 155.978 163.128C155.942 163.455 155.971 163.785 156.063 164.1V164.1Z" fill="#231F20"/>
<path d="M161.863 178.2C165.063 178.2 165.063 173.2 161.863 173.2C158.663 173.2 158.663 178.2 161.863 178.2ZM132.363 138.1C132.763 142.4 133.363 146.6 134.063 150.9C134.663 154.8 135.063 158.9 137.463 162C137.931 162.458 138.559 162.715 139.213 162.715C139.868 162.715 140.496 162.458 140.963 162C141.399 161.521 141.64 160.897 141.64 160.25C141.64 159.603 141.399 158.979 140.963 158.5C140.249 157.347 139.805 156.048 139.663 154.7L138.763 149.1L137.363 138.1C137.338 137.445 137.067 136.823 136.604 136.36C136.14 135.896 135.518 135.625 134.863 135.6C134.2 135.6 133.564 135.863 133.095 136.332C132.627 136.801 132.363 137.437 132.363 138.1V138.1ZM152.063 142.4C155.263 142.4 155.263 137.4 152.063 137.4C148.863 137.4 148.863 142.4 152.063 142.4Z" fill="#231F20"/>
<path d="M152.863 145C156.063 145 156.063 140 152.863 140C149.563 140 149.563 145 152.863 145Z" fill="#231F20"/>
<path d="M153.363 147.6C156.663 147.6 156.663 142.6 153.363 142.6C150.163 142.6 150.163 147.6 153.363 147.6Z" fill="#231F20"/>
<path d="M153.763 149.9C156.963 149.9 156.963 144.9 153.763 144.9C150.463 144.9 150.463 149.9 153.763 149.9Z" fill="#231F20"/>
<path d="M154.263 151.8C157.563 151.8 157.563 146.8 154.263 146.8C151.063 146.8 151.063 151.8 154.263 151.8Z" fill="#231F20"/>
<path d="M155.063 153.8C158.263 153.8 158.263 148.8 155.063 148.8C151.863 148.8 151.863 153.8 155.063 153.8Z" fill="#231F20"/>
<path d="M155.963 156.7C159.263 156.7 159.263 151.7 155.963 151.7C152.763 151.7 152.763 156.7 155.963 156.7Z" fill="#231F20"/>
<path d="M156.763 160C159.963 160 159.963 155 156.763 155C153.463 155 153.463 160 156.763 160Z" fill="#231F20"/>
<path d="M156.863 160.6C160.063 160.6 160.063 155.6 156.863 155.6C153.663 155.6 153.663 160.6 156.863 160.6ZM149.363 133.5C152.563 133.5 152.563 128.5 149.363 128.5C146.163 128.5 146.163 133.5 149.363 133.5Z" fill="#231F20"/>
<path d="M150.063 135.6C153.263 135.6 153.263 130.6 150.063 130.6C146.863 130.6 146.863 135.6 150.063 135.6ZM129.363 112.4L130.563 114.8L130.263 114.2L131.163 116.6C131.263 117.2 131.763 117.8 132.263 118.1C132.834 118.428 133.512 118.518 134.148 118.349C134.785 118.18 135.329 117.768 135.663 117.2C136.063 116.6 136.163 115.9 135.963 115.2C135.463 113.4 134.663 111.6 133.663 109.9C133.363 109.3 132.763 108.9 132.163 108.7C131.682 108.569 131.172 108.585 130.699 108.746C130.227 108.907 129.814 109.205 129.512 109.603C129.211 110.001 129.036 110.48 129.009 110.979C128.983 111.477 129.106 111.972 129.363 112.4V112.4Z" fill="#231F20"/>
<path d="M130.463 116.3C130.463 119.3 130.863 122.2 131.463 125.1C131.544 125.424 131.69 125.729 131.891 125.996C132.092 126.263 132.344 126.487 132.633 126.655C132.922 126.823 133.242 126.931 133.573 126.973C133.905 127.015 134.241 126.99 134.563 126.9C135.204 126.713 135.748 126.287 136.083 125.71C136.418 125.133 136.518 124.449 136.363 123.8L135.663 120.3L135.763 121L135.463 116.2C135.463 115.537 135.2 114.901 134.731 114.432C134.262 113.963 133.626 113.7 132.963 113.7C132.3 113.7 131.664 113.963 131.195 114.432C130.727 114.901 130.463 115.537 130.463 116.2V116.3Z" fill="#231F20"/>
<path d="M134.263 129.6C137.563 129.6 137.563 124.6 134.263 124.6C131.063 124.6 131.063 129.6 134.263 129.6Z" fill="#231F20"/>
<path d="M134.363 132.3C137.563 132.3 137.563 127.3 134.363 127.3C131.163 127.3 131.163 132.3 134.363 132.3Z" fill="#231F20"/>
<path d="M134.763 136.1C137.963 136.1 137.963 131.1 134.763 131.1C131.563 131.1 131.563 136.1 134.763 136.1Z" fill="#231F20"/>
<path d="M134.663 135.3C137.863 135.3 137.863 130.3 134.663 130.3C131.363 130.3 131.363 135.3 134.663 135.3Z" fill="#231F20"/>
<path d="M134.763 137.6C137.963 137.6 137.963 132.6 134.763 132.6C131.563 132.6 131.563 137.6 134.763 137.6ZM120.963 94.6L123.563 97.8C123.963 98.3 124.563 98.5 125.263 98.5C125.663 98.5 125.963 98.5 126.263 98.3C126.563 98.3 126.863 98 127.063 97.8C127.563 97.3 127.863 96.7 127.863 96L127.763 95.4C127.663 95 127.363 94.6 127.063 94.3L124.463 91C124.063 90.6 123.463 90.3 122.763 90.3C122.363 90.3 122.063 90.3 121.763 90.5L120.963 91C120.715 91.2302 120.516 91.5085 120.378 91.8179C120.241 92.1273 120.168 92.4614 120.163 92.8L120.263 93.5C120.363 93.9 120.663 94.3 120.963 94.5V94.6Z" fill="#231F20"/>
<path d="M123.463 98.3L125.863 102C126.163 102.6 126.663 103 127.363 103.2H128.363L129.263 102.9C129.558 102.735 129.816 102.512 130.022 102.244C130.228 101.976 130.377 101.669 130.461 101.342C130.545 101.015 130.562 100.674 130.511 100.341C130.46 100.007 130.341 99.6868 130.163 99.4L127.863 95.8C127.463 95.3 126.863 94.8 126.363 94.7C125.963 94.6 125.663 94.5 125.363 94.7C124.963 94.7 124.663 94.7 124.363 94.9C123.863 95.3 123.363 95.8 123.263 96.4C123.063 97.1 123.163 97.8 123.463 98.4V98.3Z" fill="#231F20"/>
<path d="M128.863 105.3C132.063 105.3 132.063 100.3 128.863 100.3C125.663 100.3 125.663 105.3 128.863 105.3Z" fill="#231F20"/>
<path d="M129.663 107.6C132.963 107.6 132.963 102.6 129.663 102.6C126.463 102.6 126.463 107.6 129.663 107.6Z" fill="#231F20"/>
<path d="M130.363 110.1C133.663 110.1 133.663 105.1 130.363 105.1C127.163 105.1 127.163 110.1 130.363 110.1ZM134.763 78.6C137.963 78.6 137.963 73.6 134.763 73.6C131.563 73.6 131.563 78.6 134.763 78.6Z" fill="#231F20"/>
<path d="M135.163 81.5C138.363 81.5 138.363 76.5 135.163 76.5C131.963 76.5 131.963 81.5 135.163 81.5Z" fill="#231F20"/>
<path d="M135.863 83.8C139.063 83.8 139.063 78.8 135.863 78.8C132.563 78.8 132.663 83.8 135.863 83.8Z" fill="#231F20"/>
<path d="M136.763 86.6C140.063 86.6 140.063 81.6 136.763 81.6C133.563 81.6 133.563 86.6 136.763 86.6Z" fill="#231F20"/>
<path d="M137.663 89.3C140.963 89.3 140.963 84.3 137.663 84.3C134.463 84.3 134.463 89.3 137.663 89.3Z" fill="#231F20"/>
<path d="M138.163 92.3C141.363 92.3 141.363 87.3 138.163 87.3C134.963 87.3 134.963 92.3 138.163 92.3Z" fill="#231F20"/>
<path d="M139.163 94.9C142.363 94.9 142.363 89.9 139.163 89.9C135.863 89.9 135.863 94.9 139.163 94.9Z" fill="#231F20"/>
<path d="M139.863 97.6C143.063 97.6 143.063 92.6 139.863 92.6C136.563 92.6 136.563 97.6 139.863 97.6Z" fill="#231F20"/>
<path d="M140.363 100.3C143.563 100.3 143.563 95.3 140.363 95.3C137.063 95.3 137.063 100.3 140.363 100.3Z" fill="#231F20"/>
<path d="M140.963 102.8C144.263 102.8 144.263 97.8 140.963 97.8C137.763 97.8 137.763 102.8 140.963 102.8Z" fill="#231F20"/>
<path d="M141.663 105.6C144.863 105.6 144.863 100.6 141.663 100.6C138.463 100.6 138.463 105.6 141.663 105.6Z" fill="#231F20"/>
<path d="M142.563 107.6C145.763 107.6 145.763 102.6 142.563 102.6C139.363 102.6 139.363 107.6 142.563 107.6Z" fill="#231F20"/>
<path d="M142.963 110.3C146.163 110.3 146.163 105.3 142.963 105.3C139.663 105.3 139.663 110.3 142.963 110.3Z" fill="#231F20"/>
<path d="M143.563 112.5C146.863 112.5 146.863 107.5 143.563 107.5C140.363 107.5 140.363 112.5 143.563 112.5Z" fill="#231F20"/>
<path d="M143.963 114.4C147.263 114.4 147.263 109.4 143.963 109.4C140.863 109.4 140.863 114.4 143.963 114.4Z" fill="#231F20"/>
<path d="M144.363 115.3C147.563 115.3 147.563 110.3 144.363 110.3C141.163 110.3 141.163 115.3 144.363 115.3Z" fill="#231F20"/>
<path d="M144.463 116.3C147.663 116.3 147.663 111.3 144.463 111.3C141.163 111.3 141.163 116.3 144.463 116.3Z" fill="#231F20"/>
<path d="M145.563 118.1C148.763 118.1 148.863 113.1 145.563 113.1C142.363 113.1 142.363 118.1 145.563 118.1Z" fill="#231F20"/>
<path d="M146.263 121.6C149.463 121.6 149.463 116.6 146.263 116.6C142.963 116.6 142.963 121.6 146.263 121.6ZM132.363 70.3C135.563 70.3 135.563 65.3 132.363 65.3C129.063 65.3 129.063 70.3 132.363 70.3Z" fill="#231F20"/>
<path d="M132.863 73.1C136.063 73.1 136.063 68.1 132.863 68.1C129.563 68.1 129.563 73.1 132.863 73.1Z" fill="#231F20"/>
<path d="M133.763 75.7C136.963 75.7 136.963 70.7 133.763 70.7C130.463 70.7 130.463 75.7 133.763 75.7ZM113.463 87.8C116.663 87.8 116.663 82.8 113.463 82.8C110.163 82.8 110.163 87.8 113.463 87.8Z" fill="#231F20"/>
<path d="M115.263 89C118.463 89 118.463 84 115.263 84C112.063 84 112.063 89 115.263 89Z" fill="#231F20"/>
<path d="M116.763 90.3C120.063 90.3 120.063 85.3 116.763 85.3C113.563 85.3 113.563 90.3 116.763 90.3Z" fill="#231F20"/>
<path d="M118.263 91.5C121.463 91.5 121.563 86.5 118.263 86.5C115.063 86.5 115.063 91.5 118.263 91.5ZM113.963 84.8C117.063 84.8 117.063 79.8 113.963 79.8C110.663 79.8 110.663 84.8 113.963 84.8Z" fill="#231F20"/>
<path d="M114.463 82.4C117.763 82.4 117.763 77.4 114.463 77.4C111.263 77.4 111.263 82.4 114.463 82.4Z" fill="#231F20"/>
<path d="M115.263 79.8C118.463 79.8 118.463 74.8 115.263 74.8C112.063 74.8 112.063 79.8 115.263 79.8Z" fill="#231F20"/>
<path d="M116.163 76.3C119.363 76.3 119.363 71.3 116.163 71.3C112.863 71.3 112.863 76.3 116.163 76.3ZM111.163 87.1C111.296 87.1 111.423 87.0473 111.517 86.9535C111.611 86.8598 111.663 86.7326 111.663 86.6C111.663 86.4674 111.611 86.3402 111.517 86.2464C111.423 86.1527 111.296 86.1 111.163 86.1C111.031 86.1 110.903 86.1527 110.81 86.2464C110.716 86.3402 110.663 86.4674 110.663 86.6C110.663 86.7326 110.716 86.8598 110.81 86.9535C110.903 87.0473 111.031 87.1 111.163 87.1Z" fill="#231F20"/>
<path d="M118.463 72.1C119.263 68.5 120.263 65 121.363 61.5C121.449 61.1817 121.454 60.8472 121.379 60.5263C121.304 60.2054 121.151 59.9081 120.933 59.6607C120.715 59.4133 120.44 59.2235 120.131 59.1082C119.822 58.993 119.49 58.9558 119.163 59C118.774 59.0414 118.405 59.1961 118.103 59.4449C117.801 59.6938 117.578 60.0259 117.463 60.4C116.463 63.9 115.463 67.4 114.663 71C114.536 71.2656 114.47 71.556 114.468 71.8503C114.466 72.1447 114.53 72.4358 114.653 72.7028C114.777 72.9699 114.958 73.2063 115.184 73.3953C115.41 73.5843 115.674 73.7211 115.959 73.796C116.244 73.8709 116.541 73.8821 116.831 73.8287C117.12 73.7753 117.394 73.6586 117.634 73.4871C117.873 73.3155 118.071 73.0933 118.215 72.8362C118.358 72.5792 118.443 72.2937 118.463 72V72.1Z" fill="#231F20"/>
<path d="M121.463 59.6C122.063 55.6 123.063 51.7 124.563 48C124.674 47.6187 124.668 47.2133 124.547 46.8353C124.426 46.4573 124.196 46.1237 123.885 45.8771C123.574 45.6305 123.197 45.482 122.801 45.4504C122.405 45.4189 122.009 45.5057 121.663 45.7C121.425 45.8227 121.213 45.9922 121.041 46.1983C120.869 46.4045 120.741 46.6431 120.663 46.9C119.192 50.6294 118.185 54.5251 117.663 58.5C117.506 59.0039 117.555 59.5495 117.798 60.0178C118.042 60.4861 118.46 60.8391 118.963 61C119.219 61.0758 119.488 61.0997 119.753 61.07C120.019 61.0404 120.276 60.9579 120.509 60.8274C120.742 60.6969 120.946 60.5211 121.11 60.3103C121.274 60.0994 121.394 59.8579 121.463 59.6V59.6Z" fill="#231F20"/>
<path d="M123.563 47.3C126.163 47.3 126.163 43.3 123.563 43.3C120.963 43.3 120.963 47.3 123.563 47.3Z" fill="#231F20"/>
<path d="M121.663 46.3L121.863 54.8C121.963 59.3 128.963 59.3 128.863 54.8L128.663 46.4C128.563 41.9 121.563 41.8 121.663 46.4V46.3Z" fill="#231F20"/>
<path d="M122.963 46.8C122.963 50.5 123.463 54.2 124.563 57.8C125.863 62 132.563 60.2 131.363 55.8C130.363 52.9 129.963 49.8 129.863 46.8C129.863 42.3 122.863 42.3 122.863 46.8H122.963Z" fill="#231F20"/>
<path d="M125.463 59.4C125.663 61.2 125.963 62.9 126.363 64.7C126.661 65.5488 127.274 66.2503 128.076 66.659C128.877 67.0677 129.805 67.1522 130.667 66.8949C131.529 66.6376 132.259 66.0583 132.705 65.2772C133.151 64.4961 133.279 63.5732 133.063 62.7L132.663 60.7L132.463 59.9V59.3C132.263 57.5 130.963 55.7 128.963 55.8C127.163 55.8 125.263 57.4 125.463 59.3V59.4Z" fill="#231F20"/>
<path d="M130.163 68.1C134.663 68.1 134.663 61.1 130.163 61.1C125.663 61.1 125.663 68.1 130.163 68.1ZM122.363 38.8V40.2L122.463 39.6C122.263 40.6 121.963 41.6 121.463 42.6L120.163 45.9C120.032 46.3816 120.048 46.8914 120.209 47.3638C120.37 47.8362 120.669 48.2496 121.067 48.5508C121.465 48.852 121.944 49.0272 122.442 49.0538C122.94 49.0804 123.435 48.9571 123.863 48.7C124.363 48.3554 124.747 47.8672 124.963 47.3L126.563 43.3C127.263 41.9 127.563 40.3 127.363 38.9C127.363 38.2 127.163 37.6 126.663 37.1C126.314 36.7369 125.862 36.4879 125.369 36.3859C124.875 36.2838 124.362 36.3333 123.897 36.5279C123.432 36.7226 123.037 37.0533 122.763 37.4766C122.489 37.8999 122.35 38.3961 122.363 38.9V38.8Z" fill="#231F20"/>
<path d="M122.963 33.1L121.163 42.8C121.063 43.4 121.163 44.1 121.463 44.7C121.763 45.2 122.363 45.7 122.963 45.8C123.586 45.956 124.245 45.8664 124.803 45.55C125.362 45.2335 125.777 44.7143 125.963 44.1L127.763 34.4C127.963 33.7 127.863 33.1 127.563 32.4C127.311 31.9657 126.934 31.6174 126.482 31.4004C126.029 31.1833 125.521 31.1076 125.025 31.1832C124.528 31.2587 124.066 31.482 123.699 31.8238C123.331 32.1657 123.075 32.6104 122.963 33.1V33.1Z" fill="#231F20"/>
<path d="M123.163 37.6C123.263 40.2 123.763 42.9 124.463 45.5C124.57 45.9048 124.776 46.2765 125.063 46.5809C125.351 46.8852 125.71 47.1125 126.108 47.2419C126.506 47.3713 126.931 47.3986 127.342 47.3214C127.754 47.2442 128.139 47.0649 128.463 46.8C128.852 46.4824 129.137 46.0549 129.28 45.5733C129.422 45.0917 129.417 44.5783 129.263 44.1L128.263 39.8L128.463 40.5L128.163 37.5C128.163 36.8369 127.9 36.201 127.431 35.7322C126.962 35.2634 126.326 35 125.663 35C125 35 124.364 35.2634 123.895 35.7322C123.427 36.201 123.163 36.8369 123.163 37.5V37.6ZM124.663 22.1L124.463 31.9C124.463 32.0326 124.516 32.1598 124.61 32.2535C124.703 32.3473 124.831 32.4 124.963 32.4C125.096 32.4 125.223 32.3473 125.317 32.2535C125.411 32.1598 125.463 32.0326 125.463 31.9L125.663 22.1C125.663 21.9674 125.611 21.8402 125.517 21.7464C125.423 21.6527 125.296 21.6 125.163 21.6C125.031 21.6 124.903 21.6527 124.81 21.7464C124.716 21.8402 124.663 21.9674 124.663 22.1Z" fill="#231F20"/>
<path d="M125.363 25.3V31.6C125.363 32.3 126.363 32.3 126.363 31.6V25.3C126.363 24.6 125.363 24.6 125.363 25.3Z" fill="#231F20"/>
<path d="M125.963 28.9V32.9C125.963 33.0326 126.016 33.1598 126.11 33.2536C126.203 33.3473 126.331 33.4 126.463 33.4C126.596 33.4 126.723 33.3473 126.817 33.2536C126.911 33.1598 126.963 33.0326 126.963 32.9V28.9C126.963 28.7674 126.911 28.6402 126.817 28.5465C126.723 28.4527 126.596 28.4 126.463 28.4C126.331 28.4 126.203 28.4527 126.11 28.5465C126.016 28.6402 125.963 28.7674 125.963 28.9ZM123.863 25.1V32.1C123.887 32.2147 123.949 32.3175 124.041 32.3906C124.132 32.4636 124.246 32.5024 124.363 32.5C124.496 32.5 124.623 32.4473 124.717 32.3536C124.811 32.2598 124.863 32.1326 124.863 32V25C124.84 24.8854 124.777 24.7826 124.686 24.7095C124.594 24.6364 124.48 24.5977 124.363 24.6C124.231 24.6 124.103 24.6527 124.01 24.7465C123.916 24.8402 123.863 24.9674 123.863 25.1Z" fill="#231F20"/>
<path d="M123.263 29.6C123.363 30.6 123.263 31.6 123.163 32.6H124.163V31.4C124.176 31.33 124.174 31.2582 124.156 31.1892C124.139 31.1202 124.107 31.0557 124.063 31C124.063 30.8674 124.011 30.7402 123.917 30.6464C123.823 30.5527 123.696 30.5 123.563 30.5C123.431 30.5 123.303 30.5527 123.21 30.6464C123.116 30.7402 123.063 30.8674 123.063 31C122.894 31.6559 122.894 32.3441 123.063 33C123.075 33.0663 123.1 33.1295 123.137 33.1858C123.174 33.2421 123.222 33.2904 123.278 33.3278C123.334 33.3651 123.397 33.3908 123.463 33.4032C123.529 33.4156 123.597 33.4145 123.663 33.4C123.796 33.4 123.923 33.3473 124.017 33.2535C124.111 33.1598 124.163 33.0326 124.163 32.9C124.363 31.9 124.463 30.7 124.363 29.6C124.363 29.4674 124.311 29.3402 124.217 29.2464C124.123 29.1527 123.996 29.1 123.863 29.1C123.731 29.1 123.603 29.1527 123.51 29.2464C123.416 29.3402 123.363 29.4674 123.363 29.6H123.263ZM165.363 178.9V178.4L164.363 178.5L164.463 179.5V179.4V179.6V179.4L164.563 179.3L164.663 179.2H164.763C164.663 179.2 164.563 179.2 164.463 179.4C164.428 179.459 164.406 179.524 164.397 179.591C164.388 179.659 164.393 179.728 164.412 179.793C164.431 179.859 164.463 179.92 164.506 179.973C164.549 180.025 164.603 180.069 164.663 180.1C164.801 180.156 164.952 180.166 165.096 180.13C165.24 180.094 165.368 180.014 165.463 179.9C165.543 179.804 165.603 179.692 165.637 179.571C165.672 179.451 165.68 179.324 165.663 179.2L165.463 178.2C165.44 178.085 165.377 177.983 165.286 177.909C165.194 177.836 165.08 177.798 164.963 177.8C164.849 177.823 164.746 177.886 164.673 177.978C164.6 178.069 164.561 178.183 164.563 178.3V178.8L164.663 179.2H164.863L165.063 179.3L165.363 179.2L165.563 178.8H165.363V178.9ZM150.963 190.3L154.563 187.7C154.644 187.65 154.71 187.579 154.751 187.493C154.793 187.408 154.81 187.313 154.799 187.218C154.789 187.124 154.752 187.034 154.692 186.96C154.633 186.886 154.553 186.831 154.463 186.8H154.063L150.463 189.5C150.379 189.541 150.307 189.605 150.257 189.684C150.208 189.764 150.181 189.856 150.181 189.95C150.181 190.044 150.208 190.136 150.257 190.216C150.307 190.295 150.379 190.359 150.463 190.4H150.963V190.3Z" fill="#231F20"/>
<path d="M149.963 186.7C149.963 187.7 149.963 188.5 150.363 189.4C150.385 189.469 150.421 189.533 150.469 189.587C150.518 189.641 150.577 189.683 150.644 189.712C150.71 189.74 150.782 189.754 150.855 189.752C150.927 189.75 150.998 189.732 151.063 189.7L151.263 189.5L151.563 189C151.563 189 151.663 188.8 151.563 189L151.763 188.7L152.163 188.3H152.263V188.2L152.563 188L152.763 187.8V187.4C152.718 187.285 152.632 187.19 152.521 187.134C152.41 187.079 152.283 187.067 152.163 187.1H151.663C151.463 187.1 151.663 187.1 151.663 187.1H151.163C151.044 187.067 150.916 187.079 150.805 187.134C150.695 187.19 150.608 187.285 150.563 187.4V187.8L150.863 188C151.363 188.2 151.863 188.2 152.463 188.1L152.063 187.2C151.363 187.7 150.763 188.3 150.363 189.1H151.363L151.163 188.6V186.8L150.963 186.4L150.563 186.3L150.263 186.4L150.063 186.8L149.963 186.7ZM100.763 33.8C102.963 31.2 104.763 28.3 106.463 25.3C107.763 22.7 107.163 19.2 104.463 17.7C101.963 16.4 98.2632 17 96.9632 19.7C96.0054 21.5831 94.902 23.3886 93.6632 25.1L93.0632 26C93.0299 25.9995 92.9965 25.9995 92.9632 26C91.1632 28.3 90.5632 31.7 92.9632 33.9C94.9632 35.7 98.7632 36.2 100.763 33.9V33.8Z" fill="#231F20"/>
<path d="M91.1632 43.3C98.2632 43.3 98.2632 32.3 91.1632 32.3C84.1632 32.3 84.1632 43.3 91.1632 43.3Z" fill="#231F20"/>
<path d="M91.9632 41C98.9632 41 98.9632 30 91.9632 30C84.8632 30 84.8632 41 91.9632 41Z" fill="#231F20"/>
<path d="M92.6632 38.7C99.6632 38.7 99.6632 27.7 92.6632 27.7C85.5632 27.7 85.5632 38.7 92.6632 38.7Z" fill="#231F20"/>
<path d="M95.2632 34.4C102.363 34.4 102.363 23.4 95.2632 23.4C88.2632 23.4 88.2632 34.4 95.2632 34.4Z" fill="#231F20"/>
<path d="M97.5632 32.3C104.663 32.3 104.663 21.3 97.5632 21.3C90.5632 21.3 90.5632 32.3 97.5632 32.3ZM97.4632 46.1C104.463 46.1 104.463 35.1 97.4632 35.1C90.3632 35.1 90.3632 46.1 97.4632 46.1ZM105.063 22.2C111.463 22.2 111.563 12.2 105.063 12.2C98.6632 12.2 98.6632 22.2 105.063 22.2Z" fill="#231F20"/>
<path d="M93.8632 45.1C97.7632 45.1 97.7632 39.1 93.8632 39.1C89.9632 39.1 89.9632 45.1 93.8632 45.1Z" fill="#231F20"/>
<path d="M97.4632 48.1C101.263 48.1 101.263 42.1 97.4632 42.1C93.4632 42.1 93.4632 48.1 97.4632 48.1Z" fill="#231F20"/>
<path d="M95.1632 48.4C95.9632 49.4 95.7632 51 95.6632 52.2L94.5632 57.5L91.9632 69.6C91.3632 72.1 95.2632 73.2 95.7632 70.6L98.7632 56.8C99.5632 53 100.763 48.8 97.9632 45.6C96.2632 43.6 93.4632 46.5 95.1632 48.4V48.4Z" fill="#231F20"/>
<path d="M95.3632 70.5L95.2632 68.3V66.7V66.5C95.2632 66.8 95.2632 66.8 95.2632 66.5C95.4691 65.4742 95.7704 64.4698 96.1632 63.5C96.1632 63.4 96.2632 62.9 96.1632 63.4L96.3632 62.8C96.5501 62.5773 96.6862 62.3166 96.7621 62.036C96.8379 61.7553 96.8517 61.4615 96.8024 61.175C96.7531 60.8885 96.642 60.6162 96.4767 60.3771C96.3114 60.1379 96.096 59.9377 95.8454 59.7903C95.5948 59.6429 95.3151 59.5519 95.0258 59.5236C94.7365 59.4953 94.4445 59.5305 94.1701 59.6266C93.8957 59.7227 93.6456 59.8775 93.4372 60.0802C93.2288 60.2828 93.067 60.5285 92.9632 60.8C91.4632 63.8 90.9632 67.2 91.2632 70.5C91.2632 71 91.4632 71.5 91.8632 71.9C92.2325 72.2768 92.7357 72.4925 93.2632 72.5C94.2632 72.5 95.4632 71.6 95.2632 70.5H95.3632V70.5ZM98.9632 44.6L96.5632 55.2C96.531 55.6644 96.6619 56.1255 96.9332 56.5038C97.2045 56.882 97.5992 57.1538 98.0494 57.2723C98.4996 57.3908 98.977 57.3485 99.3994 57.1528C99.8217 56.957 100.163 56.6201 100.363 56.2L102.863 45.6C102.935 45.3439 102.957 45.0761 102.925 44.8119C102.894 44.5477 102.811 44.2922 102.681 44.0601C102.551 43.8279 102.377 43.6236 102.168 43.4589C101.959 43.2942 101.719 43.1722 101.463 43.1C101.207 43.0278 100.939 43.0067 100.675 43.038C100.411 43.0692 100.155 43.1522 99.9233 43.2822C99.6911 43.4122 99.4868 43.5867 99.3221 43.7956C99.1574 44.0046 99.0354 44.2439 98.9632 44.5V44.6Z" fill="#231F20"/>
<path d="M97.9632 59.7C100.463 59.7 100.463 55.7 97.9632 55.7C95.3632 55.7 95.3632 59.7 97.9632 59.7Z" fill="#231F20"/>
<path d="M97.2632 62.9C99.7632 62.9 99.8632 58.9 97.2632 58.9C94.6632 58.9 94.6632 62.9 97.2632 62.9Z" fill="#231F20"/>
<path d="M95.9632 66.5C98.5632 66.5 98.5632 62.5 95.9632 62.5C93.4632 62.5 93.4632 66.5 95.9632 66.5Z" fill="#231F20"/>
<path d="M95.4632 67.7C98.0632 67.7 98.0632 63.7 95.4632 63.7C92.8632 63.7 92.8632 67.7 95.4632 67.7ZM95.9632 23.6C98.5632 23.6 98.5632 19.6 95.9632 19.6C93.4632 19.6 93.4632 23.6 95.9632 23.6Z" fill="#231F20"/>
<path d="M97.5632 22C100.163 22 100.163 18 97.5632 18C95.0632 18 95.0632 22 97.5632 22Z" fill="#231F20"/>
<path d="M99.9632 19.6C102.463 19.6 102.463 15.6 99.9632 15.6C97.3632 15.6 97.3632 19.6 99.9632 19.6Z" fill="#231F20"/>
<path d="M98.4632 20.9C101.063 20.9 101.063 16.9 98.4632 16.9C95.9632 16.9 95.9632 20.9 98.4632 20.9ZM107.163 14.1C108.963 13.1 110.463 11.9 111.763 10.4C112.163 10 112.363 9.50002 112.363 9.00002C112.368 8.67482 112.292 8.35348 112.145 8.06384C111.997 7.7742 111.78 7.525 111.514 7.33784C111.248 7.15067 110.941 7.03119 110.618 6.98975C110.296 6.94831 109.968 6.98616 109.663 7.10002C109.396 7.21394 109.157 7.38455 108.963 7.60002C108.298 8.3379 107.561 9.00785 106.763 9.60002L107.163 9.30002L105.163 10.7C104.933 10.8313 104.732 11.0066 104.57 11.2159C104.408 11.4252 104.288 11.6643 104.219 11.9197C104.149 12.175 104.13 12.4416 104.164 12.7042C104.197 12.9668 104.282 13.2202 104.413 13.45C104.545 13.6798 104.72 13.8815 104.929 14.0436C105.138 14.2057 105.378 14.3249 105.633 14.3946C105.888 14.4642 106.155 14.4829 106.417 14.4495C106.68 14.4161 106.933 14.3313 107.163 14.2V14.1Z" fill="#231F20"/>
<path d="M110.363 12.1C112.963 12.1 112.963 8.09998 110.363 8.09998C107.863 8.09998 107.863 12.1 110.363 12.1Z" fill="#231F20"/>
<path d="M109.963 13.8C112.663 13.8 112.663 9.79999 109.963 9.79999C107.463 9.79999 107.463 13.8 109.963 13.8Z" fill="#231F20"/>
<path d="M109.463 16.5C112.063 16.5 112.063 12.5 109.463 12.5C106.963 12.5 106.963 16.5 109.463 16.5Z" fill="#231F20"/>
<path d="M109.963 15.6C112.663 15.6 112.663 11.6 109.963 11.6C107.463 11.6 107.463 15.6 109.963 15.6Z" fill="#231F20"/>
<path d="M109.363 17.7C111.863 17.7 111.863 13.7 109.363 13.7C106.763 13.7 106.763 17.7 109.363 17.7ZM105.963 20.6C105.163 24.6 103.663 28.6 101.663 32.2C99.6632 35.9 98.1632 40.2 100.363 44.2C101.163 45.6 103.663 45.4 103.963 43.7C104.637 39.9196 105.641 36.2054 106.963 32.6C106.927 32.3361 106.838 32.0822 106.702 31.8531C106.566 31.624 106.385 31.4244 106.171 31.2661C105.957 31.1077 105.713 30.9937 105.454 30.9309C105.195 30.868 104.926 30.8575 104.663 30.9C104.274 30.9414 103.905 31.0961 103.603 31.345C103.301 31.5938 103.078 31.9259 102.963 32.3C101.756 35.6529 100.819 39.0973 100.163 42.6L103.763 42.1C102.063 38.9 104.663 35.3 106.063 32.5C107.812 29.0273 109.058 25.3236 109.763 21.5C109.886 20.9965 109.809 20.4649 109.548 20.0172C109.287 19.5695 108.862 19.2407 108.363 19.1C108.107 19.0407 107.842 19.0325 107.583 19.0759C107.323 19.1192 107.075 19.2132 106.852 19.3525C106.629 19.4918 106.436 19.6737 106.284 19.8878C106.131 20.1018 106.022 20.3439 105.963 20.6V20.6ZM95.3632 47.1C97.9632 47.1 97.9632 43.1 95.3632 43.1C92.8632 43.1 92.8632 47.1 95.3632 47.1ZM84.5632 38.7L84.2632 39.7H87.9632V39.6V39.3V39.9L88.1632 39.1L87.9632 39.6L88.1632 39.3L84.4632 38.3L84.2632 40.6V40.1C84.2632 40.5 84.2632 41 84.0632 41.4L83.8632 42.4C83.8624 42.7155 83.9238 43.028 84.044 43.3197C84.1641 43.6114 84.3405 43.8766 84.5632 44.1C84.8514 44.3746 85.2033 44.5732 85.5874 44.678C85.9714 44.7827 86.3755 44.7903 86.7632 44.7L87.3632 44.6L88.6632 44.2C89.1632 44.1 89.6632 43.7 89.8632 43.2C90.1632 42.8 90.2632 42.2 90.0632 41.8C90.0042 41.5439 89.8954 41.3018 89.7428 41.0878C89.5903 40.8737 89.397 40.6918 89.1741 40.5525C88.9512 40.4132 88.7031 40.3192 88.4438 40.2759C88.1845 40.2325 87.9193 40.2407 87.6632 40.3L85.6632 40.8H86.7632L87.2632 41.1L87.5632 41.4L87.8632 41.8L88.0632 42.3V42.1L88.1632 42.7V42.5V43L88.3632 42C88.5882 40.812 88.7219 39.6085 88.7632 38.4L88.6632 37.9C88.6632 37.6 88.4632 37.4 88.2632 37.2C88.011 36.8682 87.6613 36.6234 87.2632 36.5C86.8376 36.4039 86.3923 36.4496 85.9951 36.6302C85.5979 36.8107 85.2706 37.1162 85.0632 37.5C84.7632 37.9 84.5632 38.4 84.4632 38.9L84.3632 39.9L84.4632 40.9L84.6632 41.3C84.7632 41.6 84.9632 41.8 85.1632 41.9C85.5632 42.2 85.9632 42.3 86.3632 42.3C86.7632 42.3 87.0632 42.3 87.3632 42.1C87.6019 41.9773 87.8134 41.8078 87.9852 41.6017C88.157 41.3955 88.2855 41.1569 88.3632 40.9L88.6632 39.9C88.7475 39.5257 88.7223 39.135 88.5907 38.7745C88.4591 38.4141 88.2265 38.0991 87.9208 37.8672C87.6151 37.6353 87.2492 37.4962 86.8666 37.4666C86.484 37.4369 86.101 37.518 85.7632 37.7L85.3632 38C85.1208 38.2512 84.9485 38.5615 84.8632 38.9L84.6632 38.7H84.5632Z" fill="#231F20"/>
<path d="M85.2632 45.3C87.8632 45.3 87.8632 41.3 85.2632 41.3C82.6632 41.3 82.6632 45.3 85.2632 45.3Z" fill="#231F20"/>
<path d="M84.4632 45.8V43.8C84.4765 43.6674 84.4365 43.5349 84.3521 43.4318C84.2677 43.3286 84.1458 43.2632 84.0132 43.25C83.8806 43.2367 83.7481 43.2767 83.645 43.3611C83.5419 43.4455 83.4765 43.5674 83.4632 43.7L82.7632 46.7L83.7632 46.8C83.741 46.5521 83.7965 46.3034 83.9219 46.0884C84.0473 45.8734 84.2365 45.7027 84.4632 45.6L83.7632 45.2L83.1632 48.5L84.1632 48.8C84.3632 47.8 84.7632 47 85.3632 46.2L84.3632 45.8L83.9632 47.6C83.7632 48.2 84.6632 48.4 84.9632 47.8C85.2632 47 85.7632 46.2 86.4632 45.6C86.8632 45.2 86.2632 44.5 85.8632 44.8C83.5632 46.3 83.1632 49 82.8632 51.5H83.8632C83.7632 49.9 83.8632 48.4 84.0632 46.8C84.1632 46.2 83.2632 45.9 83.0632 46.5C82.7815 48.1507 82.6809 49.8274 82.7632 51.5C82.7632 51.6326 82.8159 51.7598 82.9096 51.8535C83.0034 51.9473 83.1306 52 83.2632 52C83.3958 52 83.523 51.9473 83.6168 51.8535C83.7105 51.7598 83.7632 51.6326 83.7632 51.5C84.0632 49.5 84.4632 47 86.3632 45.7L85.7632 44.9C84.9632 45.6 84.3632 46.6 83.9632 47.6L84.9632 47.8L85.4632 46C85.6632 45.4 84.8632 45.2 84.5632 45.6C83.9632 46.5 83.5632 47.5 83.2632 48.5C83.1632 49.1 84.0632 49.4 84.2632 48.8L84.8632 45.2C84.8632 44.7 84.3632 44.6 84.0632 44.7C83.663 44.901 83.3338 45.2193 83.1193 45.6124C82.9049 46.0055 82.8156 46.4547 82.8632 46.9C82.8632 47.0326 82.9159 47.1598 83.0096 47.2535C83.1034 47.3473 83.2306 47.4 83.3632 47.4C83.4958 47.4 83.623 47.3473 83.7168 47.2535C83.8105 47.1598 83.8632 47.0326 83.8632 46.9L84.5632 43.9L83.5632 43.7V45.7C83.5632 45.8326 83.6159 45.9598 83.7096 46.0535C83.8034 46.1473 83.9306 46.2 84.0632 46.2C84.1958 46.2 84.323 46.1473 84.4167 46.0535C84.5105 45.9598 84.5632 45.8326 84.5632 45.7L84.4632 45.8V45.8ZM111.963 7.09997L110.663 7.79997L111.363 8.29997L111.463 8.09997L111.563 7.99997H111.763C111.878 7.9766 111.981 7.91376 112.054 7.8224C112.127 7.73104 112.166 7.61694 112.163 7.49997V7.29997C112.142 7.23078 112.106 7.16707 112.057 7.11325C112.009 7.05942 111.949 7.01677 111.883 6.98824C111.816 6.95971 111.744 6.94598 111.672 6.948C111.599 6.95003 111.528 6.96776 111.463 6.99997C111.227 7.07158 111.012 7.2003 110.838 7.37473C110.664 7.54916 110.535 7.76391 110.463 7.99997C110.412 8.09706 110.393 8.20846 110.411 8.31693C110.43 8.42539 110.483 8.52488 110.563 8.59997C110.65 8.66488 110.755 8.69997 110.863 8.69997C110.971 8.69997 111.077 8.66488 111.163 8.59997L112.463 7.89997C112.524 7.86866 112.577 7.82529 112.62 7.77253C112.664 7.71977 112.696 7.65873 112.714 7.59316C112.733 7.5276 112.738 7.4589 112.729 7.39128C112.721 7.32366 112.698 7.25856 112.663 7.19997C112.632 7.1394 112.589 7.08587 112.536 7.04267C112.483 6.99948 112.422 6.96754 112.356 6.9488C112.291 6.93007 112.222 6.92495 112.155 6.93375C112.087 6.94255 112.022 6.96508 111.963 6.99997V7.09997Z" fill="#231F20"/>
<path d="M113.363 4.89998C112.438 5.67079 111.537 6.4712 110.663 7.29998C110.663 7.29998 110.663 7.49998 110.863 7.59998C110.957 7.69159 111.082 7.74291 111.213 7.74291C111.344 7.74291 111.47 7.69159 111.563 7.59998L112.363 6.99998L112.763 6.69998L112.963 6.59998L112.663 6.49998L112.563 6.29998C112.563 6.09998 112.563 6.09998 112.563 6.29998V6.29998L112.363 6.59998L112.163 7.19998L111.763 8.49998C111.732 8.59762 111.732 8.70234 111.763 8.79998C111.798 8.88069 111.853 8.95091 111.923 9.00357C111.993 9.05623 112.076 9.08948 112.163 9.09998C112.229 9.11451 112.297 9.1156 112.363 9.10319C112.429 9.09078 112.492 9.06513 112.548 9.02777C112.604 8.99042 112.652 8.94213 112.689 8.8858C112.726 8.82947 112.751 8.76627 112.763 8.69998L113.563 6.49998C113.596 6.38057 113.584 6.25307 113.529 6.1422C113.473 6.03134 113.379 5.94501 113.263 5.89998C113.144 5.86672 113.016 5.879 112.905 5.93443C112.795 5.98986 112.708 6.0845 112.663 6.19998C112.263 7.19998 111.963 8.19998 111.863 9.39998C111.863 9.53259 111.916 9.65976 112.01 9.75353C112.103 9.8473 112.231 9.89998 112.363 9.89998C112.496 9.89998 112.623 9.8473 112.717 9.75353C112.811 9.65976 112.863 9.53259 112.863 9.39998C112.963 8.39998 113.163 7.39998 113.563 6.49998L112.563 6.19998L111.763 8.49998L112.763 8.69998L113.263 7.19998L113.563 6.49998C113.619 6.36972 113.639 6.22702 113.621 6.08646C113.604 5.94591 113.549 5.81253 113.463 5.69998C113.063 5.29998 112.463 5.59998 112.163 5.79998L110.863 6.79998L111.563 7.49998C112.418 6.78573 113.285 6.08563 114.163 5.39998V4.99998C114.135 4.92389 114.088 4.85583 114.028 4.80171C113.967 4.74758 113.895 4.709 113.816 4.68931C113.737 4.66961 113.655 4.6694 113.576 4.68868C113.497 4.70797 113.424 4.74617 113.363 4.79998V4.89998ZM97.6632 63.3C97.7958 63.3 97.923 63.2473 98.0167 63.1535C98.1105 63.0598 98.1632 62.9326 98.1632 62.8C98.1632 62.6674 98.1105 62.5402 98.0167 62.4464C97.923 62.3527 97.7958 62.3 97.6632 62.3C97.5306 62.3 97.4034 62.3527 97.3096 62.4464C97.2159 62.5402 97.1632 62.6674 97.1632 62.8C97.1632 62.9326 97.2159 63.0598 97.3096 63.1535C97.4034 63.2473 97.5306 63.3 97.6632 63.3ZM93.7632 74C94.161 74 94.5425 73.8419 94.8239 73.5606C95.1052 73.2793 95.2632 72.8978 95.2632 72.5C95.2632 72.1022 95.1052 71.7206 94.8239 71.4393C94.5425 71.158 94.161 71 93.7632 71C93.3654 71 92.9838 71.158 92.7025 71.4393C92.4212 71.7206 92.2632 72.1022 92.2632 72.5C92.2632 72.8978 92.4212 73.2793 92.7025 73.5606C92.9838 73.8419 93.3654 74 93.7632 74Z" fill="#231F20"/>
<path d="M91.4632 72.3V75.3C91.4448 75.6246 91.5324 75.9464 91.7127 76.217C91.8931 76.4875 92.1565 76.6921 92.4632 76.8H93.3632C93.5539 76.753 93.7326 76.6664 93.8877 76.5458C94.0427 76.4252 94.1707 76.2733 94.2632 76.1L95.6632 72.9L95.8632 72.4V71.8C95.8062 71.6082 95.7115 71.4298 95.5845 71.2751C95.4575 71.1205 95.3009 70.9929 95.1239 70.8997C94.9468 70.8065 94.753 70.7497 94.5536 70.7326C94.3543 70.7154 94.1535 70.7384 93.9632 70.8C93.599 70.8811 93.2781 71.095 93.0632 71.4L91.6632 74.6L94.4632 75.4V72.4C94.4632 72 94.2632 71.6 94.0632 71.3C93.8594 71.0801 93.5943 70.9263 93.3022 70.8585C93.0101 70.7907 92.7045 70.812 92.4246 70.9196C92.1447 71.0273 91.9036 71.2163 91.7322 71.4624C91.5608 71.7084 91.4671 72.0002 91.4632 72.3Z" fill="#231F20"/>
<path d="M92.7632 77L92.6632 78.9C92.6405 79.0011 92.6498 79.1066 92.6897 79.2022C92.7297 79.2977 92.7983 79.3785 92.8861 79.4334C92.9739 79.4883 93.0766 79.5145 93.18 79.5086C93.2833 79.5026 93.3823 79.4647 93.4632 79.4L93.6632 79C93.8632 78.1 94.1632 77.3 94.6632 76.5L93.7632 76C93.3632 77 92.9632 78.1 92.7632 79.3L93.5632 79.1C93.2201 78.7917 92.9651 78.3977 92.8245 77.9584C92.684 77.5191 92.6628 77.0502 92.7632 76.6H91.7632C92.3632 78.3 92.6632 80 92.4632 81.7C92.4632 82.3 93.4632 82.3 93.4632 81.7C93.6632 79.9 93.3632 78.1 92.6632 76.4C92.5632 76 91.8632 75.9 91.6632 76.4C91.5347 77.0135 91.5686 77.6498 91.7615 78.2461C91.9545 78.8425 92.2997 79.3781 92.7632 79.8C92.8262 79.884 92.9139 79.946 93.0141 79.9773C93.1143 80.0086 93.2218 80.0075 93.3213 79.9744C93.4209 79.9412 93.5075 79.8775 93.5688 79.7924C93.6302 79.7072 93.6632 79.605 93.6632 79.5C93.8632 78.5 94.1632 77.5 94.6632 76.5C94.6981 76.4414 94.7206 76.3763 94.7294 76.3087C94.7382 76.2411 94.7331 76.1724 94.7144 76.1068C94.6956 76.0413 94.6637 75.9802 94.6205 75.9275C94.5773 75.8747 94.5238 75.8313 94.4632 75.8C94.4046 75.7651 94.3395 75.7426 94.2719 75.7338C94.2043 75.725 94.1356 75.7301 94.07 75.7488C94.0044 75.7676 93.9434 75.7995 93.8906 75.8427C93.8379 75.8859 93.7945 75.9394 93.7632 76C93.2922 76.8783 92.9551 77.8221 92.7632 78.8L93.7632 78.9V76.9C93.7632 76.3 92.7632 76.3 92.7632 76.9V77ZM175.663 122.9L176.363 121.1L176.063 121.5C176.663 120.1 177.463 118.8 178.363 117.6C178.577 117.261 178.684 116.865 178.669 116.464C178.655 116.063 178.521 115.675 178.283 115.352C178.046 115.028 177.717 114.784 177.339 114.65C176.961 114.516 176.551 114.498 176.163 114.6C175.663 114.8 175.163 115.1 174.963 115.6C173.563 117.5 172.463 119.6 171.763 121.8C171.698 122.056 171.683 122.323 171.72 122.584C171.758 122.846 171.846 123.098 171.981 123.325C172.115 123.553 172.294 123.752 172.505 123.91C172.716 124.069 172.957 124.184 173.213 124.25C173.469 124.316 173.736 124.33 173.997 124.293C174.259 124.256 174.511 124.167 174.738 124.032C174.966 123.898 175.165 123.72 175.323 123.508C175.482 123.297 175.598 123.056 175.663 122.8V122.9Z" fill="#231F20"/>
<path d="M175.763 111.5C174.763 115.2 173.763 118.9 173.163 122.7C172.463 126.4 172.863 130.2 174.363 133.7C174.631 134.144 175.062 134.467 175.563 134.6C176.067 134.723 176.598 134.646 177.046 134.385C177.494 134.124 177.823 133.699 177.963 133.2C178.163 132.7 177.963 132.2 177.763 131.6C176.658 128.726 176.483 125.578 177.263 122.6C177.863 119.2 178.763 115.8 179.563 112.6C180.163 110 176.363 109 175.763 111.5V111.5Z" fill="#231F20"/>
<path d="M169.763 123C171.263 128.2 172.963 133.4 174.963 138.4C175.032 138.658 175.152 138.899 175.316 139.11C175.48 139.321 175.685 139.497 175.918 139.627C176.151 139.758 176.408 139.84 176.673 139.87C176.938 139.9 177.207 139.876 177.463 139.8C177.962 139.659 178.387 139.331 178.648 138.883C178.909 138.435 178.986 137.904 178.863 137.4C176.863 132.4 175.063 127.2 173.663 121.9C172.963 119.4 169.063 120.5 169.763 122.9V123Z" fill="#231F20"/>
<path d="M171.363 129.3C172.063 135 173.563 140.5 175.963 145.8C176.233 146.245 176.667 146.568 177.171 146.698C177.675 146.829 178.211 146.758 178.663 146.5C179.109 146.23 179.431 145.796 179.562 145.292C179.692 144.788 179.621 144.253 179.363 143.8C177.363 139.2 175.963 134.3 175.363 129.2C175.363 128.67 175.152 128.161 174.777 127.786C174.402 127.411 173.894 127.2 173.363 127.2C172.833 127.2 172.324 127.411 171.949 127.786C171.574 128.161 171.363 128.67 171.363 129.2V129.3Z" fill="#231F20"/>
<path d="M172.963 141.3C174.363 144.7 175.063 148.3 175.263 152.1C175.224 152.363 175.237 152.63 175.301 152.888C175.365 153.146 175.479 153.389 175.637 153.602C175.956 154.033 176.433 154.32 176.963 154.4C177.494 154.48 178.034 154.345 178.465 154.026C178.679 153.869 178.859 153.67 178.996 153.443C179.133 153.215 179.224 152.963 179.263 152.7L181.963 140C182.096 139.483 182.018 138.934 181.746 138.475C181.474 138.015 181.03 137.683 180.513 137.55C179.996 137.417 179.447 137.496 178.988 137.768C178.528 138.04 178.196 138.483 178.063 139L175.363 151.6L179.363 152.1C179.171 147.983 178.292 143.927 176.763 140.1C176.623 139.601 176.294 139.176 175.846 138.915C175.398 138.654 174.867 138.577 174.363 138.7C173.864 138.841 173.44 139.17 173.178 139.617C172.917 140.065 172.84 140.597 172.963 141.1V141.2V141.3Z" fill="#231F20"/>
<path d="M175.963 133.3C176.263 135.1 176.963 136.9 177.963 138.6C178.228 139.064 178.667 139.404 179.183 139.545C179.699 139.685 180.249 139.615 180.713 139.35C181.177 139.085 181.517 138.646 181.658 138.13C181.798 137.615 181.728 137.064 181.463 136.6C181.068 135.966 180.734 135.296 180.463 134.6L180.663 135C180.251 134.072 179.949 133.098 179.763 132.1C179.641 131.74 179.419 131.422 179.122 131.184C178.826 130.946 178.468 130.798 178.09 130.756C177.713 130.714 177.331 130.78 176.989 130.947C176.648 131.115 176.361 131.376 176.163 131.7L175.963 132.1C175.86 132.459 175.86 132.841 175.963 133.2V133.3ZM177.963 111.3C178.273 113.519 178.34 115.766 178.163 118L178.063 119.1V119.3L177.963 120C177.879 120.374 177.904 120.765 178.036 121.125C178.167 121.486 178.4 121.801 178.706 122.033C179.011 122.265 179.377 122.404 179.76 122.433C180.142 122.463 180.525 122.382 180.863 122.2C181.102 122.077 181.313 121.908 181.485 121.702C181.657 121.495 181.786 121.257 181.863 121C182.363 117.8 182.463 114.6 182.063 111.3C182.063 110.77 181.852 110.261 181.477 109.886C181.102 109.511 180.594 109.3 180.063 109.3C179.063 109.3 177.963 110.2 178.063 111.3H177.963Z" fill="#231F20"/>
<path d="M176.763 121.9C176.263 125 176.063 128.2 176.263 131.3C176.263 131.83 176.474 132.339 176.849 132.714C177.224 133.089 177.733 133.3 178.263 133.3C178.794 133.3 179.302 133.089 179.677 132.714C180.052 132.339 180.263 131.83 180.263 131.3V127L180.363 124.8L180.563 123.8V123.7V123C180.763 122.5 180.663 122 180.463 121.5C180.269 121.145 179.972 120.858 179.611 120.676C179.25 120.494 178.842 120.425 178.441 120.479C178.041 120.533 177.666 120.708 177.366 120.979C177.067 121.251 176.856 121.607 176.763 122V121.9ZM177.763 155.8C180.363 155.8 180.363 151.8 177.763 151.8C175.163 151.8 175.163 155.8 177.763 155.8Z" fill="#231F20"/>
<path d="M177.363 156V157.5L179.363 157L178.163 154.7C178.043 154.537 177.876 154.415 177.685 154.349C177.493 154.283 177.286 154.276 177.091 154.331C176.896 154.385 176.722 154.497 176.592 154.652C176.462 154.807 176.382 154.998 176.363 155.2C176.363 157.2 176.563 159.2 176.863 161.2C176.929 161.411 177.063 161.594 177.244 161.72C177.425 161.847 177.643 161.91 177.863 161.9C178.128 161.9 178.383 161.795 178.57 161.607C178.758 161.42 178.863 161.165 178.863 160.9V160.6C178.887 160.381 178.838 160.161 178.724 159.973C178.609 159.785 178.436 159.64 178.231 159.56C178.026 159.48 177.801 159.47 177.59 159.532C177.379 159.593 177.193 159.723 177.063 159.9C176.875 160.085 176.767 160.336 176.763 160.6V160.9L178.763 160.6V160.1V159.4C178.57 158.008 178.47 156.605 178.463 155.2L176.563 155.7L177.663 158C177.767 158.192 177.931 158.345 178.129 158.435C178.328 158.525 178.55 158.548 178.763 158.5C178.992 158.453 179.198 158.328 179.344 158.145C179.49 157.962 179.568 157.734 179.563 157.5V155.9C179.56 155.704 179.5 155.514 179.39 155.352C179.28 155.19 179.125 155.064 178.944 154.989C178.763 154.915 178.564 154.895 178.372 154.932C178.18 154.97 178.003 155.063 177.863 155.2C177.675 155.385 177.567 155.636 177.563 155.9H177.363V156ZM177.263 95.6C176.603 100.607 177.474 105.698 179.763 110.2L180.863 108.7C180.685 108.679 180.519 108.598 180.392 108.471C180.265 108.344 180.184 108.178 180.163 108C179.863 106.8 177.963 107.3 178.263 108.6C178.387 109.099 178.65 109.552 179.022 109.906C179.394 110.26 179.859 110.501 180.363 110.6C180.544 110.635 180.731 110.62 180.903 110.556C181.076 110.492 181.228 110.381 181.341 110.236C181.455 110.092 181.527 109.918 181.548 109.735C181.57 109.552 181.54 109.367 181.463 109.2C179.463 105 178.563 100.2 179.263 95.6C179.263 95 178.663 94.6 178.263 94.6C177.998 94.6 177.744 94.7053 177.556 94.8929C177.369 95.0804 177.263 95.3348 177.263 95.6V95.6Z" fill="#231F20"/>
<path d="M177.963 107.1C177.277 107.286 176.679 107.71 176.276 108.296C175.873 108.882 175.691 109.592 175.763 110.3C175.76 110.665 175.89 111.02 176.13 111.296C176.369 111.572 176.701 111.751 177.063 111.8C177.417 111.836 177.772 111.745 178.065 111.544C178.358 111.342 178.57 111.043 178.663 110.7C179.463 107.4 179.663 103.9 179.163 100.6C179.106 100.408 179.011 100.23 178.885 100.075C178.758 99.9205 178.601 99.7928 178.424 99.6997C178.247 99.6065 178.053 99.5497 177.854 99.5325C177.654 99.5154 177.454 99.5384 177.263 99.6C176.898 99.7157 176.591 99.9666 176.406 100.301C176.22 100.636 176.169 101.029 176.263 101.4C176.652 104.239 176.482 107.126 175.763 109.9L178.763 110.3V110V110.2C178.763 110 178.763 110 178.763 110.2V110C178.863 110 178.863 110 178.763 110C178.663 110 178.663 110 178.763 110C178.962 109.964 179.152 109.889 179.321 109.778C179.49 109.667 179.635 109.524 179.747 109.356C179.859 109.187 179.936 108.998 179.973 108.8C180.01 108.601 180.007 108.397 179.963 108.2C179.908 107.996 179.81 107.807 179.676 107.644C179.542 107.48 179.376 107.347 179.187 107.253C178.998 107.158 178.791 107.105 178.581 107.096C178.37 107.087 178.159 107.122 177.963 107.2V107.1ZM55.4632 178.1C58.0632 178.1 58.0632 174.1 55.4632 174.1C52.9632 174.1 52.9632 178.1 55.4632 178.1Z" fill="#231F20"/>
<path d="M53.2632 174.7C52.2632 180 52.4632 185.4 53.7632 190.7C53.7835 190.994 53.8684 191.279 54.0118 191.536C54.1553 191.793 54.3536 192.016 54.5928 192.187C54.832 192.359 55.1061 192.475 55.3956 192.529C55.6851 192.582 55.9828 192.571 56.2674 192.496C56.5521 192.421 56.8167 192.284 57.0424 192.095C57.2681 191.906 57.4493 191.67 57.573 191.403C57.6968 191.136 57.7601 190.845 57.7584 190.55C57.7567 190.256 57.69 189.966 57.5632 189.7C56.3871 185.124 56.2166 180.348 57.0632 175.7C57.1908 175.21 57.1275 174.689 56.8862 174.244C56.6449 173.798 56.2436 173.461 55.7632 173.3C55.3691 173.175 54.946 173.175 54.552 173.301C54.158 173.426 53.8126 173.67 53.5632 174C53.4193 174.212 53.3174 174.45 53.2632 174.7V174.7Z" fill="#231F20"/>
<path d="M49.1632 156.4C49.1632 162.7 50.4632 169 53.1632 174.7C53.4673 175.062 53.8899 175.305 54.3559 175.385C54.822 175.465 55.3014 175.378 55.7091 175.138C56.1167 174.898 56.4262 174.522 56.5826 174.075C56.7389 173.629 56.7321 173.142 56.5632 172.7C54.2962 167.566 53.1376 162.012 53.1632 156.4C53.1632 153.9 49.1632 153.9 49.1632 156.4Z" fill="#231F20"/>
<path d="M50.0632 149.6L49.8632 154C49.8632 154.265 49.9686 154.52 50.1561 154.707C50.3436 154.895 50.598 155 50.8632 155C51.1284 155 51.3828 154.895 51.5703 154.707C51.7578 154.52 51.8632 154.265 51.8632 154L52.0632 149.6C52.0632 149.335 51.9578 149.08 51.7703 148.893C51.5828 148.705 51.3284 148.6 51.0632 148.6C50.798 148.6 50.5436 148.705 50.3561 148.893C50.1686 149.08 50.0632 149.335 50.0632 149.6Z" fill="#231F20"/>
<path d="M49.4632 136.8C49.4195 140.64 49.5864 144.479 49.9632 148.3C50.1088 148.444 50.2954 148.541 50.4975 148.575C50.6996 148.61 50.9075 148.582 51.093 148.495C51.2786 148.407 51.4328 148.265 51.5348 148.087C51.6368 147.909 51.6816 147.704 51.6632 147.5C51.4632 144 51.3632 140.5 51.4632 136.9C51.4632 135.6 49.4632 135.6 49.4632 136.9V136.8Z" fill="#231F20"/>
<path d="M96.6632 32.1L96.9632 37.8C96.9712 38.2371 97.1222 38.6596 97.3931 39.0027C97.664 39.3458 98.0399 39.5908 98.4632 39.7H99.4632C99.9632 39.5 100.463 39.2 100.663 38.7C101.363 37.7 101.963 36.7 102.163 35.4C102.563 34 102.563 32.6 102.363 31.3C102.27 30.9066 102.06 30.5506 101.76 30.2791C101.46 30.0076 101.086 29.8333 100.685 29.7792C100.284 29.725 99.8766 29.7936 99.5156 29.9758C99.1547 30.1581 98.8575 30.4454 98.6632 30.8C98.4632 31.3 98.3632 31.8 98.4632 32.3V32.5V32V34V33.5C98.3835 34.1854 98.2154 34.8577 97.9632 35.5L98.1632 35.1L97.1632 36.7L100.963 37.7L100.663 32C100.663 31.4696 100.452 30.9609 100.077 30.5858C99.7023 30.2107 99.1936 30 98.6632 30C98.1328 30 97.6241 30.2107 97.249 30.5858C96.8739 30.9609 96.6632 31.4696 96.6632 32V32.1ZM88.3632 36.8L92.9632 29.2C93.1501 28.9773 93.2862 28.7166 93.3621 28.436C93.4379 28.1553 93.4517 27.8615 93.4024 27.575C93.3531 27.2885 93.242 27.0162 93.0767 26.7771C92.9114 26.5379 92.696 26.3377 92.4454 26.1903C92.1948 26.0429 91.9151 25.9519 91.6258 25.9236C91.3365 25.8953 91.0445 25.9305 90.7701 26.0266C90.4957 26.1227 90.2456 26.2775 90.0372 26.4801C89.8288 26.6828 89.667 26.9284 89.5632 27.2L84.9632 34.8C84.7943 35.2418 84.7875 35.7291 84.9438 36.1754C85.1002 36.6217 85.4097 36.9982 85.8173 37.238C86.225 37.4778 86.7044 37.5654 87.1705 37.4852C87.6365 37.405 88.0591 37.1622 88.3632 36.8Z" fill="#231F20"/>
<path d="M94.2632 26.3L94.6632 25.8L94.2632 26.2C94.6632 25.8 94.9632 25.4 95.4632 25.1L94.9632 25.4L95.6632 25L96.1632 24.5C96.4302 24.1843 96.5928 23.7937 96.6286 23.3818C96.6644 22.9699 96.5717 22.557 96.3632 22.2C96.0951 21.7557 95.6648 21.433 95.1632 21.3H94.6632C94.3182 21.2792 93.9736 21.3481 93.6632 21.5C92.486 22.1873 91.4914 23.1477 90.7632 24.3L90.5632 25V25.8C90.5632 26.1 90.7632 26.3 90.9632 26.5L91.4632 27C91.7014 27.1426 91.9667 27.234 92.2421 27.2684C92.5176 27.3028 92.7972 27.2796 93.0632 27.2L93.5632 27C93.8632 26.9 94.0632 26.6 94.2632 26.3ZM100.963 18.3C103.463 18.3 103.463 14.3 100.963 14.3C98.2632 14.3 98.2632 18.3 100.963 18.3ZM106.963 14.6C107.163 16.1 107.163 17.6 106.963 19.1V18.6V19.2L107.063 18.7C107.063 18.8 107.063 18.9 106.863 19L107.163 18.6L107.063 18.8C106.697 19.1739 106.491 19.6765 106.491 20.2C106.491 20.7235 106.697 21.2262 107.063 21.6C107.463 22 107.963 22.2 108.463 22.2C108.963 22.2 109.463 22 109.863 21.6C110.863 20.7 110.963 19.2 111.063 17.9V14.6C111.063 14.1 110.863 13.6 110.463 13.2C110.184 12.9259 109.83 12.7399 109.446 12.665C109.061 12.5902 108.664 12.6297 108.301 12.7788C107.939 12.9278 107.629 13.1798 107.409 13.5036C107.189 13.8273 107.069 14.2086 107.063 14.6H106.963ZM84.9632 46L86.3632 45.5C86.6632 45.5 86.8632 45.3 87.0632 45.2L87.5632 44.6C87.7632 44.4 87.7632 44.1 87.8632 43.9V43.1L87.5632 42.6C87.3922 42.3117 87.1515 42.071 86.8632 41.9L86.4632 41.7H85.3632L83.8632 42.1C83.6632 42.1 83.4632 42.3 83.2632 42.5L82.7632 43C82.5632 43.3 82.4632 43.5 82.4632 43.8V44.6L82.6632 45.1L83.3632 45.8L83.8632 46H84.8632H84.9632Z" fill="#231F20"/>
<path d="M88.5632 44.3H88.9632L88.4632 44.2C89.3632 44.2 90.1632 44.5 90.9632 44.9C91.5632 44.9 92.0632 44.9 92.5632 44.7C93.0085 44.4298 93.3308 43.9964 93.4615 43.4922C93.5923 42.9879 93.5211 42.4526 93.2632 42L92.9632 41.6C92.6969 41.3051 92.3487 41.0962 91.9632 41C90.9632 40.6 89.7632 40.3 88.5632 40.2C88.2632 40.2 87.9632 40.2 87.7632 40.4C87.5632 40.4 87.2632 40.6 87.1632 40.8C86.7864 41.1693 86.5707 41.6725 86.5632 42.2C86.5632 42.8 86.7632 43.2 87.1632 43.7L87.5632 44L88.5632 44.2V44.3ZM83.6632 48.8C86.2632 48.8 86.2632 44.8 83.6632 44.8C81.1632 44.8 81.1632 48.8 83.6632 48.8Z" fill="#231F20"/>
<path d="M94.1632 45.8C96.6632 45.8 96.6632 41.8 94.1632 41.8C91.5632 41.8 91.5632 45.8 94.1632 45.8Z" fill="#231F20"/>
<path d="M95.7632 48.1C98.2632 48.1 98.3632 44.1 95.7632 44.1C93.1632 44.1 93.1632 48.1 95.7632 48.1Z" fill="#231F20"/>
<path d="M94.6632 48.6L94.9632 50.1V49.6V52V51.5V51.6C94.9632 52.2 94.9632 52.7 95.1632 53.2C95.4632 53.6 95.8632 54 96.3632 54.1C96.6193 54.1759 96.8879 54.1997 97.1533 54.17C97.4187 54.1404 97.6755 54.0579 97.9085 53.9274C98.1416 53.7969 98.3461 53.6211 98.51 53.4103C98.674 53.1995 98.7941 52.958 98.8632 52.7C99.1658 50.9668 99.0631 49.187 98.5632 47.5C98.3632 47 98.0632 46.6 97.5632 46.3C97.2171 46.1058 96.8211 46.0189 96.4254 46.0505C96.0298 46.082 95.6525 46.2305 95.3416 46.4771C95.0307 46.7237 94.8001 47.0573 94.6793 47.4353C94.5585 47.8134 94.5529 48.2188 94.6632 48.6V48.6ZM96.7632 61.4C96.7632 60.8 96.9632 60.2 97.2632 59.7L97.0632 60.1L97.3632 59.5C97.6632 59 97.6632 58.5 97.5632 57.9L97.2632 57.2L96.6632 56.7C96.4289 56.5605 96.1684 56.4703 95.898 56.4351C95.6275 56.3999 95.3527 56.4204 95.0904 56.4953C94.8282 56.5703 94.584 56.6981 94.373 56.8708C94.1619 57.0436 93.9884 57.2577 93.8632 57.5C93.3664 58.4023 93.0281 59.3832 92.8632 60.4V61.2C92.8632 61.4 92.9632 61.7 93.1632 61.9L93.6632 62.5C93.8632 62.6 94.0632 62.8 94.3632 62.8C94.8632 63 95.3632 62.8 95.8632 62.6L96.2632 62.3C96.5632 62.1 96.7632 61.8 96.7632 61.4V61.4ZM92.9632 73.3C95.5632 73.3 95.5632 69.3 92.9632 69.3C90.4632 69.3 90.4632 73.3 92.9632 73.3ZM49.5632 148.9L49.3632 154.9C49.3632 155.43 49.5739 155.939 49.949 156.314C50.3241 156.689 50.8328 156.9 51.3632 156.9C51.8936 156.9 52.4023 156.689 52.7774 156.314C53.1525 155.939 53.3632 155.43 53.3632 154.9L53.5632 148.9C53.5632 148.37 53.3525 147.861 52.9774 147.486C52.6023 147.111 52.0936 146.9 51.5632 146.9C51.0328 146.9 50.5241 147.111 50.149 147.486C49.7739 147.861 49.5632 148.37 49.5632 148.9ZM54.5632 176.6C57.0632 176.6 57.0632 172.6 54.5632 172.6C51.9632 172.6 51.9632 176.6 54.5632 176.6ZM52.4632 182.1C52.1088 185.334 52.5908 188.605 53.8632 191.6C54.0975 191.892 54.4093 192.113 54.7629 192.237C55.1165 192.36 55.4977 192.382 55.8632 192.3C56.1302 192.242 56.3824 192.13 56.6044 191.971C56.8264 191.812 57.0135 191.609 57.154 191.375C57.2946 191.14 57.3856 190.88 57.4216 190.609C57.4576 190.338 57.4377 190.063 57.3632 189.8C57.1247 189.146 56.9243 188.478 56.7632 187.8L56.4632 186.8V186.4C56.3632 186.2 56.4632 186.2 56.4632 186.4V186.2C56.2632 184.9 56.2632 183.5 56.4632 182.1C56.4557 181.572 56.24 181.069 55.8632 180.7C55.4893 180.334 54.9867 180.128 54.4632 180.128C53.9397 180.128 53.4371 180.334 53.0632 180.7C52.6632 181.1 52.4632 181.6 52.4632 182.1ZM118.463 92.1L119.063 93.1C119.263 93.3 119.363 93.5 119.663 93.6C119.763 93.8 120.063 93.9 120.263 94H121.063C121.363 94 121.663 93.9 121.863 93.7L122.263 93.4L122.763 92.5V92C122.784 91.655 122.715 91.3105 122.563 91L121.963 90C121.763 89.8 121.663 89.6 121.363 89.5L120.763 89.1H119.963L119.163 89.3L118.763 89.7C118.535 89.923 118.364 90.1973 118.263 90.5V91.1C118.263 91.4 118.263 91.8 118.463 92.1ZM145.063 120.3C144.863 123.8 145.063 127.3 146.663 130.5C148.063 133 150.263 135.1 150.863 137.9L154.663 136.9L151.463 127.9C151.398 127.644 151.282 127.403 151.123 127.192C150.965 126.98 150.766 126.802 150.539 126.668C150.311 126.533 150.059 126.444 149.797 126.407C149.536 126.37 149.269 126.384 149.013 126.45C148.757 126.516 148.516 126.631 148.305 126.79C148.094 126.948 147.915 127.147 147.781 127.375C147.646 127.602 147.558 127.854 147.52 128.116C147.483 128.377 147.498 128.644 147.563 128.9L150.863 137.9C150.884 138.194 150.968 138.479 151.112 138.736C151.255 138.993 151.454 139.216 151.693 139.387C151.932 139.559 152.206 139.675 152.496 139.729C152.785 139.782 153.083 139.771 153.367 139.696C153.652 139.621 153.917 139.484 154.142 139.295C154.368 139.106 154.549 138.87 154.673 138.603C154.797 138.336 154.86 138.045 154.858 137.75C154.857 137.456 154.79 137.166 154.663 136.9C154.063 133.9 152.063 131.6 150.563 129.1C148.863 126.4 148.863 123.4 149.063 120.2C149.063 119.67 148.852 119.161 148.477 118.786C148.102 118.411 147.594 118.2 147.063 118.2C146.533 118.2 146.024 118.411 145.649 118.786C145.274 119.161 145.063 119.67 145.063 120.2V120.3ZM136.663 162.3C137.195 164.206 138.232 165.934 139.663 167.3C140.063 167.6 140.563 167.8 141.063 167.8C141.455 167.795 141.836 167.674 142.16 167.454C142.483 167.234 142.735 166.924 142.884 166.562C143.034 166.2 143.073 165.802 142.998 165.418C142.923 165.033 142.737 164.68 142.463 164.4L141.463 163.4L141.763 163.7L140.663 161.7L140.863 162.2L140.463 161.2C140.263 160.78 139.922 160.443 139.499 160.247C139.077 160.052 138.6 160.009 138.149 160.128C137.699 160.246 137.304 160.518 137.033 160.896C136.762 161.275 136.631 161.736 136.663 162.2V162.3ZM175.963 119.1L175.863 123.9C175.863 124.43 176.074 124.939 176.449 125.314C176.824 125.689 177.333 125.9 177.863 125.9C178.394 125.9 178.902 125.689 179.277 125.314C179.652 124.939 179.863 124.43 179.863 123.9V119.1C179.863 118.57 179.652 118.061 179.277 117.686C178.902 117.311 178.394 117.1 177.863 117.1C177.333 117.1 176.824 117.311 176.449 117.686C176.074 118.061 175.863 118.57 175.863 119.1H175.963ZM176.063 132C175.84 132.899 175.851 133.84 176.096 134.733C176.341 135.626 176.812 136.441 177.463 137.1C177.763 137.4 178.063 137.5 178.363 137.6L178.863 137.7C179.163 137.7 179.463 137.7 179.663 137.5L180.063 137.3L180.463 136.9L180.763 136.5L180.863 135.7V132.8C180.863 132.3 180.563 131.8 180.263 131.4C179.99 131.09 179.628 130.872 179.226 130.776C178.824 130.68 178.402 130.711 178.019 130.864C177.635 131.018 177.309 131.286 177.084 131.633C176.859 131.979 176.747 132.387 176.763 132.8L176.863 135.7L180.263 134.3L180.063 134L180.363 134.4L179.863 133.6L180.063 134.1C179.969 133.841 179.902 133.573 179.863 133.3V132.8V133.1C180.063 132.6 179.963 132.1 179.763 131.5C179.569 131.145 179.272 130.858 178.911 130.676C178.55 130.494 178.142 130.425 177.741 130.479C177.341 130.533 176.966 130.708 176.666 130.979C176.367 131.251 176.156 131.607 176.063 132V132Z" fill="#231F20"/>
<path d="M180.763 140.8C183.263 140.8 183.263 136.8 180.763 136.8C178.163 136.8 178.163 140.8 180.763 140.8ZM155.963 159.4V164.7C155.963 165.23 156.174 165.739 156.549 166.114C156.924 166.489 157.433 166.7 157.963 166.7C158.494 166.7 159.002 166.489 159.377 166.114C159.752 165.739 159.963 165.23 159.963 164.7V159.3C159.963 158.77 159.752 158.261 159.377 157.886C159.002 157.511 158.494 157.3 157.963 157.3C157.433 157.3 156.924 157.511 156.549 157.886C156.174 158.261 155.963 158.77 155.963 159.3V159.4ZM151.363 188.4C153.963 188.4 153.963 184.4 151.363 184.4C148.763 184.4 148.763 188.4 151.363 188.4Z" fill="#231F20"/>
<path d="M153.663 188.6L158.563 184.6C158.76 184.413 158.916 184.188 159.024 183.939C159.131 183.69 159.186 183.421 159.186 183.15C159.186 182.879 159.131 182.61 159.024 182.361C158.916 182.112 158.76 181.887 158.563 181.7C158.194 181.323 157.691 181.108 157.163 181.1L156.563 181.2C156.225 181.285 155.914 181.458 155.663 181.7L150.863 185.7C150.589 185.98 150.403 186.333 150.328 186.718C150.253 187.102 150.293 187.5 150.442 187.862C150.591 188.224 150.843 188.534 151.167 188.754C151.491 188.974 151.872 189.095 152.263 189.1H152.763L153.663 188.6Z" fill="#231F20"/>
<path d="M159.863 183.1C162.463 183.1 162.463 179.1 159.863 179.1C157.263 179.1 157.263 183.1 159.863 183.1Z" fill="#231F20"/>
<path d="M162.963 180.9C165.563 180.9 165.563 176.9 162.963 176.9C160.363 176.9 160.363 180.9 162.963 180.9ZM132.463 67.6C135.063 67.6 135.063 63.6 132.463 63.6C129.863 63.6 129.863 67.6 132.463 67.6Z" fill="#231F20"/>
</svg>
