<svg xmlns="http://www.w3.org/2000/svg" fill="none" viewBox="0 0 458 192"><defs/><g clip-path="url(#clip0)"><path stroke="#231F20" stroke-width="2" d="M13.6 1.2H36L66 117.6l7.7 41.3h1.4l7.7-41.3L114.6 1.2h22.7l32 116.4 7.7 41.3h1.3l8-41.3L216.1 1.2H238l-49.3 175h-23L132.3 53.4l-6.7-36h-.8l-6.6 36-32.5 122.8H63.2L13.6 1.2z"/><path fill="#231F20" d="M173.4 119.5c2.5 0 2.5-4 0-4-2.6 0-2.6 4 0 4zM176 115.3c2.5 0 2.6-4 0-4s-2.6 4 0 4zM175.9 100.5v2.6a1 1 0 001.7.7c.2-.1.3-.4.3-.7v-2.6a1 1 0 10-2 0zM177.3 96.7a1 1 0 100-2 1 1 0 000 2zM177.7 90.2v1.5l.3.2h.4a.5.5 0 00.2-.3l.1-1.3-.1-.4a.5.5 0 00-.4-.1l-.3.1a.5.5 0 00-.2.4v-.1z"/><path stroke="#231F20" stroke-width="2" d="M271.4 1H293v175.1h-21.6V1.1zM13 .7A379.7 379.7 0 001.9 38.3c-.5 3.6-4.4 21.1 9.8 42.4 3.5 5.2 6.5 10.9 8.9 16.8 11.1 28.7 9 51.6 9.2 58 .3 6.7-1.3 26.5 21.1 33.4 17.3 2.6 17.9-8.4 33.5-12.6M114.4 1.1s-18.1 8.5-27.6 27c-3.5 7.2-5 15.2-4.2 23.1 1.3 14.2 1 25.4-5 32.8 0 0-12.7 14-13.2 27.3M110 83.9s19 4.8 21.3 39c2.4 34.1 4.5 35 10.6 44 6 9 8.7 16.8 8.2 21.3 5 3.3 18.1 0 23.4-4.3a36 36 0 0115.6-7.5M216.1 1s-18.9 16.5-23 28.9c-4.2 10.3-2.9 14.5-3.7 25.6a50.2 50.2 0 01-6.1 23.7c-4.6 8.5-7.5 12.3-7.7 23.3 0 3.7-.8 7.4-2.3 10.9-1.9 4.2-3.6 4.7-3.6 4.7"/><path stroke="#231F20" d="M49.4 127.5s1 13.5.1 21.8c-.9 8.4.3 15.1 1.8 18.6 1.5 3.6 2 6.5 1.2 9-.8 2.4-.1 9.1 1.4 12.4M165.8 176L150 188.1M83 59l.3-8s0-5.7 3.6-8.8l1.6-1a4.3 4.3 0 015.3 2c1 1.8 1.9 4.7 1 9v.2c-2.6 7.1-4.8 10.2-3.3 20.4 1.5 6.6.7 9.6.4 11.8M182.7 135.2c-2-3.6-2.8-7.8-2.2-12-.2-3.1 4.2-11.9.4-18-2.9-5-1.9-16.1-1.9-16.1 0-1 .2-2 .4-2.8"/><path stroke="#231F20" stroke-width="2" d="M271.1.8s-17.6 14-21.9 27.8c-2.9 7.7-3.7 16-2.5 24.2 2.5 9.4 5.7 19.6 6.3 21.8.6 2.2 4 12.1 2 22.5-2.2 10.3-9.1 21-10.4 37.6.3 16.2 4.8 19 8.1 29.2 3.3 10.3 4 21.8 3.6 25 0 0 5.4 1.9 14.9-4.7 5-2.5 7-2 11-1.6a11 11 0 0010.8-6.2"/><path stroke="#231F20" d="M255.4 17.8s-4.7 14-2 21.7c2.1 6.1.9 12 .2 15-1.2 5.9-1.5 12-1 17.9M255.4 83.5s2.3 9.3 1.4 14.5c-1 5.2-3.5 13.7-4.1 16-1 4.9-1.2 9.9-.6 14.8.7 4.3 3.2 9.2 3.8 13.6.5 2.9-1.3 5.8-1.1 9.2 0 7.6 3.5 29.1 2 34.6l-.2 1"/><path stroke="#231F20" stroke-width="2" d="M361.3 176.5c-9.2 21.1-28.6 12.8-31.8 12.1-1.9-.4-5 1.6-4.5-1.5 1.8-9.7.2-28.5-4-41.6-1.2-4.1-6.1-15.5-4.8-24.7 1.3-9.2 6.2-15.7 9-22.8.8-2 1.5-4.1 2-6.3 1-5.1.4-10.7-3-18.6a65.6 65.6 0 01-3.4-40.6C325.2 15.7 340 .7 340 .7s-4.3 11.5-4.5 13.5c-.4 2.3-.3 4.7.5 7 1 3-.5 6.9-1.8 8.5-1.3 1.7-7.1 4.5-7.7 11.7-.6 7.2 4 8.7 4.2 8.9.4.2 6 3 5.8 7.9-.2 5.4-.7 7.2-3 10.7-2 3-3.3 4.8-4 8.1a16 16 0 00-.2 2.7c-.2 6.2-2 11.3-2.6 14.2"/><path stroke="#231F20" d="M340.6 175.8l-15.3 12.5"/><path stroke="#231F20" stroke-width="2" d="M272.2 175.7L256.9 188M361.4 32.4s11.6-9.2 23.2-5.4c11.5 3.8 24.2 8.1 41.7 2"/><path fill="#231F20" d="M250.4 38c2.6 0 2.6-4 0-4s-2.6 4 0 4z"/><path fill="#231F20" d="M252.5 21.9a76.7 76.7 0 01-4.5 12.6c-.4.8.2 1.8 1.1 1.5 2-.7 2.8-2.5 3.5-4.4l-2-.5a7.4 7.4 0 00-.2 3.6 1 1 0 002 0 8 8 0 00-.3-4c-.4-1.1-2.3-.6-1.9.6.3 1 .4 2 .2 2.9h2c-.2-.9 0-1.7.2-2.6.4-1.2-1.5-1.7-2-.5-.4 1.2-.8 2.6-2 3l1.1 1.5c2-4.2 3.6-8.6 4.8-13.2a1 1 0 00-1.5-1 1 1 0 00-.5.5z"/><path fill="#231F20" d="M247 38.3v.8a2 2 0 004 0l.2-1.4h-4c-.2 5.2.3 10.4 1.3 15.5.3 2 3.4 1.8 3.8 0a37 37 0 00.2-15.4 2 2 0 00-3.7-.5 2 2 0 00-.2 1.5c1 4.4.8 9-.2 13.3h4c-1-4.7-1.4-9.6-1.2-14.4a2 2 0 00-4 0l-.1 1.4h4v-.8a2 2 0 00-4 0z"/><path fill="#231F20" d="M250.4 43.5c.5 4.6-.1 9.2-2 13.5h4c-1-3.4-1.4-6.9-1.4-10.4a2 2 0 00-4 0c0 3.9.5 7.7 1.4 11.4a2 2 0 002 1.5 2.1 2.1 0 002-1.5c2-5 2.6-10.3 1.8-15.6a2 2 0 00-3.8 1.1z"/><path fill="#231F20" d="M252 66.7l.3-8a.5.5 0 00-.5-.4 3.3 3.3 0 00-2.4 1h.8a7.6 7.6 0 01-1-6.8l-1-.1a63.4 63.4 0 003 15.7.5.5 0 00.7-.4 36.2 36.2 0 00-.4-9.2.5.5 0 00-.7.1 6.5 6.5 0 000 6c.3.5 1.1 0 .8-.5a5.5 5.5 0 010-5h-.9c.4 2.8.5 5.7.2 8.6l1-.1a61 61 0 01-2.8-15.6.5.5 0 00-.9.2 8.6 8.6 0 001.3 7.8.5.5 0 00.6 0 2.3 2.3 0 011.7-.7l-.5-.5-.2 8c0 .5 1 .5 1 0v-.1zM252 30.7a.5.5 0 100-1 .5.5 0 000 1zM256.2 93.3l-1.8 7.7 1 .3c.2-1.5.7-3 1.6-4.2l-.9-.5-3.3 8.7 1 .3c.4-1.3 1-2.5 1.8-3.7l-1-.2c0 .9-.2 1.8-.6 2.5a.5.5 0 00.2.7h.3c.2 0 .3 0 .3-.2.6-.9.9-2 .8-3a.5.5 0 00-.3-.5.5.5 0 00-.6.2c-.8 1.2-1.4 2.5-1.9 4-.2.5.7.8 1 .2l3.4-8.7c.2-.5-.5-.9-.8-.5-1 1.4-1.6 3-1.9 4.6-.1.7.8 1 1 .3l1.8-7.8c.2-.6-.8-.9-1-.2zM251.6 139.2h-.8c-.4-.3-.5-.4-.3-.1-.1-.2-.1-.2 0 0l.2.3.2.3v.1a6.4 6.4 0 01.4 1.5v2.7s-.2.9 0 .5l-.3 1.3c0 .2 0 .4-.2.6 0 .3-.2.8 0 .4a5.8 5.8 0 01-.5.8l-.2.1-.3.2c.3-.1.3-.1 0 0 .3 0 .3 0 0 0a1 1 0 011 .5c0 .2 0 .1 0 0l-.1-.6a61.8 61.8 0 01-1-8.2c-.1.6.2-.5 0 0 .1-.4.1-.3-.2 0l-2.7-.7v.2l.3.6a24.4 24.4 0 01.9 3.1c.3 1.4.4 2.8.4 4.2a2 2 0 004 0c0-3.5-.8-7-2.2-10.1a2 2 0 00-2.7-.8 4.6 4.6 0 00-1.9 3.7 67.2 67.2 0 001 7.7c.3 1.4.5 3.1 1.9 4a3.7 3.7 0 004-.5c.9-.8 1.6-1.8 2-3 .3-1 .6-2.1.7-3.2v-3.3c0-1.5-.5-3-1.2-4.2-.3-.7-.9-1.3-1.6-1.7a3 3 0 00-3 .1 2 2 0 102 3.5h.2z"/><path fill="#231F20" d="M246.7 127.6c-.9 3.4-1.3 6.8-1.3 10.2a2 2 0 004 0c0-1.6 0-3.2.3-4.8 0-.6-.1.4 0-.2v-.5l.3-1.3.5-2.3a2 2 0 00-.7-2.1 2 2 0 00-3.1 1z"/><path fill="#231F20" d="M246.4 125.5v1.5a2 2 0 002 2c.3 0 .6 0 1-.3l.2-.2-2.7-.7.3.6.2.3c-.1-.2-.1-.2 0 0l.3 1.2.4 2.4a10 10 0 002.2 5 2 2 0 002.9 0 2 2 0 000-2.8c-.2-.1-.2-.1 0 0l-.2-.2-.3-.5-.1-.3c0 .3 0 .3 0 0l-.2-.4-.5-2.4c-.2-1.7-.7-3.5-1.6-5a2 2 0 00-2.7-.7l-.3.2 3 1.7.1-1.5a2 2 0 00-4 0z"/><path fill="#231F20" d="M253.6 105.2l-1.9 3.7 1 .4c.2-1 .6-2 1.2-2.9l-1-.2c0 1-.2 2.1-.6 3.1l1 .4.2-1.1a.5.5 0 00-1-.3l-1.3 3.5 1 .2.1-1.8a.5.5 0 00-1-.2l-.3 1.8a.5.5 0 000 .4.5.5 0 00.3.2.5.5 0 00.4 0 .5.5 0 00.3-.4l.4-1.3-1-.1v1.5c0 .5.7.8 1 .3l.8-1.7-1-.4a41 41 0 00-2 6.8h1c.1-1.8.5-3.6 1.1-5.3.2-.5-.6-.9-1-.4l-1.4 3.7 1 .3.3-2.3c.1-.4-.6-.9-.9-.3a55.3 55.3 0 00-3.5 11.1c-.1.6.8 1 1 .3.6-2.6 1.6-5.1 2.8-7.5l-1-.3c-.2 2.2-.7 4.4-1.4 6.5l1 .1c.2-2.2.6-4.3 1.1-6.5l-1-.2-1.3 6.3c-.2.6.8 1 1 .3l1-4.5-1-.1.2 4h1c-.1-1.8.2-3.7 1-5.3l-1-.4-.7 5.2c0 .7.8 1 1 .3l1.4-6h-1l-1.2 9.5h1l-.4-5s0-.2-.2-.3a.5.5 0 00-.7 0l-.1.4-.4 4.9.9-.3a1.6 1.6 0 01-.6-1.6l-1 .1a23.1 23.1 0 011.7 4.3.5.5 0 00.7 0l.1-.5.5-4.4h-1c-.2 1.4 0 2.7.3 4 .2.7 1 .4 1-.2l-.2-1.3c0-.6-1-.3-1 .3l.2 1.2 1-.2a11 11 0 01-.3-3.8c0-.7-1-.7-1 0l-.4 4.4 1-.1a23.9 23.9 0 00-1.8-4.4h-.3-.3l-.1.3a2.6 2.6 0 00.9 2.5.5.5 0 00.7 0l.1-.3.4-5h-1l.4 5c0 .1 0 .2.2.3a.5.5 0 00.7 0l.1-.3 1.1-9.6c.1-.5-.8-.7-1-.1l-1.3 5.9 1 .3.7-5.3c0-.5-.7-1-1-.4-.7 1.9-1 3.8-1 5.8 0 .7 1 .7 1 0l-.1-4a.5.5 0 00-1 0l-1.1 4.4 1 .2 1.3-6.3c.1-.6-.8-.9-1-.3-.6 2.2-1 4.5-1.1 6.8 0 .6.8.7 1 .1a40 40 0 001.4-6.7c0-.5-.7-.7-1-.3a35 35 0 00-2.8 7.8l1 .3a54 54 0 013.3-11l-1-.3-.3 2.2c0 .6.8.9 1 .3.3-1.2.8-2.4 1.4-3.5l-1-.4c-.6 1.8-1 3.7-1 5.7l.1.3.3.2a.5.5 0 00.6-.4c.4-2.3 1.1-4.6 2-6.8.2-.5-.7-.9-1-.3l-.8 1.7 1 .2v-1.5a.5.5 0 00-.5-.5.5.5 0 00-.6.3l-.4 1.3 1 .3.4-1.7-1-.1-.1 1.8c0 .6.8.6 1 0l1.3-3.5-1-.2-.3 1.1c-.1.5.7 1 1 .4a9 9 0 00.7-3.6.5.5 0 00-1-.3c-.5 1-1 2-1.3 3.1-.1.6.7 1 1 .4l1.8-3.7c.3-.6-.6-1.1-.9-.5zM251.7 149.7l.1 5.8 2.6-1a30 30 0 01-3.7-3.6 1.5 1.5 0 00-1.6-.3l-.5.3a1.5 1.5 0 000 2.2c1.1 1.2 2.3 2.4 3.6 3.5a1.5 1.5 0 001.7.3 1.5 1.5 0 00.9-1.4c-.2-2-.2-3.9-.1-5.8a1.5 1.5 0 00-1.5-1.5 1.5 1.5 0 00-1.5 1.5z"/><path fill="#231F20" d="M249.3 154.6a29 29 0 012.8 5v.1c0-.2 0-.2 0 0 .2.1.2.2.2.4.1.3.4.6.7.8a1.5 1.5 0 002.2-.8c.1-.2.1-.6 0-.8-.8-2.2-2-4.3-3.3-6.2-.2-.3-.6-.6-1-.7a1.5 1.5 0 00-1.8 1.4c0 .3 0 .6.2.8z"/><path fill="#231F20" d="M255.7 174.6l.1.8c.1.6 1 .3 1-.3l-1.4-8-.7-4c0-.5-.2-1-.4-1.6 0-.2-.2-.3-.4-.4l-.6-.2-1 .2 1.2 2.9c.2.4.8.5 1 0l.7-2.6-1-.2.7 5.7c0 .6 1 .7 1 0l-.7-5.7a.5.5 0 00-.2-.5.5.5 0 00-.6 0 .5.5 0 00-.2.4c-.3.8-.6 1.7-.7 2.6h1l-1.3-3a.5.5 0 10-1 .2.9.9 0 00.6.9c.3 0 .5 0 .6.3l.2.8.7 4.2 1.5 8.2 1-.2-.1-.8c-.1-.7-1.1-.4-1 .3z"/><path fill="#231F20" d="M256 167.9c0-1 0-2-.2-2.8a.5.5 0 00-.6-.4.5.5 0 00-.3.6v2.5c0 .2 0 .3.2.4l.3.1.4-.1.1-.4z"/><path stroke="#231F20" d="M361.2 126s9-6.3 19-2.7l5.5 2A42.6 42.6 0 00435 111c3.5-5.2 7-10.2 8.3-18.2"/><path stroke="#231F20" stroke-width=".3" d="M405.9 19.3a5.2 5.2 0 013.1 4.2c0 .6 0 1.3-.2 2-.6 1.8-4.6 3.3-9.7 3.8-1.8.2-3.7 0-5.5-.3-5.3-1.1-4.3-1-4.3-1"/><path stroke="#231F20" stroke-width=".8" d="M322.7 152.3s.6-4.8 7-13.1 5.7-24.1 5.6-25.5c-.1-5.5 1.8-10 4.6-15.2"/><path fill="#231F20" d="M57 178.8c3.2 0 3.2-5 0-5-3.3 0-3.3 5 0 5z"/><path fill="#231F20" d="M60.4 179.6l-1.2-1.4.4.5-.5-.7c-.4-.5-.9-1-1.5-1.1-.3-.1-.7-.2-1 0a2 2 0 00-1 .2l-.4.4c-.3.3-.6.7-.7 1.1v.7c0 .4 0 .8.3 1.2.3.6.7 1 1.2 1.6l.9 1c.5.4 1 .7 1.7.7.4 0 .7 0 1-.2.4 0 .6-.3.9-.5l.3-.5c.3-.4.4-.8.4-1.3l-.1-.6c-.1-.5-.3-.8-.6-1.1z"/><path fill="#231F20" d="M54.5 179.3c-.2 1.7 0 3.4.3 5a3.7 3.7 0 002.4 2.7c.9.3 1.8.3 2.7.1a19 19 0 007.7-3.7 2.5 2.5 0 00-2.5-4.3l-2.9 1.9-1.6.8c.3-.2.5-.2.1 0l-.3.1a8 8 0 01-.9.3l-.8.1h.2-.4c-.4 0 .5.1.2 0l.3.1.3.3c.2.1.3.3.3.5.1.2.1.2 0 0v-.4l-.1-.5v.3-.3-3a2.5 2.5 0 00-2.6-2.4 2.6 2.6 0 00-2.5 2.5z"/><path fill="#231F20" d="M59.7 180.6H61h-.7.7l-.6-.2.2.1-.5-.4-.4-.4-.3-.5V178v.2l.2-.6v.2a2.5 2.5 0 002.1 3.8c1.2 0 2.3 0 3.5.2l-.7-.1 1.3.2c.7.2 1.4 0 2-.2.5-.4 1-.9 1.1-1.5a2.5 2.5 0 00-.1-2 2.4 2.4 0 00-1.5-1c-1.8-.4-3.7-.6-5.5-.6l2.2 3.7c.4-.7.6-1.6.4-2.4a3 3 0 00-2-2c-.9-.3-1.8-.4-2.7-.3-.7 0-1.3.3-1.8.7a2.5 2.5 0 001.8 4.3zM50.3 151.8c.5 1.6 1 3.3 1.1 5v-.7l.2 2.6a2.5 2.5 0 005 0c-.1-2.8-.6-5.6-1.5-8.3a2.5 2.5 0 00-4.8 1.3z"/><path fill="#231F20" d="M50.3 154.3c.3 3.7 1 7.5 2.2 11a2.6 2.6 0 003.1 1.8 2.5 2.5 0 001.8-3 42 42 0 01-1.4-5l-.3-1.3v-.6l-.1-.5v-.4l-.1-.6-.1-1.4a2.5 2.5 0 00-5 0z"/><path fill="#231F20" d="M51.7 162c-.1 3 .9 6 2 8.7 1 2.5 2.2 6.4 5.4 6.9a2.6 2.6 0 003-1.8 2.5 2.5 0 00-2-3.1c.3.1.3.1 0 0 .6.4 0-.1-.1-.3l-.1-.1-.4-.7-.4-.8c-.1-.3-.1-.3 0-.1l-.2-.5a74 74 0 01-1.8-5l-.2-.6-.1-.6v-1.9a2.5 2.5 0 00-2.6-2.5 2.6 2.6 0 00-2.5 2.5z"/><path fill="#231F20" d="M52 156.8c1.8 4.3 3.1 8.7 4 13.2a2.5 2.5 0 004.9-1.3c-1-4.5-2.3-9-4-13.2a2.6 2.6 0 00-3-1.8 2.5 2.5 0 00-1.8 3.1z"/><path fill="#231F20" d="M59.2 175.3c3.2 0 3.2-5 0-5-3.3 0-3.3 5 0 5z"/><path fill="#231F20" d="M59.2 174.3c3.2 0 3.2-5 0-5-3.3 0-3.3 5 0 5zM58.4 189.2c3.3 0 3.3-5 0-5-3.2 0-3.2 5 0 5z"/><path fill="#231F20" d="M62 188.5c2.8-1 5.4-2.6 7.7-4.6.5-.5.8-1.1.8-1.8 0-.6-.3-1.3-.8-1.8-.4-.4-1-.7-1.7-.7s-1.3.3-1.8.8l-.7.5.5-.4a24.9 24.9 0 01-5.5 3.3l.6-.3-.5.2c-.6.2-1.1.6-1.5 1.1a2.5 2.5 0 001.9 3.8h1zM52.6 149.7a1.5 1.5 0 100-3 1.5 1.5 0 000 3z"/><path fill="#231F20" d="M50.6 143.8v5.8a1.5 1.5 0 003 0v-5.8a1.5 1.5 0 00-3 0z"/><path fill="#231F20" d="M51.6 145.6l1.3 6a1.5 1.5 0 001.8 1 1.6 1.6 0 001-1.9l-1.3-6a1.5 1.5 0 00-1.8-1 1.5 1.5 0 00-1 1.8zM50.5 135l1.5 7.9c0 .6 1 .4 1-.3l-1.5-8c-.2-.6-1.1-.3-1 .3z"/><path fill="#231F20" d="M50.9 138.1l-.1 4.5a.5.5 0 00.7.5l.7-.5a.5.5 0 00-.5-.8l-.7.4.8.4v-4.5c0-.6-1-.6-1 0zM68.8 180.4H71c.4 0 .7-.2 1-.5a1.5 1.5 0 00-1-2.5h-2.2c-.4 0-.8.1-1 .4-.4.3-.5.7-.5 1 0 .5.1.8.4 1.1.3.3.7.5 1 .5z"/><path fill="#231F20" d="M68.7 179.4l5.3.3-1.1-2.6c-.5.6-1 1.2-1.7 1.7l-.2.1h.2-.2l-.4.3-1 .7a1.5 1.5 0 00-.6 2 1.5 1.5 0 002 .5c1.6-.8 2.9-1.9 4-3.1a1.5 1.5 0 00-1-2.6l-5.3-.3a1.5 1.5 0 00-1.5 1.5 1.5 1.5 0 001.5 1.5z"/><path fill="#231F20" d="M76.7 179.2a1 1 0 100-2 1 1 0 000 2z"/><path fill="#231F20" d="M74.8 177.8v.1-.3.3-.3.3l.1-.3c0 .1 0 .2-.2.3l.2-.2-.2.2.2-.2-.2.2.2-.1h-.2.2-.2.3-.4l-.4.2-.3.2-.2.4a1 1 0 00.7 1.2h1a2.2 2.2 0 00.9-.6l.5-1v-1l-.2-.3-.3-.2a.8.8 0 00-.3-.1h-.4a1 1 0 00-.6.4 1 1 0 00-.1.8z"/><path fill="#231F20" d="M77.4 178.5c1 0 2 0 2.8-.4.3 0 .5-.2.6-.5a1 1 0 00-1.1-1.4l-1.3.3h.3-1.3a1 1 0 00-.7 1.7c.2.2.5.3.7.3zM141.6 142.5c3.3 0 3.3-5 0-5-3.2 0-3.2 5 0 5z"/><path fill="#231F20" d="M119 64.6c1 8.3 2.7 16.5 5 24.6 2.3 7.8 6 15.1 8.3 22.9 4.6 15.4.2 32 8.7 46.4 2.8 4.6 8.7 2 9.3-2.6 1.5-11.4-.6-22.7-2.8-34-1.3-6.4-10.6-3.5-9.7 2.7a362 362 0 0010.2 47.2c1.7 6.2 11.4 3.6 9.6-2.6a362.1 362.1 0 01-10.2-47.2l-9.6 2.6c2.1 10.4 4 20.7 2.5 31.3l9.3-2.5c-7.8-13.2-3.4-29.7-7.7-44-2.1-7.2-5.5-14-7.7-21.1-2.4-7.7-4.2-15.7-5.2-23.7-.8-6.3-10.8-6.4-10 0z"/><path fill="#231F20" d="M114.4 80.7l3.1 5c1.3 1.8 2.5 4.5 5 5 3.3.8 6.8-1.3 6.9-5a5.3 5.3 0 00-1.7-3.9 5.7 5.7 0 00-5-1.2c-2.6.3-4.3 3.8-3.5 6.1 1 2.9 3.4 3.9 6.2 3.5h.1l-4.8-1.3.1.2-1.4-3.6v.2l2.4-4.3-.2.2 2.5-.7h-.3l3.5 1.5c.5.7.5.7 0 0l-.6-1-1.2-1.8-2.5-4c-1.5-2.1-4.5-3.2-6.9-1.7-2.2 1.4-3.3 4.5-1.8 6.8z"/><path fill="#231F20" d="M125.3 71.1c1.9-4.5 3.2-9.2 4-14 .5-2.6-.7-5.4-3.5-6.1-2.3-.7-5.6.8-6.1 3.5-.8 4.8-2.2 9.5-4 14-1 2.5 1.1 5.5 3.5 6.1 2.9.8 5.1-1 6.1-3.5z"/><path fill="#231F20" d="M123.6 63.5c1 9 2.6 17.8 5 26.4 2.5 8.8 6.5 17 8.8 25.8 1.6 6.2 11.3 3.6 9.7-2.7-2.2-8.1-5.8-15.8-8.3-24-2.5-8.3-4.3-16.8-5.2-25.5-.7-6.3-10.7-6.4-10 0z"/><path fill="#231F20" d="M140.4 122.2l.6 4.2a5 5 0 009.2 1.2c.6-1.2.8-2.6.5-3.9l-.7-4.2a5 5 0 00-9.1-1.2 5.8 5.8 0 00-.5 3.9zM150.2 148.4c6.5 0 6.5-10 0-10-6.4 0-6.4 10 0 10z"/><path fill="#231F20" d="M148.2 139c6.5 0 6.5-10 0-10-6.4 0-6.4 10 0 10zM154 181.2c6.4 0 6.5-10 0-10-6.4 0-6.4 10 0 10zM146.2 167c6.5 0 6.5-10 0-10-6.4 0-6.4 10 0 10z"/><path fill="#231F20" d="M143 163c6.5 0 6.5-10 0-10-6.4 0-6.4 10 0 10z"/><path fill="#231F20" d="M141.4 158.4c6.5 0 6.5-10 0-10-6.4 0-6.4 10 0 10z"/><path fill="#231F20" d="M152.8 157.4c6.5 0 6.5-10 0-10-6.4 0-6.4 10 0 10z"/><path fill="#231F20" d="M154.8 163.8c6.4 0 6.5-10 0-10-6.4 0-6.4 10 0 10z"/><path fill="#231F20" d="M155.2 170c6.5 0 6.5-10 0-10-6.4 0-6.4 10 0 10z"/><path fill="#231F20" d="M157.2 176c6.5 0 6.5-10 0-10-6.4 0-6.4 10 0 10z"/><path fill="#231F20" d="M157.4 179.2c6.4 0 6.5-10 0-10-6.4 0-6.4 10 0 10z"/><path fill="#231F20" d="M153 183.9c4.5 0 4.5-7 0-7s-4.5 7 0 7z"/><path fill="#231F20" d="M154.5 183c4.5 0 4.5-7 0-7s-4.5 7 0 7z"/><path fill="#231F20" d="M156.1 182c4.5 0 4.5-7 0-7s-4.5 7 0 7z"/><path fill="#231F20" d="M157.6 181c4.5 0 4.5-7 0-7s-4.5 7 0 7z"/><path fill="#231F20" d="M159.8 179c4.5 0 4.5-7 0-7s-4.5 7 0 7z"/><path fill="#231F20" d="M160.9 178.5c4.5 0 4.5-7 0-7-4.6 0-4.5 7 0 7z"/><path fill="#231F20" d="M160.3 176.3c4.5 0 4.5-7 0-7s-4.5 7 0 7zM142.4 165.4c3.2 0 3.2-5 0-5-3.3 0-3.3 5 0 5z"/><path fill="#231F20" d="M141.8 166a28 28 0 012.1 2.3l-.4-.5.5.6c.1.3.3.5.6.7.2.2.5.4.8.4.4.1.7.2 1 0a2 2 0 001-.2c.5-.3 1-.9 1.1-1.5l.1-.7-.3-1.2c-1-1.3-1.9-2.4-3-3.5a2.4 2.4 0 00-2.7-.5c-.3 0-.6.2-.8.5-.4.4-.7 1-.7 1.8 0 .6.3 1.2.7 1.7z"/><path fill="#231F20" d="M143.7 168.7l2.5 3.5.7.7.8.5h1c.4 0 .7-.1 1-.3a2.5 2.5 0 00.9-3.4l-2.6-3.5a2 2 0 00-.7-.7c-.2-.3-.5-.4-.8-.5a2 2 0 00-1 0 2 2 0 00-1 .3 2.5 2.5 0 00-1.2 2.5l.3 1v-.1z"/><path fill="#231F20" d="M146.2 173.1l1.2 2 .6.7.9.4h1c.3 0 .6 0 .9-.3l.5-.3c.3-.4.5-.7.6-1.2l.1-.6c0-.5 0-.9-.3-1.3l-1.2-1.9-.7-.7a2 2 0 00-.8-.5h-1l-1 .3-.4.4c-.3.3-.6.7-.7 1.1v.7c0 .4 0 .9.3 1.3z"/><path fill="#231F20" d="M149.7 177.4c3.2 0 3.3-5 0-5-3.2 0-3.2 5 0 5z"/><path fill="#231F20" d="M150.7 179.5c3.2 0 3.2-5 0-5s-3.2 5 0 5z"/><path fill="#231F20" d="M151 180.4c3.2 0 3.2-5 0-5-3.3 0-3.3 5 0 5zM156.1 160.8c1 3.4 1.8 6.9 2.7 10.3a2.5 2.5 0 104.8-1.3l-2.7-10.4a2.5 2.5 0 10-4.8 1.4z"/><path fill="#231F20" d="M161.9 174.9c3.2 0 3.2-5 0-5s-3.2 5 0 5zM132.4 134.8c.4 4.3 1 8.5 1.7 12.8.6 3.9 1 8 3.4 11.1a2.5 2.5 0 003.5 0 2.6 2.6 0 000-3.5 9 9 0 01-1.3-3.8l-.9-5.6-1.4-11a2.6 2.6 0 00-2.5-2.5 2.5 2.5 0 00-2.5 2.5zM152.1 139.1c3.2 0 3.2-5 0-5s-3.2 5 0 5z"/><path fill="#231F20" d="M152.9 141.7c3.2 0 3.2-5 0-5-3.3 0-3.3 5 0 5z"/><path fill="#231F20" d="M153.4 144.3c3.3 0 3.3-5 0-5-3.2 0-3.2 5 0 5z"/><path fill="#231F20" d="M153.8 146.6c3.2 0 3.2-5 0-5-3.3 0-3.3 5 0 5z"/><path fill="#231F20" d="M154.3 148.5c3.3 0 3.3-5 0-5-3.2 0-3.2 5 0 5z"/><path fill="#231F20" d="M155.1 150.5c3.2 0 3.2-5 0-5s-3.2 5 0 5z"/><path fill="#231F20" d="M156 153.4c3.3 0 3.3-5 0-5-3.2 0-3.2 5 0 5z"/><path fill="#231F20" d="M156.8 156.7c3.2 0 3.2-5 0-5-3.3 0-3.3 5 0 5z"/><path fill="#231F20" d="M156.9 157.3c3.2 0 3.2-5 0-5s-3.2 5 0 5zM149.4 130.2c3.2 0 3.2-5 0-5s-3.2 5 0 5z"/><path fill="#231F20" d="M150.1 132.3c3.2 0 3.2-5 0-5s-3.2 5 0 5zM129.4 109.1l1.2 2.4-.3-.6.9 2.4c.1.6.6 1.2 1.1 1.5a2.5 2.5 0 003.4-.9c.4-.6.5-1.3.3-2-.5-1.8-1.3-3.6-2.3-5.3-.3-.6-.9-1-1.5-1.2a2.5 2.5 0 00-2.8 3.7z"/><path fill="#231F20" d="M130.5 113c0 3 .4 5.9 1 8.8a2.5 2.5 0 003.1 1.8 2.6 2.6 0 001.8-3.1l-.7-3.5.1.7-.3-4.8a2.5 2.5 0 10-5 0z"/><path fill="#231F20" d="M134.3 126.3c3.3 0 3.3-5 0-5-3.2 0-3.2 5 0 5z"/><path fill="#231F20" d="M134.4 129c3.2 0 3.2-5 0-5s-3.2 5 0 5z"/><path fill="#231F20" d="M134.8 132.8c3.2 0 3.2-5 0-5s-3.2 5 0 5z"/><path fill="#231F20" d="M134.7 132c3.2 0 3.2-5 0-5-3.3 0-3.3 5 0 5z"/><path fill="#231F20" d="M134.8 134.3c3.2 0 3.2-5 0-5s-3.2 5 0 5zM121 91.3l2.6 3.2c.4.5 1 .7 1.7.7.4 0 .7 0 1-.2.3 0 .6-.3.8-.5.5-.5.8-1.1.8-1.8l-.1-.6c-.1-.4-.4-.8-.7-1.1l-2.6-3.3c-.4-.4-1-.7-1.7-.7-.4 0-.7 0-1 .2l-.8.5a2.5 2.5 0 00-.8 1.8l.1.7c.1.4.4.8.7 1z"/><path fill="#231F20" d="M123.5 95l2.4 3.7c.3.6.8 1 1.5 1.2h1l.9-.3a2.5 2.5 0 00.9-3.5l-2.3-3.6c-.4-.5-1-1-1.5-1.1-.4-.1-.7-.2-1 0-.4 0-.7 0-1 .2-.5.4-1 .9-1.1 1.5-.2.7-.1 1.4.2 2z"/><path fill="#231F20" d="M128.9 102c3.2 0 3.2-5 0-5s-3.2 5 0 5z"/><path fill="#231F20" d="M129.7 104.3c3.3 0 3.3-5 0-5-3.2 0-3.2 5 0 5z"/><path fill="#231F20" d="M130.4 106.8c3.3 0 3.3-5 0-5-3.2 0-3.2 5 0 5zM134.8 75.3c3.2 0 3.2-5 0-5s-3.2 5 0 5z"/><path fill="#231F20" d="M135.2 78.2c3.2 0 3.2-5 0-5s-3.2 5 0 5z"/><path fill="#231F20" d="M135.9 80.5c3.2 0 3.2-5 0-5-3.3 0-3.2 5 0 5z"/><path fill="#231F20" d="M136.8 83.3c3.3 0 3.3-5 0-5-3.2 0-3.2 5 0 5z"/><path fill="#231F20" d="M137.7 86c3.3 0 3.3-5 0-5-3.2 0-3.2 5 0 5z"/><path fill="#231F20" d="M138.2 89c3.2 0 3.2-5 0-5s-3.2 5 0 5z"/><path fill="#231F20" d="M139.2 91.6c3.2 0 3.2-5 0-5-3.3 0-3.3 5 0 5z"/><path fill="#231F20" d="M139.9 94.3c3.2 0 3.2-5 0-5-3.3 0-3.3 5 0 5z"/><path fill="#231F20" d="M140.4 97c3.2 0 3.2-5 0-5-3.3 0-3.3 5 0 5z"/><path fill="#231F20" d="M141 99.5c3.3 0 3.3-5 0-5-3.2 0-3.2 5 0 5z"/><path fill="#231F20" d="M141.7 102.3c3.2 0 3.2-5 0-5s-3.2 5 0 5z"/><path fill="#231F20" d="M142.6 104.3c3.2 0 3.2-5 0-5s-3.2 5 0 5z"/><path fill="#231F20" d="M143 107c3.2 0 3.2-5 0-5-3.3 0-3.3 5 0 5z"/><path fill="#231F20" d="M143.6 109.2c3.3 0 3.3-5 0-5-3.2 0-3.2 5 0 5z"/><path fill="#231F20" d="M144 111.1c3.3 0 3.3-5 0-5-3.1 0-3.1 5 0 5z"/><path fill="#231F20" d="M144.4 112c3.2 0 3.2-5 0-5s-3.2 5 0 5z"/><path fill="#231F20" d="M144.5 113c3.2 0 3.2-5 0-5-3.3 0-3.3 5 0 5z"/><path fill="#231F20" d="M145.6 114.8c3.2 0 3.3-5 0-5-3.2 0-3.2 5 0 5z"/><path fill="#231F20" d="M146.3 118.3c3.2 0 3.2-5 0-5-3.3 0-3.3 5 0 5zM132.4 67c3.2 0 3.2-5 0-5-3.3 0-3.3 5 0 5z"/><path fill="#231F20" d="M132.9 69.8c3.2 0 3.2-5 0-5-3.3 0-3.3 5 0 5z"/><path fill="#231F20" d="M133.8 72.4c3.2 0 3.2-5 0-5-3.3 0-3.3 5 0 5zM113.5 84.5c3.2 0 3.2-5 0-5-3.3 0-3.3 5 0 5z"/><path fill="#231F20" d="M115.3 85.7c3.2 0 3.2-5 0-5s-3.2 5 0 5z"/><path fill="#231F20" d="M116.8 87c3.3 0 3.3-5 0-5-3.2 0-3.2 5 0 5z"/><path fill="#231F20" d="M118.3 88.2c3.2 0 3.3-5 0-5-3.2 0-3.2 5 0 5zM114 81.5c3.1 0 3.1-5 0-5-3.3 0-3.3 5 0 5z"/><path fill="#231F20" d="M114.5 79.1c3.3 0 3.3-5 0-5-3.2 0-3.2 5 0 5z"/><path fill="#231F20" d="M115.3 76.5c3.2 0 3.2-5 0-5s-3.2 5 0 5z"/><path fill="#231F20" d="M116.2 73c3.2 0 3.2-5 0-5-3.3 0-3.3 5 0 5zM111.2 83.8a.5.5 0 100-1 .5.5 0 000 1z"/><path fill="#231F20" d="M118.5 68.8c.8-3.6 1.8-7.1 2.9-10.6a2 2 0 00-2.2-2.5 2 2 0 00-1.7 1.4c-1 3.5-2 7-2.8 10.6a2 2 0 103.8 1z"/><path fill="#231F20" d="M121.5 56.3c.6-4 1.6-7.9 3.1-11.6a2 2 0 00-2.9-2.3 2 2 0 00-1 1.2 49 49 0 00-3 11.6 2 2 0 001.3 2.5 2 2 0 002.5-1.4z"/><path fill="#231F20" d="M123.6 44c2.6 0 2.6-4 0-4s-2.6 4 0 4z"/><path fill="#231F20" d="M121.7 43l.2 8.5c.1 4.5 7.1 4.5 7 0l-.2-8.4c-.1-4.5-7.1-4.6-7 0z"/><path fill="#231F20" d="M123 43.5c0 3.7.5 7.4 1.6 11 1.3 4.2 8 2.4 6.8-2-1-2.9-1.4-6-1.5-9 0-4.5-7-4.5-7 0z"/><path fill="#231F20" d="M125.5 56.1c.2 1.8.5 3.5.9 5.3a3.5 3.5 0 006.7-2l-.4-2-.2-.8V56c-.2-1.8-1.5-3.6-3.5-3.5-1.8 0-3.7 1.6-3.5 3.5z"/><path fill="#231F20" d="M130.2 64.8c4.5 0 4.5-7 0-7s-4.5 7 0 7zM122.4 35.5v1.4l.1-.6c-.2 1-.5 2-1 3l-1.3 3.3a2.5 2.5 0 003.7 2.8A3 3 0 00125 44l1.6-4c.7-1.4 1-3 .8-4.4 0-.7-.2-1.3-.7-1.8a2.5 2.5 0 00-4.3 1.8z"/><path fill="#231F20" d="M123 29.8l-1.8 9.7c-.1.6 0 1.3.3 1.9.3.5.9 1 1.5 1.1a2.5 2.5 0 003-1.7l1.8-9.7c.2-.7.1-1.3-.2-2a2.5 2.5 0 00-4.6.7z"/><path fill="#231F20" d="M123.2 34.3c.1 2.6.6 5.3 1.3 7.9a2.5 2.5 0 004 1.3 2.5 2.5 0 00.8-2.7l-1-4.3.2.7-.3-3a2.5 2.5 0 10-5 0zM124.7 18.8l-.2 9.8a.5.5 0 00.5.5.5.5 0 00.5-.5l.2-9.8a.5.5 0 00-.5-.5.5.5 0 00-.5.5z"/><path fill="#231F20" d="M125.4 22v6.3c0 .7 1 .7 1 0V22c0-.7-1-.7-1 0z"/><path fill="#231F20" d="M126 25.6v4a.5.5 0 00.5.5.5.5 0 00.5-.5v-4a.5.5 0 00-.5-.5.5.5 0 00-.5.5zM123.9 21.8v7a.5.5 0 00.5.4.5.5 0 00.5-.5v-7a.5.5 0 00-.5-.4.5.5 0 00-.5.5z"/><path fill="#231F20" d="M123.3 26.3c.1 1 0 2-.1 3h1v-1.2a.5.5 0 00-.1-.4.5.5 0 00-1 0 4 4 0 000 2 .5.5 0 00.6.4.5.5 0 00.5-.5c.2-1 .3-2.2.2-3.3a.5.5 0 00-.5-.5.5.5 0 00-.5.5zM165.4 175.6v-.5l-1 .1.1 1v-.1.2-.2l.1-.1.1-.1H164.8c-.1 0-.2 0-.3.2a.5.5 0 00.2.7.7.7 0 00.8-.2.9.9 0 00.2-.7l-.2-1a.5.5 0 00-.5-.4.5.5 0 00-.4.5v.5l.1.4h.2l.2.1.3-.1.2-.4h-.2zM151 187l3.6-2.6a.5.5 0 00-.1-.9h-.4l-3.6 2.7a.5.5 0 000 .9h.5z"/><path fill="#231F20" d="M150 183.4c0 1 0 1.8.4 2.7a.5.5 0 00.7.3l.2-.2.3-.5s.1-.2 0 0l.2-.3.4-.4h.1v-.1l.3-.2.2-.2v-.4a.5.5 0 00-.6-.3h-.5c-.2 0 0 0 0 0h-.5a.5.5 0 00-.6.3v.4l.3.2c.5.2 1 .2 1.6.1l-.4-.9c-.7.5-1.3 1.1-1.7 1.9h1l-.2-.5v-1.8l-.2-.4-.4-.1-.3.1-.2.4zM100.8 30.5c2.2-2.6 4-5.5 5.7-8.5 1.3-2.6.7-6.1-2-7.6-2.5-1.3-6.2-.7-7.5 2a40.6 40.6 0 01-3.3 5.4l-.6.9a3 3 0 00-.1 0c-1.8 2.3-2.4 5.7 0 7.9 2 1.8 5.8 2.3 7.8 0z"/><path fill="#231F20" d="M91.2 40c7.1 0 7.1-11 0-11-7 0-7 11 0 11z"/><path fill="#231F20" d="M92 37.7c7 0 7-11 0-11-7.1 0-7.1 11 0 11z"/><path fill="#231F20" d="M92.7 35.4c7 0 7-11 0-11-7.1 0-7.1 11 0 11z"/><path fill="#231F20" d="M95.3 31.1c7.1 0 7.1-11 0-11-7 0-7 11 0 11z"/><path fill="#231F20" d="M97.6 29c7.1 0 7.1-11 0-11-7 0-7 11 0 11zM97.5 42.8c7 0 7-11 0-11-7.1 0-7.1 11 0 11zM105.1 18.9c6.4 0 6.5-10 0-10-6.4 0-6.4 10 0 10z"/><path fill="#231F20" d="M93.9 41.8c3.9 0 3.9-6 0-6s-3.9 6 0 6z"/><path fill="#231F20" d="M97.5 44.8c3.8 0 3.8-6 0-6-4 0-4 6 0 6z"/><path fill="#231F20" d="M95.2 45.1c.8 1 .6 2.6.5 3.8l-1.1 5.3L92 66.3c-.6 2.5 3.3 3.6 3.8 1l3-13.8c.8-3.8 2-8-.8-11.2-1.7-2-4.5.9-2.8 2.8z"/><path fill="#231F20" d="M95.4 67.2l-.1-2.2v-1.6-.2c0 .3 0 .3 0 0a16.8 16.8 0 01.9-3c0-.1.1-.6 0-.1l.2-.6a2 2 0 10-3.4-2c-1.5 3-2 6.4-1.7 9.7 0 .5.2 1 .6 1.4a2 2 0 001.4.6c1 0 2.2-.9 2-2h.1zM99 41.3l-2.4 10.6a2 2 0 003.8 1l2.5-10.6a2 2 0 10-3.9-1.1z"/><path fill="#231F20" d="M98 56.4c2.5 0 2.5-4 0-4-2.6 0-2.6 4 0 4z"/><path fill="#231F20" d="M97.3 59.6c2.5 0 2.6-4 0-4s-2.6 4 0 4z"/><path fill="#231F20" d="M96 63.2c2.6 0 2.6-4 0-4-2.5 0-2.5 4 0 4z"/><path fill="#231F20" d="M95.5 64.4c2.6 0 2.6-4 0-4s-2.6 4 0 4zM96 20.3c2.6 0 2.6-4 0-4-2.5 0-2.5 4 0 4z"/><path fill="#231F20" d="M97.6 18.7c2.6 0 2.6-4 0-4-2.5 0-2.5 4 0 4z"/><path fill="#231F20" d="M100 16.3c2.5 0 2.5-4 0-4-2.6 0-2.6 4 0 4z"/><path fill="#231F20" d="M98.5 17.6c2.6 0 2.6-4 0-4-2.5 0-2.5 4 0 4zM107.2 10.8c1.8-1 3.3-2.2 4.6-3.7.4-.4.6-.9.6-1.4a2 2 0 00-2.7-1.9 2 2 0 00-.7.5 15 15 0 01-2.2 2l.4-.3-2 1.4a2 2 0 102 3.5z"/><path fill="#231F20" d="M110.4 8.8c2.6 0 2.6-4 0-4-2.5 0-2.5 4 0 4z"/><path fill="#231F20" d="M110 10.5c2.7 0 2.7-4 0-4-2.5 0-2.5 4 0 4z"/><path fill="#231F20" d="M109.5 13.2c2.6 0 2.6-4 0-4-2.5 0-2.5 4 0 4z"/><path fill="#231F20" d="M110 12.3c2.7 0 2.7-4 0-4-2.5 0-2.5 4 0 4z"/><path fill="#231F20" d="M109.4 14.4c2.5 0 2.5-4 0-4-2.6 0-2.6 4 0 4zM106 17.3c-.8 4-2.3 8-4.3 11.6-2 3.7-3.5 8-1.3 12 .8 1.4 3.3 1.2 3.6-.5a65.8 65.8 0 013-11.1 2 2 0 00-2.3-1.7A2 2 0 00103 29a66.6 66.6 0 00-2.8 10.3l3.6-.5c-1.7-3.2.9-6.8 2.3-9.6a41 41 0 003.7-11 2 2 0 00-1.4-2.4 2 2 0 00-2.4 1.5zM95.4 43.8c2.6 0 2.6-4 0-4-2.5 0-2.5 4 0 4zM84.6 35.4l-.3 1H88v-.1V36v.6l.2-.8-.2.5.2-.3-3.7-1-.2 2.3v-.5c0 .4 0 .9-.2 1.3l-.2 1a2.4 2.4 0 00.7 1.7 2.4 2.4 0 002.2.6l.6-.1 1.3-.4c.5-.1 1-.5 1.2-1 .3-.4.4-1 .2-1.4a2 2 0 00-2.4-1.5l-2 .5H86.8l.5.3.3.3.3.4.2.5v-.2l.1.6v-.2.5l.2-1a23.7 23.7 0 00.4-3.6l-.1-.5c0-.3-.2-.5-.4-.7a2 2 0 00-1-.7 2 2 0 00-2.2 1c-.3.4-.5.9-.6 1.4l-.1 1 .1 1 .2.4c.1.3.3.5.5.6.4.3.8.4 1.2.4.4 0 .7 0 1-.2a2 2 0 001-1.2l.3-1a2 2 0 00-2.9-2.2l-.4.3a2 2 0 00-.5.9l-.2-.2z"/><path fill="#231F20" d="M85.3 42c2.6 0 2.6-4 0-4s-2.6 4 0 4z"/><path fill="#231F20" d="M84.5 42.5v-2a.5.5 0 00-1-.1l-.7 3 1 .1a1.2 1.2 0 01.7-1.2l-.7-.4-.6 3.3 1 .3c.2-1 .6-1.8 1.2-2.6l-1-.4-.4 1.8c-.2.6.7.8 1 .2.3-.8.8-1.6 1.5-2.2.4-.4-.2-1.1-.6-.8-2.3 1.5-2.7 4.2-3 6.7h1c-.1-1.6 0-3.1.2-4.7.1-.6-.8-.9-1-.3a23 23 0 00-.3 5 .5.5 0 001 0c.3-2 .7-4.5 2.6-5.8l-.6-.8c-.8.7-1.4 1.7-1.8 2.7l1 .2.5-1.8c.2-.6-.6-.8-.9-.4-.6.9-1 1.9-1.3 2.9-.1.6.8.9 1 .3l.6-3.6c0-.5-.5-.6-.8-.5a2.2 2.2 0 00-1.2 2.2.5.5 0 001 0l.7-3-1-.2v2a.5.5 0 001 0l-.1.1zM112 3.8l-1.3.7.7.5V5 5l.1-.2.1-.1h.2a.5.5 0 00.4-.5V4a.5.5 0 00-.7-.3 1.5 1.5 0 00-1 1 .5.5 0 00.1.6.5.5 0 00.6 0l1.3-.7a.5.5 0 00.2-.7.5.5 0 00-.7-.2z"/><path fill="#231F20" d="M113.4 1.6a56.1 56.1 0 00-2.7 2.4s0 .2.2.3a.5.5 0 00.7 0l.8-.6.4-.3.2-.1-.3-.1-.1-.2c0-.2 0-.2 0 0V3l-.2.3-.2.6-.4 1.3a.5.5 0 000 .3.5.5 0 00.4.3.5.5 0 00.6-.4l.8-2.2a.5.5 0 00-.3-.6.5.5 0 00-.6.3c-.4 1-.7 2-.8 3.2a.5.5 0 00.5.5.5.5 0 00.5-.5c.1-1 .3-2 .7-2.9l-1-.3-.8 2.3 1 .2.5-1.5.3-.7a.8.8 0 00-.1-.8c-.4-.4-1-.1-1.3.1l-1.3 1 .7.7a101.3 101.3 0 012.6-2.1v-.4a.5.5 0 00-.8-.2zM97.7 60a.5.5 0 100-1 .5.5 0 000 1zM93.8 70.7a1.5 1.5 0 100-3 1.5 1.5 0 000 3z"/><path fill="#231F20" d="M91.5 69v3a1.5 1.5 0 001 1.5h.9a1.4 1.4 0 00.9-.7l1.4-3.2.2-.5v-.6a1.5 1.5 0 00-1.9-1 1.5 1.5 0 00-.9.6l-1.4 3.2 2.8.8v-3c0-.4-.2-.8-.4-1.1a1.5 1.5 0 00-2.6 1z"/><path fill="#231F20" d="M92.8 73.7l-.1 1.9a.5.5 0 00.8.5l.2-.4c.2-.9.5-1.7 1-2.5l-.9-.5c-.4 1-.8 2.1-1 3.3l.8-.2a2.6 2.6 0 01-.8-2.5h-1c.6 1.7.9 3.4.7 5.1 0 .6 1 .6 1 0 .2-1.8-.1-3.6-.8-5.3-.1-.4-.8-.5-1 0a3.6 3.6 0 001.1 3.4.5.5 0 00.9-.3c.2-1 .5-2 1-3a.5.5 0 00-.2-.7.5.5 0 00-.7.2 10 10 0 00-1 2.8l1 .1v-2c0-.6-1-.6-1 0zM175.7 119.6l.7-1.8-.3.4c.6-1.4 1.4-2.7 2.3-3.9a2 2 0 00-2.2-3c-.5.2-1 .5-1.2 1-1.4 1.9-2.5 4-3.2 6.2a2 2 0 103.9 1z"/><path fill="#231F20" d="M175.8 108.2c-1 3.7-2 7.4-2.6 11.2-.7 3.7-.3 7.5 1.2 11a2 2 0 001.2.9 2 2 0 002.4-1.4c.2-.5 0-1-.2-1.6a14.7 14.7 0 01-.5-9c.6-3.4 1.5-6.8 2.3-10 .6-2.6-3.2-3.6-3.8-1.1z"/><path fill="#231F20" d="M169.8 119.7c1.5 5.2 3.2 10.4 5.2 15.4a2 2 0 002.5 1.4 2 2 0 001.4-2.4c-2-5-3.8-10.2-5.2-15.5-.7-2.5-4.6-1.4-3.9 1z"/><path fill="#231F20" d="M171.4 126c.7 5.7 2.2 11.2 4.6 16.5a2 2 0 002.7.7 2 2 0 00.7-2.7c-2-4.6-3.4-9.5-4-14.6a2 2 0 00-2-2 2 2 0 00-2 2z"/><path fill="#231F20" d="M173 138c1.4 3.4 2.1 7 2.3 10.8a2 2 0 004 .6l2.7-12.7a2 2 0 00-3.9-1l-2.7 12.6 4 .5a37 37 0 00-2.6-12 2 2 0 00-2.4-1.4 2 2 0 00-1.4 2.4v.1z"/><path fill="#231F20" d="M176 130c.3 1.8 1 3.6 2 5.3a2 2 0 003.5-2 12 12 0 01-1-2l.2.4a13 13 0 01-.9-2.9 2 2 0 00-3.6-.4l-.2.4a2 2 0 000 1.1zM178 108a30.9 30.9 0 01.2 6.7l-.1 1.1v.2l-.1.7a2 2 0 002.9 2.2 2 2 0 001-1.2c.5-3.2.6-6.4.2-9.7a2 2 0 00-2-2c-1 0-2.1.9-2 2z"/><path fill="#231F20" d="M176.8 118.6c-.5 3.1-.7 6.3-.5 9.4a2 2 0 004 0v-4.3l.1-2.2.2-1v-.1-.7c.2-.5.1-1-.1-1.5a2 2 0 00-3.7.5zM177.8 152.5c2.6 0 2.6-4 0-4s-2.6 4 0 4z"/><path fill="#231F20" d="M177.4 152.7v1.5l2-.5-1.2-2.3a1 1 0 00-1.8.5c0 2 .2 4 .5 6a1 1 0 001 .7 1 1 0 001-1v-.3a1 1 0 00-1.8-.7 1 1 0 00-.3.7v.3l2-.3v-.5-.7a31.6 31.6 0 01-.3-4.2l-1.9.5 1.1 2.3a1 1 0 001.1.5 1 1 0 00.8-1v-1.6a1 1 0 00-1.7-.7 1 1 0 00-.3.7h-.2zM177.3 92.3a25 25 0 002.5 14.6l1.1-1.5a.8.8 0 01-.7-.7c-.3-1.2-2.2-.7-1.9.6a2.7 2.7 0 002.1 2 1 1 0 001.1-1.4c-2-4.2-2.9-9-2.2-13.6 0-.6-.6-1-1-1a1 1 0 00-1 1z"/><path fill="#231F20" d="M178 103.8a3 3 0 00-2.2 3.2 1.5 1.5 0 001.3 1.5 1.5 1.5 0 001.6-1.1c.8-3.3 1-6.8.5-10.1a1.5 1.5 0 00-1.9-1 1.5 1.5 0 00-1 1.8 22 22 0 01-.5 8.5l3 .4v-.3.2c0-.2 0-.2 0 0v-.2c.1 0 .1 0 0 0s-.1 0 0 0a1.5 1.5 0 001.2-1.8 1.5 1.5 0 00-2-1zM55.5 174.8c2.6 0 2.6-4 0-4-2.5 0-2.5 4 0 4z"/><path fill="#231F20" d="M53.3 171.4c-1 5.3-.8 10.7.5 16a2 2 0 103.8-1 32.7 32.7 0 01-.5-14 2 2 0 00-1.3-2.4 2 2 0 00-2.2.7 2 2 0 00-.3.7z"/><path fill="#231F20" d="M49.2 153.1c0 6.3 1.3 12.6 4 18.3a2 2 0 003.4-2 39.9 39.9 0 01-3.4-16.3c0-2.5-4-2.5-4 0z"/><path fill="#231F20" d="M50.1 146.3l-.2 4.4a1 1 0 102 0l.2-4.4a1 1 0 10-2 0z"/><path fill="#231F20" d="M49.5 133.5A105 105 0 0050 145a1 1 0 001.7-.8c-.2-3.5-.3-7-.2-10.6 0-1.3-2-1.3-2 0zM249.5 126.6c2.6 0 2.6-4 0-4s-2.6 4 0 4z"/><path fill="#231F20" d="M248.8 123h.6l.3.1.3.3-.1-.1.2.3.2.3v-.1V124.3l-.2.4.1-.2-.2.3s.1-.2.3-.2l-.4.2.7-.5.4-.5a3.5 3.5 0 00.7-1.2v-.6l-.2-.6a1.5 1.5 0 00-1.5-.7l-.6.2-.3.2-.4.7.2-.3-.4.7.3-.3-.6.5.3-.3-.6.6-.5.8a1.8 1.8 0 000 1l.1.5.4.5a1.9 1.9 0 001.2.5l.5-.1c.2 0 .4-.1.5-.3.2 0 .3-.2.4-.4a1.5 1.5 0 00-.5-2 1.5 1.5 0 00-1.2-.1v-.1zM251 117a1.5 1.5 0 100-3.1 1.5 1.5 0 000 3z"/><path fill="#231F20" d="M254.4 107.3a.6.6 0 01.1-.5l-1.8-.8-3.3 8.5c-.4 1 1.4 1.8 1.9.8l2.5-5.5a1 1 0 00-.4-1.4 1 1 0 00-1.3.4l-2.6 5.5 1.9.7 3.2-8.5a1 1 0 00-1.8-.7c-.3.4-.4 1-.4 1.5a1 1 0 001.7.7c.2-.2.3-.5.3-.7z"/><path fill="#231F20" d="M254.5 106a1 1 0 00.7-1.7 1 1 0 00-1.7.8 1 1 0 001 1zM255.2 102a1 1 0 00.7-1.6 1 1 0 00-1.7.7 1 1 0 001 1zM253.5 158a1 1 0 00.7-1.7 1 1 0 00-1.7.7 1 1 0 001 1zM252.3 140.7v9.6a1 1 0 001.7.7c.2-.2.3-.4.3-.7v-9.6a1 1 0 00-1.7-.7 1 1 0 00-.3.7zM403 124.1l12.7-2.8c6.3-1.5 3.6-11-2.7-9.7l-12.6 2.9c-6.3 1.4-3.6 11 2.6 9.6z"/><path fill="#231F20" d="M406.5 122.3a24 24 0 0012.5-2.6c2.4-1.2 3-4.6 1.8-6.8a5.1 5.1 0 00-6.9-1.8 14 14 0 01-7.4 1.2c-2.7-.2-5 2.5-5 5a5.1 5.1 0 005 5z"/><path fill="#231F20" d="M412.2 121c6.4 0 6.5-10 0-10-6.4 0-6.4 10 0 10zM365.2 121.6c12.5.6 25 1.4 37.6 2.3 5.1.4 5-7.6 0-8-12.6-1-25-1.7-37.6-2.3-5.1-.3-5.1 7.7 0 8z"/><path fill="#231F20" d="M376.7 120.5c5.5-.4 11-.5 16.6-.5 4.5 0 4.5-7 0-7-5.5 0-11 .1-16.6.5-4.5.4-4.5 7.4 0 7z"/><path fill="#231F20" d="M394.8 120.3c3.4-.4 6.7-.9 10-1.5 4.4-1 2.5-7.7-2-6.8a73 73 0 01-8 1.3 3.6 3.6 0 00-3.5 3.5c0 1.7 1.6 3.6 3.5 3.5z"/><path fill="#231F20" d="M380.3 123l13.3 3.6c4.3 1.2 6.2-5.6 1.8-6.8l-13.2-3.5c-4.4-1.1-6.2 5.6-1.9 6.8z"/><path fill="#231F20" d="M397 127c3.8.4 7.5.5 11.2.2 4.5-.4 4.5-7.4 0-7a57 57 0 01-11.1-.2c-1.9-.2-3.5 1.8-3.5 3.5a3.6 3.6 0 003.5 3.5z"/><path fill="#231F20" d="M412 126a34.8 34.8 0 0017.3-9.7c3.2-3.3-1.8-8.2-5-5-3.8 4-8.8 6.8-14.2 8-4.4 1-2.5 7.7 1.9 6.7z"/><path fill="#231F20" d="M419.5 116.3c3.7-1.1 7.3-2.7 10.6-4.8 3.8-2.4.3-8.4-3.6-6a37.7 37.7 0 01-8.9 4.1c-4.3 1.4-2.4 8.1 1.9 6.8z"/><path fill="#231F20" d="M433.5 109.4c1-.3 2-.9 2.7-1.6.3-.3.6-.7.7-1.1a3 3 0 000-2.7c-.1-.5-.4-.9-.7-1.2-.7-.6-1.5-1-2.5-1l-.9.2c-.6.1-1.1.4-1.5.9l-.3.2.7-.6a4 4 0 01-.7.4l.9-.3h-.3l-1.2.7c-.3.2-.6.6-.8 1-.3.4-.4.8-.5 1.3l.1 1.4a3.5 3.5 0 004.3 2.4z"/><path fill="#231F20" d="M430 104.5c-1 1.9-2.3 3.5-3.8 4.8l5.5.7-.1-.1a3.5 3.5 0 00-4.8-1.3 3.6 3.6 0 00-1.3 4.8l.1.2c1 2 4 2 5.5.7a23.2 23.2 0 005.5-7.6 3.5 3.5 0 00-6.6-2.2zM365 123.9l1-.6-.6.3c.6-.3 1.4-.5 2-.6l-.6.1h.1c.4 0 .7 0 1-.2a2.3 2.3 0 001.4-1.3l.2-1c0-.7-.3-1.3-.8-1.8l-.5-.4-1.2-.3a10.8 10.8 0 00-4.5 1.5c-.6.3-1 .8-1.2 1.5v1c0 .3 0 .6.2.9.4.5.9 1 1.5 1.1.7.2 1.4.1 2-.2z"/><path fill="#231F20" d="M362.4 125.3a1.5 1.5 0 100-3 1.5 1.5 0 000 3zM362.7 116.2a1.5 1.5 0 100-3 1.5 1.5 0 000 3zM441.2 94.8a21.7 21.7 0 01-6.3 5.9 1 1 0 000 1.7c.3.1.5.2.8.1a12 12 0 005.7-3.5l-1.6-1.3a24.1 24.1 0 01-4 4.5 1 1 0 001.4 1.4l4-3.2-1.6-1.1-3.6 5.7c-.7 1 1 2 1.7 1l3.6-5.7a1 1 0 00-1.5-1.3l-4 3.2 1.5 1.4c1.6-1.4 3-3 4.3-4.8.6-1-.8-2-1.6-1.2-1.3 1.4-3 2.5-4.9 3l.8 1.8c2.7-1.7 5.1-4 7-6.6a1 1 0 00-1.7-1zM411.8 30.3l9.2-.1a2 2 0 000-4h-9.2a2 2 0 000 4z"/><path fill="#231F20" d="M410.4 25c1.5.9 3 1.5 4.7 2 .7.1 1.4.3 2 .6h.3c.2.1-.4-.1-.2 0l.5.3.4.3s.3.2.1 0c-.2-.3 0 0 .1 0a2 2 0 002.8-2.8c-1.3-1-2.9-1.8-4.6-2.2l-2.1-.6-.6-.2c.1 0 .3 0 0 0l-.2-.2-1.2-.6a2 2 0 00-2.7.7 2 2 0 00.7 2.7z"/><path fill="#231F20" d="M407.9 20.4a8.8 8.8 0 011.3 2.6.5.5 0 00.6.4.5.5 0 00.3-.6c-.3-1-.8-2-1.4-2.9a.5.5 0 00-.7-.1.5.5 0 00-.1.6z"/><path fill="#231F20" d="M409.2 21.3l1.9 1.2a.5.5 0 00.5 0 .5.5 0 00.2-.4.5.5 0 00-.1-.4l-.1-.1-1.9-1.1a.5.5 0 00-.6.1.5.5 0 00.1.7zM408 20.8a.5.5 0 100-1 .5.5 0 000 1zM409 22.7c.3.8 0 1.7.3 2.5 0 .5.4.8.7 1 .3.2.5.3.8.2h.3a.5.5 0 00.6-.4.5.5 0 00-.3-.6H410.5c-.1-.2 0 0 0-.1l-.1-.1-.2-.5v-.1c0-.2 0 0 0 0v-.4-.5c0-.5 0-1-.2-1.3a.5.5 0 00-.6-.4.5.5 0 00-.3.6h-.1z"/><path fill="#231F20" d="M409 24.9v.2c0 .1 0 0 0 0v.6l.1 1a1 1 0 001 .6 1 1 0 00.8-.5.5.5 0 00-.9-.5c0-.1 0 0 0 0s.1 0 0 0c0 0 .1 0 0 0v-.1s0 .1 0 0 0-.2 0 0V26v-.2-.1l.1-.8a.5.5 0 00-.5-.5.5.5 0 00-.5.5v-.1z"/><path fill="#231F20" d="M408 28c.5-.2 1-.5 1.3-1 .3 0 .4-.3.5-.6a.8.8 0 00-.2-.8.5.5 0 00-.7 0l-.8 1c-.2.2-.4.4-.4.7-.1.4.3.6.6.6l2.7-.1a.5.5 0 00.5-.5.5.5 0 00-.5-.5H408.3h.1l.2.3v.4l.1-.1.1-.2.3-.3.6-.7h-.7v-.1a4.1 4.1 0 01-.8.6l-.2.2h-.1a.5.5 0 00-.4.6.5.5 0 00.6.4h-.1zM398.8 30.6l3.8-.5a.5.5 0 00.4-.5c0-.3-.2-.5-.4-.5l-3.8.4a.5.5 0 100 1z"/><path fill="#231F20" d="M392.4 29.8a24.7 24.7 0 007 .7.5.5 0 000-.8 1.6 1.6 0 00-1.5-.2.5.5 0 00-.4.6.5.5 0 00.7.4.7.7 0 01.6 0l.3-.9a24 24 0 01-6.4-.7.5.5 0 10-.3 1v-.1zM401.2 30c1.1 0 2.3-.2 3.4-.7a43 43 0 003.6-1.5v-.4a.5.5 0 00-.6-.3l-3 1.2-1.6.5c-.5.2-1 .3-1.6.2-.6-.1-.9.8-.2 1z"/><path fill="#231F20" d="M400 31.3a31.9 31.9 0 008.6-1c.5-.3.6-.6 1-1a.6.6 0 01.5-.2l-.5-1.9a36.4 36.4 0 01-3 1.4 1 1 0 00.1 1.6 1 1 0 00.8.1l3-1.3c1.1-.5.5-1.9-.4-1.9a2.5 2.5 0 00-2.4 1.3c0 .2 0 .2 0 0-.1.2-.3.2-.5.2a23.7 23.7 0 01-7.2.7 1 1 0 100 2z"/><path fill="#231F20" d="M405 32c2.4-.1 4.9-.4 7.3-.8a1 1 0 10-.5-2 85.2 85.2 0 01-7.5 1.1 1 1 0 00.7 1.7z"/><path fill="#231F20" d="M412.2 31.7l3.2-.7 1.6-.4h.5c.2 0 .2 0 0 0h.1c.2 0 .2 0 0 0h.3l.7-1.8a11 11 0 00-2-.1l-1.2.1-1 .3a1 1 0 00-.3 1.4c.2.4.6.6 1 .7l1 .3a1.2 1.2 0 001.2-.5 1 1 0 00-1.7-1l.3-.4c.4-.2.7 0 .4-.2h-.3l-.3-.2s-.4-.2-.2 0l.4.3v.8l-.4.6c-.2 0-.2 0 0 0h.4l.8-.1h1.5a1 1 0 00.8-1.8c-1-.8-2.6-.2-3.7 0l-3.6.9a1 1 0 00-.7 1.2 1 1 0 001.3.7l-.1-.1zM422 28l.4 1v-.2.4-.3.2-.3.2-.2.1l.2-.2h-.1.2l1 1.7 1.2-.8-.2.1.4-.1.4-.3.3-.6-.1-.5c0-.2-.2-.4-.4-.5l-.5-.2a.8.8 0 00-.4-.1h-.4a1 1 0 00-.2 1.8l.5.3.2-1.9-1.9 1a1 1 0 00-.5.6l.1.8a1 1 0 001 .5l.4-.1a1.6 1.6 0 00.7-2l-.3-.8-.3-.6a1 1 0 00-1-.5 1 1 0 00-.8.7v.8zM330.9 168c2.6 0 2.6-4 0-4s-2.6 4 0 4z"/><path fill="#231F20" d="M330 162.7a24 24 0 01-1.5 12.6l-.2.7-.2.4c-.1.2-.2.3 0 0l.8-.4h-.1 1-.2l1 .5-.2-.2v-.3-.8-3l.2-5.6c0-2.2-3.6-2.8-4-.6-.7 4.6-.9 9.2-.3 13.8a2 2 0 002 2 2 2 0 002-2c-.6-4.3-.5-8.5.2-12.7l-4-.5c0 3-.2 5.9-.1 8.8a5.1 5.1 0 001.3 4c1.4 1.2 3.3.3 4-1.2a29 29 0 002.2-16.6 2 2 0 00-3.9 1.1z"/><path fill="#231F20" d="M327.4 181.3l.3.7a2 2 0 003.3.9l8-6.6a2 2 0 000-2.9 2 2 0 00-2.8 0l-8 6.6 3.4 1-.3-.7a2 2 0 00-3.8 1z"/><path fill="#231F20" d="M333.8 152.7a214.7 214.7 0 01-.7 17.3c0 1.3-.1 2.7-1.2 3.6-1.9 1.8 1 4.6 2.9 2.9 1.2-1.3 2-3 2.2-4.7.3-2 .3-4.1.5-6.2.2-4.3.3-8.6.3-13 0-2.5-4-2.5-4 0z"/><path fill="#231F20" d="M339.3 173.3c0-5 0-9.8.3-14.7a2 2 0 00-4 0c-.3 4.9-.4 9.8-.3 14.7a2 2 0 004 0z"/><path fill="#231F20" d="M332.1 139c.8.5 2 1.3 1.7 2.5-.2.7-.7 1.4-1 2.1a8 8 0 00-.5 2.4c0 1.7.4 3.3 1.3 4.8.4.9 1.5 2.4 1 3.4a2 2 0 00.8 2.7 2 2 0 001.5.2 2 2 0 001.2-1 7 7 0 00-.4-6c-.7-1.4-1.7-2.8-1.3-4.5.2-.8.5-1.6.9-2.3.4-.9.6-2 .5-3-.4-2.2-2-3.6-3.7-4.9a2 2 0 00-2.8.8 2 2 0 00.8 2.7z"/><path fill="#231F20" d="M339.5 156.4l-.2-13a2 2 0 00-4 0l.2 13a2 2 0 004 0z"/><path fill="#231F20" d="M339.5 143.3v-1.5c0-.3 0-.6-.2-.8 0-.2-.2-.5-.4-.6l-.6-.5-.8-.1h-.5a2 2 0 00-1 .6l-.2.4a2 2 0 00-.3 1v1.5c0 .2 0 .5.2.7 0 .3.2.5.4.7.1.2.4.3.6.4l.8.2.5-.1c.4-.1.7-.3.9-.5l.3-.4c.2-.3.3-.7.3-1zM334.1 130l-2 6a2 2 0 00.7 2l.7.4a2 2 0 002.5-1.4l2-6a2 2 0 00-.7-2.1 2 2 0 00-2.2-.2 2 2 0 00-1 1.2z"/><path fill="#231F20" d="M335.6 130v10.2a2 2 0 004 0V130a2 2 0 00-4 0zM327 152.3a55 55 0 015.2-9.3l.4-.6.3-.3-1.6.2h.2l-.9-.6-.2-1c-.2.8-.4 1.5-.8 2.2l-.8 2.3a12 12 0 00-.6 5.3c.3 1.6.8 3.2 1.4 4.8.4 1.7.6 3.5.6 5.3a2 2 0 004 0c.2-3.7.3-7.4.2-11.1 0-2.6-4-2.6-4 0 .1 3.7 0 7.4-.2 11.2h4c0-1.8-.2-3.6-.5-5.4-.3-1.6-1-3-1.4-4.6-.8-3 1-5.7 1.8-8.4.6-1.8 0-4-2.2-4-1.7 0-2.8 2.2-3.6 3.4a55 55 0 00-4.7 8.6 2 2 0 00.7 2.8 2 2 0 002.7-.7z"/><path fill="#231F20" d="M327.2 153.5c-.2.3-.3.3 0 0v.1l-1.5-3.3c-.4.6-1 1.1-1.6 1.6a2.1 2.1 0 00-1 2.2l3 15.5a2 2 0 103.8-1l-3-15.6-.8 2.3c.9-.6 1.7-1.4 2.4-2.2a2 2 0 00-.3-3.1 2 2 0 00-1-.3 4.2 4.2 0 00-3.4 1.8 2 2 0 003.4 2z"/><path fill="#231F20" d="M326.6 151.8c-.3 4.3.2 8.5 1.6 12.5a2 2 0 003.9-1 26.6 26.6 0 01-1.5-11.5 2 2 0 00-4 0zM325.6 182.4v.3h4v-.8l-3.9.6v-.5 1.1c.2.6.6 1.1 1.1 1.5l1.2.3c.6 0 1.2-.3 1.6-.7a2.2 2.2 0 00.6-1.5v-.5c0-.3-.2-.5-.4-.7 0-.2-.2-.3-.3-.4-.2-.2-.5-.3-.7-.3l-.6-.1h-.5l-.7.4c-.2.2-.4.3-.5.6l-1 1.4-.2.7v.8c0 .3.2.5.4.7l.5.5a2 2 0 001.6.2l.4-.2.8-.7 1-1.4-3.8-1 .1-.5.2-.5.3-.4.4-.3.4-.2h.5-.1.5l.4.2.3.4v-.1l.3.4v-.1l.1.5v-.2V181.3l-.4-.7-.5-.5-.5-.2h-.8a1 1 0 00-.5.2c-.3 0-.5.2-.7.4a2 2 0 00-.5 1.4v.7l.1.8a1.7 1.7 0 001 1c.3.2.6.2.9.2h.5l.9-.6.3-.4c.2-.3.3-.6.3-1v-.3c0-.2 0-.5-.2-.7 0-.3-.2-.5-.4-.7l-.7-.4-.7-.2-.6.1a2 2 0 00-.9.5l-.3.4a2 2 0 00-.2 1z"/><path fill="#231F20" d="M326.6 187.5l1.6-1.7a1 1 0 00-.3-1.7 1 1 0 00-.4 0 1 1 0 00-.7.3l-1.6 1.7a1 1 0 00-.3.7 1 1 0 00.3.7 1 1 0 00.7.3 1 1 0 00.7-.3zM331.1 139.6a1 1 0 00.7-1.7 1 1 0 00-1.7.7 1 1 0 001 1zM335.6 126.7c-.1.2-.1.2 0 0-.2.2-.2.2 0 0-.2.1-.2.1 0 0l1.8 1.9a40.1 40.1 0 001.1-6.5v-1-.6c0-.2 0-.1 0 0l-.3.6-.8.2-.5-.1-.5-.6c0 .2 0 .1 0 0v-.2 3.9l.1 4.5a1.5 1.5 0 003 0l-.1-5.4v-2.7c0-1-.4-2.2-1.7-2.4-1.3-.1-2 1-2 2.1l-.3 2.6a31 31 0 01-.9 4.8c-.3 1 .7 2.3 1.9 1.9a3.3 3.3 0 002-2.2 1.5 1.5 0 00-1-1.9 1.5 1.5 0 00-1.8 1.1z"/><path fill="#231F20" d="M336.3 108.4l-.3 4.5 3-.4c-.2-.7-.3-1.4-.2-2l-3-.5.2 8.2a1.5 1.5 0 003 0l-.1-8.2a1.5 1.5 0 00-2.3-1.2c-.3.2-.6.5-.7.8a8 8 0 00.2 3.7 1.5 1.5 0 003-.4l.3-4.5a1.5 1.5 0 00-1.5-1.5 1.5 1.5 0 00-1.5 1.5z"/><path fill="#231F20" d="M337 120.4a1.5 1.5 0 100-3 1.5 1.5 0 000 3z"/><path fill="#231F20" d="M337 109.7c.1 3.1 0 6.2-.1 9.2a1.5 1.5 0 001.5 1.5 1.5 1.5 0 001.5-1.5c.2-3 .2-6.1.1-9.2a1.5 1.5 0 00-3 0z"/><path fill="#231F20" d="M339.8 106.8v-.7h-3v.4-.4c0 .3 0 .6-.2 1l.2-.4-.5.8-.1.5v.6a1.5 1.5 0 001.8 1h.4l.5-.6a5.2 5.2 0 001-3c0-.3-.2-.7-.5-1a1 1 0 00-.5-.3 1 1 0 00-.6-.2c-.4 0-.7.2-1 .5l-.3.3-.2.8v.7l.1.5c0 .2.2.4.3.5.1.2.3.3.5.3l.6.2a1.5 1.5 0 001-.5l.3-.3.2-.8v.1z"/><path fill="#231F20" d="M339 100a21 21 0 00-1.7 4.5.5.5 0 00.3.6h.3l.3-.2 1.7-2.5-1-.4a9.4 9.4 0 00-.6 3.5c0 .6.9.7 1 .1l.9-4.6a.5.5 0 00-.4-.7.5.5 0 00-.6.4l-.8 4.7 1 .1c0-1.1.2-2.2.6-3.2a.5.5 0 00-.3-.6.5.5 0 00-.6.2l-1.7 2.4.9.4c.3-1.5.9-3 1.6-4.3.3-.6-.6-1-.9-.5zM326.8 25.6a18 18 0 01-4.2 3.4l2.7 2.8 6.9-11a2 2 0 00-1.2-3c-3.9-1.4-6 4.2-7 6.8a45 45 0 00-1.7 32c.8 2.5 4.6 1.4 3.8-1a42.2 42.2 0 013.1-32.6l.7-1 .1-.2c.3-.2.3-.3 0-.1l-1.3-3-6.8 11.1a2 2 0 002.7 2.8c1.9-1.1 3.6-2.5 5-4.1 1.7-2-1-4.8-2.8-2.9z"/><path fill="#231F20" d="M319.9 49.9c.1 6.9 2.6 13.5 6.9 18.9 2.7 3.5 7.6-1.4 5-5-3.2-4-4.9-8.9-5-14 0-4.4-7-4.5-7 0v.1z"/><path fill="#231F20" d="M324.3 55.1c1.7 1 3.8 2 4 4.1.1 2.2-1.4 4.1-2.4 5.8-2.4 3.8 3.7 7.3 6 3.5 2.1-3.3 4-7 3.2-11.1-.8-4-3.9-6.4-7.3-8.3-3.9-2.2-7.4 3.8-3.5 6z"/><path fill="#231F20" d="M320 56.9c.1 2.2.7 4.4 1.6 6.5.8 1.9 1.9 3.8 2.1 6l6.5-1.9c-.6-.8-1-1.8-1-2.8a3.6 3.6 0 00-3.6-3.5c-1.7 0-3.7 1.6-3.5 3.5.2 2.2 1 4.4 2 6.4 1.8 2.7 7 1.9 6.6-1.8-.3-2.3-.9-4.5-1.8-6.5a17 17 0 01-1.9-6c-.1-4.4-7.1-4.4-7 0z"/><path fill="#231F20" d="M331.2 61.3l-2.9 5.1L327 69l-.4.7-.3.5c.3-.3.3-.4.1-.2.4-.2.4-.3.2-.2 1.5-.7 3 .5 2.7 2.3.1-.7 0-1.4-.3-2-.3-.5-.9-1-1.5-1.1-1.2-.3-2.8.3-3 1.7-.2.7-.1 1.4 0 2 .3.6.8 1 1.3 1.4a3.3 3.3 0 003.3.2c1.3-.7 2-2.3 2.7-3.5a464 464 0 004.2-8 2.5 2.5 0 00-4.6-1.5zM324 48.5a4 4 0 00.4-2v-.7.3l-.3.6.1-.2-.3.6V47l-.4.3h.1l-.6.2h.2-.7.2-.7.1l-.6-.3-.4-.4v.1l-.3-.5-.2-.5v.2l-.1-.7a13.5 13.5 0 00.3 2 6.5 6.5 0 00.7 1.4l.7.8.3.3.9.7c.6.3 1.3.4 2 .2l.8-.4c.2-.2.5-.4.6-.7a2.5 2.5 0 00-.8-3.4 3 3 0 01-.4-.3l.5.4-.6-.6.4.5a4 4 0 01-.4-.7l.2.6-.2-.9V44.6A3 3 0 00324 43c-.3-.2-.7-.3-1-.3h-1.2c-.3 0-.5.1-.8.3a3.2 3.2 0 00-1.6 2v1.8-.6.3l.2-.6c-.4.7-.5 1.4-.3 2 .2.6.6 1.2 1.1 1.5a2.5 2.5 0 003.5-.9z"/><path fill="#231F20" d="M325.7 75.3l.2.2-.2-.3.7 1.3-.2-.4.2.4.4.4c.2.2.6.3.9.3.3 0 .5 0 .8-.2.3-.2.5-.5.6-.9l.3-1.5c.1-.4 0-.8-.1-1.2-.2-.3-.5-.5-.8-.6a1.5 1.5 0 00-1.8.6 5.9 5.9 0 00-1 3.2c0 .4 0 .9.2 1.3a1.5 1.5 0 001.2 1 1.5 1.5 0 001.5-.7l.1-.3c.1-.3.1-.6 0-.8v-.2l.1.4v-1.2.4l.3-1.2-.2.3.4-.6-2.8-1.2-.2 1.5h2.8l-.5-1.1a9 9 0 00-.7-1c-.3-.3-.7-.4-1.1-.4-.4 0-.8.1-1 .4-.3.3-.5.7-.5 1v.5l.4.6z"/><path fill="#231F20" d="M328.6 84.6a67.7 67.7 0 01-.1-6.8l-.4-.2c-1.7 0-1.3 2.5-.8 3.5a.5.5 0 00.5.5.5.5 0 00.5-.5l.9-2.7-1-.1-.4 2.7c0 .3.3.5.5.5a.5.5 0 00.5-.5l.4-2.7c0-.6-.8-.6-1-.1l-1 2.7h1a4 4 0 01-.3-1.3c0-.2 0-1 .3-1l-.6-.5v6.5c0 .7 1 .7 1 0zM334.1 55a6.7 6.7 0 011 5.3c-.1.6.9.9 1 .3a7.8 7.8 0 00-1-6c-.4-.6-1.2 0-.9.5zM324.4 35a6 6 0 01-.5 2.4 71.6 71.6 0 00-.6 9.8c0 1.9 3 1.9 3 0a61.4 61.4 0 01.7-9.7c.4-1 .5-2.2.3-3.3a1.5 1.5 0 00-1.8-1 1.5 1.5 0 00-1 1.9z"/><path fill="#231F20" d="M328.2 35.4v-.1c.2-.4 0 .2 0 0l.2-.4.4-.8.5-.8.3-.3v-.2h.2c-.2.1 0 0 0 0v-.2l.4-.4.6-.7 1.2-1.3a1.5 1.5 0 00-1.8-2.4 45.4 45.4 0 00-5.2 4.3 1.5 1.5 0 000 2.1 1.5 1.5 0 002.1 0 46 46 0 012.3-2l.6-.6.3-.2.2-.1.2-.2.3-.2.7-.5-1.8-2.4c-2 1.9-3.6 4.1-4.6 6.6a1.5 1.5 0 001 1.9 1.5 1.5 0 001.8-1z"/><path fill="#231F20" d="M331 32.4l3.2-4.5-2.7-1.1c0 .3-.2.6-.3.8v.1l-.2.3a1.5 1.5 0 000 2.1 1.5 1.5 0 002.1 0 11 11 0 001.9-2.3c.5-.9.7-2 .7-3v-1.4l.1-1.5c0-1.2-.7-2.5-2.1-2.6-1.3 0-2 1-2.6 2a185 185 0 00-3.5 9.1l3 .8c.3-1.8 1-3.5 2-5a1.5 1.5 0 10-2.6-1.6 21 21 0 00-2.4 5.8 1.5 1.5 0 003 .8c.4-1.6 1-3.1 1.6-4.7.4-1.5 1-2.9 1.8-4.1l.2-.3-1.4-.2c0-.2 0-.1 0 0v.9V25c0 .6-.2 1.2-.5 1.6l-1.2 1.4 2 2.1c.7-.7 1.1-1.6 1.4-2.5a1.5 1.5 0 00-2.8-1.2l-3.3 4.5a1.5 1.5 0 00.6 2 1.5 1.5 0 002-.5z"/><path fill="#231F20" d="M330.4 19a74.6 74.6 0 014.2-6.7l-2.5-1.5-1.5 9a1.5 1.5 0 002.8.9l1.2-4.4-3-.4.6 4.8a1.5 1.5 0 001.5 1.5c.8 0 1.6-.7 1.5-1.5l-.5-4.8a1.5 1.5 0 00-1.3-1.5 1.5 1.5 0 00-1.7 1l-1.1 4.5 2.8.8 1.6-9.1a1.6 1.6 0 00-.7-1.7 1.5 1.5 0 00-1.8.2 42.8 42.8 0 00-5 8 1.5 1.5 0 00.3 1.1 1.5 1.5 0 002.2.3l.4-.5z"/><path fill="#231F20" d="M333.1 9.7l-.7 5.4c-.1.4 0 .8.1 1.1a1.5 1.5 0 001.5.8l.6-.2a1.4 1.4 0 00.7-1l.7-5.3c.1-.4 0-.8-.1-1.2-.2-.3-.6-.5-1-.7a1.5 1.5 0 00-1.8 1.1z"/><path fill="#231F20" d="M335.2 8.4l2.2-2.3c.8-.6 1.5-1.5 1.9-2.5a.5.5 0 00-.6-.6c-.1 0-.2 0-.3.2-1.9 2-3.2 4.6-3.8 7.3a.5.5 0 001 .3c.5-1.8 1.3-3.6 2.1-5.2l-.9-.3c0 1.6-.5 3.1-1.2 4.5-.3.5.5 1 .8.5.9-1.6 1.3-3.3 1.4-5a.5.5 0 00-.7-.5l-.2.2c-1 1.8-1.7 3.6-2.2 5.4l1 .3c.5-2.6 1.7-5 3.5-6.9l-.8-.5a6 6 0 01-1.9 2.3 10 10 0 00-2 2.3.5.5 0 00.1.6.5.5 0 00.7-.1z"/><path stroke="#231F20" stroke-width="2" d="M340 1h51.7c44.8 0 65 18 65 53.4 0 37-26.3 58.6-68.2 58.6h-27.4V176h-21V1.1zm47.5 94.7c34 0 47.4-17 47.4-39.5 0-27.4-13.8-38-46.4-38h-27.4v77.5h26.4z"/><path fill="#231F20" d="M96.7 28.8l.3 5.7a2 2 0 001.5 1.9h1c.5-.2 1-.5 1.2-1 .7-1 1.3-2 1.5-3.3.4-1.4.4-2.8.2-4.1a2 2 0 00-3.7-.5c-.2.5-.3 1-.2 1.5v.2-.5 2-.5a8 8 0 01-.5 2l.2-.4-1 1.6 3.8 1-.3-5.7a2 2 0 00-4 0zM88.4 33.5l4.6-7.6a2 2 0 10-3.4-2L85 31.5a2 2 0 003.4 2z"/><path fill="#231F20" d="M94.3 23l.4-.5-.4.4c.4-.4.7-.8 1.2-1.1l-.5.3.7-.4.5-.5a2 2 0 00.2-2.3 2 2 0 00-1.2-.9h-.5a2 2 0 00-1 .2 8.5 8.5 0 00-2.9 2.8l-.2.7v.8c0 .3.2.5.4.7l.5.5a2 2 0 001.6.2l.5-.2c.3-.1.5-.4.7-.7zM101 15c2.5 0 2.5-4 0-4-2.7 0-2.7 4 0 4zM107 11.3c.2 1.5.2 3 0 4.5v-.5.6l.1-.5c0 .1 0 .2-.2.3l.3-.4-.1.2a2 2 0 000 2.8c.4.4.9.6 1.4.6.5 0 1-.2 1.4-.6 1-.9 1.1-2.4 1.2-3.7v-3.3c0-.5-.2-1-.6-1.4a2 2 0 00-3.4 1.4zM85 42.7l1.4-.5c.3 0 .5-.2.7-.3l.5-.6c.2-.2.2-.5.3-.7v-.8l-.3-.5a2 2 0 00-.7-.7l-.4-.2h-1.1l-1.5.4c-.2 0-.4.2-.6.4l-.5.5c-.2.3-.3.5-.3.8v.8l.2.5.7.7.5.2h1z"/><path fill="#231F20" d="M88.6 41h.4l-.5-.1c.9 0 1.7.3 2.5.7.6 0 1.1 0 1.6-.2a2 2 0 00.7-2.7l-.3-.4a2 2 0 00-1-.6c-1-.4-2.2-.7-3.4-.8-.3 0-.6 0-.8.2-.2 0-.5.2-.6.4a2 2 0 00-.6 1.4c0 .6.2 1 .6 1.5l.4.3 1 .2zM83.7 45.5c2.6 0 2.6-4 0-4-2.5 0-2.5 4 0 4z"/><path fill="#231F20" d="M94.2 42.5c2.5 0 2.5-4 0-4-2.6 0-2.6 4 0 4z"/><path fill="#231F20" d="M95.8 44.8c2.5 0 2.6-4 0-4s-2.6 4 0 4z"/><path fill="#231F20" d="M94.7 45.3l.3 1.5v-.5 2.4-.5.1c0 .6 0 1.1.2 1.6.3.4.7.8 1.2.9a2 2 0 002.5-1.4 11.4 11.4 0 00-.3-5.2c-.2-.5-.5-.9-1-1.2a2 2 0 00-2.9 2.3zM96.8 58.1c0-.6.2-1.2.5-1.7l-.2.4.3-.6c.3-.5.3-1 .2-1.6l-.3-.7-.6-.5a2 2 0 00-2.8.8 9 9 0 00-1 2.9v.8c0 .2.1.5.3.7l.5.6c.2.1.4.3.7.3.5.2 1 0 1.5-.2l.4-.3c.3-.2.5-.5.5-.9zM93 70c2.6 0 2.6-4 0-4-2.5 0-2.5 4 0 4zM49.6 145.6l-.2 6a2 2 0 004 0l.2-6a2 2 0 00-4 0zM54.6 173.3c2.5 0 2.5-4 0-4-2.6 0-2.6 4 0 4zM52.5 178.8a19 19 0 001.4 9.5 2 2 0 002 .7 2 2 0 001.5-2.5 18 18 0 01-.6-2l-.3-1v-.4c-.1-.2 0-.2 0 0v-.2c-.2-1.3-.2-2.7 0-4.1a2 2 0 00-.6-1.4 2 2 0 00-2.8 0c-.4.4-.6.9-.6 1.4zM118.5 88.8l.6 1c.2.2.3.4.6.5.1.2.4.3.6.4h.8c.3 0 .6-.1.8-.3l.4-.3.5-.9v-.5a2 2 0 00-.2-1l-.6-1c-.2-.2-.3-.4-.6-.5l-.6-.4h-.8l-.8.2-.4.4a2 2 0 00-.5.8v.6c0 .3 0 .7.2 1zM145.1 117c-.2 3.5 0 7 1.6 10.2 1.4 2.5 3.6 4.6 4.2 7.4l3.8-1-3.2-9a2 2 0 00-3.9 1l3.3 9a2 2 0 103.8-1c-.6-3-2.6-5.3-4.1-7.8-1.7-2.7-1.7-5.7-1.5-8.9a2 2 0 00-4 0zM136.7 159a11 11 0 003 5c.4.3.9.5 1.4.5a2 2 0 001.4-3.4l-1-1 .3.3-1.1-2 .2.5-.4-1a2 2 0 00-3.8 1zM176 115.8l-.1 4.8a2 2 0 004 0v-4.8a2 2 0 00-4 0zM176.1 128.7a5.4 5.4 0 001.4 5.1c.3.3.6.4.9.5l.5.1c.3 0 .6 0 .8-.2l.4-.2.4-.4.3-.4.1-.8v-2.9c0-.5-.3-1-.6-1.4a2 2 0 00-3.5 1.4l.1 2.9 3.4-1.4-.2-.3.3.4-.5-.8.2.5a4 4 0 01-.2-.8v-.5.3c.2-.5.1-1-.1-1.6a2 2 0 00-3.7.5z"/><path fill="#231F20" d="M180.8 137.5c2.5 0 2.5-4 0-4-2.6 0-2.6 4 0 4zM156 156.1v5.3a2 2 0 004 0V156a2 2 0 00-4 0zM151.4 185.1c2.6 0 2.6-4 0-4s-2.6 4 0 4z"/><path fill="#231F20" d="M153.7 185.3l4.9-4a2 2 0 000-2.9 2 2 0 00-1.4-.6l-.6.1a2 2 0 00-.9.5l-4.8 4a2 2 0 001.4 3.4h.5l.9-.5z"/><path fill="#231F20" d="M159.9 179.8c2.6 0 2.6-4 0-4s-2.6 4 0 4z"/><path fill="#231F20" d="M163 177.6c2.6 0 2.6-4 0-4s-2.6 4 0 4zM132.5 64.3c2.6 0 2.6-4 0-4s-2.6 4 0 4zM249.8 25.6l-1.7 4.9a2 2 0 00.8 2.1l.7.4a2 2 0 002.4-1.4l1.6-5a2 2 0 00-2.1-2.5 2 2 0 00-1.7 1.5zM247.1 36.4V51c0 2.6 4 2.6 4 0V36.4c0-2.6-4-2.6-4 0zM252.1 59.3v.7l.1-.4-.2.5.2-.3-.3.4.2-.3-.4.4.3-.2c.4-.3.7-.7.9-1.2.1-.5 0-1-.2-1.5l-.3-.4a2 2 0 00-1-.5l-.5-.1a2 2 0 00-1 .3h-.2a6 6 0 00-.4.4l-.1.1v.1l-.5.5v.2l-.2.3a3.5 3.5 0 00-.2.6l-.1.7v.8l.4.7a2 2 0 002.1.7l.5-.2c.3-.2.6-.5.7-.8l.2-.4v-1z"/><path fill="#231F20" d="M252.1 43c2.6 0 2.6-4 0-4-2.5 0-2.5 4 0 4z"/><path fill="#231F20" d="M250.8 39.3c2.6 0 2.6-4 0-4-2.5 0-2.6 4 0 4zM254.1 20.5l.2.2v1l-.2.2-.2.1-.3.1h-.7l-.2-.2-.1-.2-.1-.3v-.2.2l.1.4.2.2.4.1h.5l.3-.1.3-.3.4-.7.1-.4v-.4c0-.1 0-.2-.2-.3l-.3-.3h-.2a1 1 0 00-.5 0h-.3a1 1 0 00-.3.4l-.4.7 1.8.5v-.6h-.2v-.2l-.2-.1-.3-.1a1 1 0 00-.6 0h-.1l-.4.2v.2h-.2v1.2l.2.2.3.2h.4a1 1 0 00.7-.2l.2-.2V21c0-.2 0-.3-.2-.4l.1-.1zM251.2 112.7l-.3 2.8a1 1 0 001.7.7c.2-.2.3-.4.3-.7l.3-2.8a1 1 0 00-1-1 1 1 0 00-.7.3c-.2.2-.3.5-.3.7zM245.5 128v3.7a1 1 0 001.7.7c.2-.2.3-.5.3-.7V128a1 1 0 00-1.7-.7 1 1 0 00-.3.7zM253.5 137.7a1 1 0 00.7-1.7 1 1 0 00-1.7.7 1 1 0 001 1z"/><path fill="#231F20" d="M254 134.7a14 14 0 01-1.8-7.3c0-1.3-2-1.3-2 0-.1 2.9.6 5.8 2 8.3a1 1 0 001.8-1z"/><path fill="#231F20" d="M250.1 119c-.3 2.3-.4 4.8-.2 7.3a1 1 0 001.7.7c.2-.2.3-.5.3-.7a32.3 32.3 0 01.2-7.2 1 1 0 00-.8-.9 1 1 0 00-1.2.7zM251.7 152.7a1 1 0 00.7-1.7 1 1 0 00-1.7.7 1 1 0 001 1zM254 142.8c0 2-.2 4.1-.9 6a1 1 0 00.7 1.3 1 1 0 001.3-.7c.7-2.1 1-4.3.9-6.6a1 1 0 00-1.7-.7 1 1 0 00-.3.7zM253 156.8l.3 5.3a1 1 0 001.7.7c.2-.2.3-.4.3-.7l-.3-5.3a1 1 0 00-1.7-.7 1 1 0 00-.3.7zM254.3 167.8v2.5a1 1 0 00.6.9 1 1 0 001-.2c.3-.2.4-.5.4-.7v-2.4a1 1 0 00-2 0zM336.9 104.9c-.7 1.6-1.1 3.2-1.4 4.9a1 1 0 001.4 1.1c.3-.1.5-.3.5-.6.3-1.7.8-3.3 1.4-4.9a1 1 0 00-1.4-1.1 1 1 0 00-.5.6z"/><path fill="#231F20" d="M335.1 111.6c0 1.5 0 3 .3 4.4a1 1 0 102-.5v-.3-.2-.4l-.1-1v-2a1 1 0 00-1.7-.7 1 1 0 00-.3.7h-.2z"/><path fill="#231F20" d="M335.3 116.7v3a1 1 0 001.7.7c.2-.2.3-.5.3-.7v-3a1 1 0 00-1.7-.7 1 1 0 00-.3.7z"/><path fill="#231F20" d="M335.2 120.7a59.6 59.6 0 01-1.2 9.6 1 1 0 00.7.9 1 1 0 001.2-.7 64 64 0 001.3-9.8c0-1.3-2-1.3-2 0zM332.7 148.5a1 1 0 00.7-1.7 1 1 0 00-1.7.7 1 1 0 001 1zM329.8 184.1a36.1 36.1 0 004.9-3.8 1 1 0 00-.5-1.4 1 1 0 00-1.1.3l-1 .9-.6.4-.2.2c-.1 0-.1 0 0 0l-.2.1a34.8 34.8 0 01-2.5 1.8 1 1 0 00-.2.8 1 1 0 001.5.7z"/><path fill="#231F20" d="M335 180.3l4.2-3.3a1 1 0 00-1-1.7l-4.2 3.3c-.2 0-.4.3-.5.6l.1.7a1 1 0 001.4.4zM332.1 54.2l.2.1.2.3.4.6.6 1.2.2.4c-.1-.3 0 0 0 .1l.3.7.3 1.3a1 1 0 102-.5c-.5-2-1.4-4-2.7-5.6a1 1 0 00-1.5 1.4z"/><path fill="#231F20" d="M335 61.4a1 1 0 100-2 1 1 0 000 2zM334.6 7.6a16.9 16.9 0 00-2.8 6.8 1 1 0 001.2.8 1 1 0 00.8-.7 15 15 0 012.6-6 1 1 0 00-.8-1.4 1 1 0 00-1 .5zM373.4 115h7a1 1 0 00.7-1.7 1 1 0 00-.7-.3h-7a1 1 0 00-.7 1.7c.2.2.5.3.7.3zM368.7 122.7l4.8-.2a1 1 0 00.7-1.7 1 1 0 00-.7-.3l-4.8.2a1 1 0 00-.7 1.7c.2.2.4.3.7.3zM382.7 124.4a58.2 58.2 0 0010.7 2.7 1 1 0 00.5-1 1 1 0 00-.7-.9 58.4 58.4 0 01-10.4-2.8 1 1 0 00-.8.8 1 1 0 00.7 1.2z"/><path fill="#231F20" d="M393.3 127.3c4.1.6 8.3.8 12.4.4 1.3-.1 1.3-2.1 0-2a49.6 49.6 0 01-12.6-.3 1 1 0 00-.5 1 1 1 0 00.7.9zM407.7 113.5c3.3.4 6.6-.4 9.5-2.2 1-.7 0-2.5-1-1.8a13.1 13.1 0 01-8.5 2 1 1 0 00-.7 1.7c.1.2.4.3.7.3zM408.8 127.2c1.8.3 3.5 0 5-1a1 1 0 00.5-.6 1 1 0 000-.7 1 1 0 00-1.5-.4 5 5 0 01-.5.3l-.2.1-1 .3h-.3c-.2 0-.1 0 0 0H409.4c.1 0 .2 0 0 0h-.1a1 1 0 00-1.1 1.4 1 1 0 00.6.5zM427.3 118.5l.5-.8-.1.1 1.8-1.8-.2.2.1-.1c.3-.2.4-.4.5-.6v-.8a1 1 0 00-.7-.5 1 1 0 00-.8.1c-1.1.9-2 2-2.9 3.2a1 1 0 00.4 1.3 1 1 0 001.4-.3z"/><path fill="#231F20" d="M428.3 118.3l4.7-5.7a1 1 0 10-1.4-1.4l-4.7 5.6a1 1 0 001.4 1.5z"/><path fill="#231F20" d="M433 112.7c0-.1 0-.2 0 0v-.3-.1-.1l.3-.4.1-.2c0 .1 0 0 0 0l1.4-1.4 3-3.1a1 1 0 10-1.4-1.4L433 109c-1 1.1-2.1 2.2-2.2 3.7a1 1 0 001.7.7c.2-.2.3-.4.3-.7z"/><path fill="#231F20" d="M434.2 108.7c-1.2 1-2.3 2.2-3.2 3.5a1 1 0 001.1 1.4c.2 0 .5-.2.6-.4l.2-.2v-.1l.4-.5.7-.8 1.6-1.5a1 1 0 00-1.4-1.5zM441.1 98.4a1 1 0 100-2 1 1 0 000 2zM411.6 24.4a1 1 0 00-.9-.1 1.1 1.1 0 00-.8 1v.5l.2.3a2.6 2.6 0 00.6 1 1.5 1.5 0 001.7.1c.2 0 .3-.2.5-.3l.2-.3c0-.2.1-.3 0-.4a1 1 0 00-1-1h-.2a1 1 0 00-.4.2v.1l.1-.2-.3.2h.3-.2.3-.1.4-.1l.2.1-.2-.1.2.2-.2-.4.1.2-.1-.4v.5l-.1.2-.2.2-.2.2h-1 .4c.1.1.2.1.4 0h.3l.3-.4a1 1 0 000-.7v-.3a1 1 0 00-.4-.3l.2-.1zM410.5 23a1 1 0 100-2 1 1 0 000 2zM409.6 30.4a1 1 0 100-2 1 1 0 000 2zM406.1 30.2a1 1 0 100-2 1 1 0 000 2zM408 28.9a1 1 0 100-2 1 1 0 000 2z"/><path fill="#231F20" d="M408.4 28.6a1 1 0 100-2 1 1 0 000 2z"/><path fill="#231F20" d="M409.6 27.2a1 1 0 100-2 1 1 0 000 2z"/><path fill="#231F20" d="M409.8 26.4a1 1 0 100-2 1 1 0 000 2z"/><path fill="#231F20" d="M409.9 25.6a1 1 0 100-2 1 1 0 000 2zM409.1 21.7a1 1 0 100-2 1 1 0 000 2z"/><path fill="#231F20" d="M409 21.6a1 1 0 100-2 1 1 0 000 2z"/><path fill="#231F20" d="M409.5 22.4a1 1 0 100-2 1 1 0 000 2z"/><path fill="#231F20" d="M409.4 22.2a1 1 0 100-2 1 1 0 000 2z"/><path fill="#231F20" d="M409.7 23a1 1 0 100-2 1 1 0 000 2z"/><path fill="#231F20" d="M409.9 23.6a1 1 0 100-2 1 1 0 000 2zM396.7 31.4a1 1 0 100-2 1 1 0 000 2z"/><path fill="#231F20" d="M397.6 31.4a1 1 0 100-2 1 1 0 000 2z"/><path fill="#231F20" d="M399.2 31.4a1 1 0 100-2 1 1 0 000 2z"/><path fill="#231F20" d="M399.2 31.3a1 1 0 100-2 1 1 0 000 2z"/><path fill="#231F20" d="M400 31.3a1 1 0 100-2 1 1 0 000 2z"/><path fill="#231F20" d="M399.8 31.3a1 1 0 100-2 1 1 0 000 2z"/><path fill="#231F20" d="M400.5 31.3a1 1 0 100-2 1 1 0 000 2z"/><path fill="#231F20" d="M400.8 31.1a1 1 0 100-2 1 1 0 000 2z"/><path fill="#231F20" d="M402 30.9a1 1 0 100-2 1 1 0 000 2z"/><path fill="#231F20" d="M402.6 30.8a1 1 0 100-2 1 1 0 000 2z"/></g><defs><clipPath id="clip0"><path fill="#fff" d="M0 0h457.7v191.8H0z"/></clipPath></defs></svg>